M48
;GenerationSoftware,Autodesk,EAGLE,9.6.2*%
;CreationDate,2021-08-05T17:58:11Z*%
FMAT,2
ICI,OFF
METRIC,TZ,000.000
T5C0.305
T4C0.381
T3C0.508
T2C0.850
T1C1.016
%
G90
M71
T1
X12700Y50800
X121666Y75438
X152146Y56388
X154686Y56134
X157226Y56388
X162306Y56134
X114808Y50800
X164846Y56388
X167386Y56134
X169926Y56388
X172466Y56134
X175006Y56388
X175006Y104648
X172466Y104902
X169926Y104648
X167386Y104902
X164846Y104648
X162306Y104902
X159766Y104648
X157226Y104902
X24130Y2286
X26670Y2540
X29210Y2286
X31750Y2540
X34290Y2286
X36830Y2540
X41910Y2286
X44450Y2540
X46990Y2286
X49530Y2540
X52070Y2286
X54610Y2540
X54610Y50800
X52070Y51054
X49530Y50800
X46990Y51054
X44450Y50800
X41910Y51054
X39370Y50800
X36830Y51054
X33020Y50800
X30480Y51054
X27940Y50800
X25400Y51054
X22860Y50800
X20320Y51054
X17780Y50800
X15240Y51054
X107188Y51054
X10160Y50800
X21590Y2540
X19050Y2286
X153416Y104648
X150876Y104902
X148336Y104648
X145796Y104902
X143256Y104648
X140716Y104902
X138176Y104648
X135636Y104902
X133096Y104648
X130556Y104648
X32004Y10973
X29464Y10973
X1270Y43180
X1270Y40640
X1270Y38100
X1270Y35560
X1270Y33020
X1270Y30480
X58420Y16510
X58420Y13970
X58420Y11430
X58420Y8890
X1270Y3810
X1270Y6350
X1270Y8890
X1270Y11430
X1270Y13970
X1270Y16510
X1270Y19050
X1270Y21590
X84328Y2286
X86868Y2540
X89408Y2286
X91948Y2540
X94488Y2286
X97028Y2540
X102108Y2286
X104648Y2540
X107188Y2286
X109728Y2540
X112268Y2286
X114808Y2540
X112268Y51054
X109728Y50800
X141986Y56388
X104648Y50800
X102108Y51054
X99568Y50800
X97028Y51054
X93218Y50800
X90678Y51054
X88138Y50800
X85598Y51054
X83058Y50800
X80518Y51054
X77978Y50800
X75438Y51054
X72898Y50800
X70358Y50800
X81788Y2540
X79248Y2286
X139446Y56134
X152400Y64821
X149860Y64821
X121666Y97028
X121666Y94488
X121666Y91948
X121666Y89408
X121666Y86868
X121666Y84328
X178816Y70358
X92202Y10973
X89662Y10973
X61468Y43180
X61468Y40640
X61468Y38100
X61468Y35560
X61468Y33020
X61468Y30480
X118618Y16510
X118618Y13970
X118618Y11430
X118618Y8890
X61468Y3810
X61468Y6350
X61468Y8890
X61468Y11430
X61468Y13970
X61468Y16510
X61468Y19050
X61468Y21590
X144526Y2286
X147066Y2540
X149606Y2286
X152146Y2540
X154686Y2286
X157226Y2540
X162306Y2286
X164846Y2540
X167386Y2286
X169926Y2540
X172466Y2286
X175006Y2540
X175006Y50800
X172466Y51054
X169926Y50800
X167386Y51054
X164846Y50800
X162306Y51054
X159766Y50800
X157226Y51054
X153416Y50800
X150876Y51054
X148336Y50800
X145796Y51054
X143256Y50800
X140716Y51054
X138176Y50800
X135636Y51054
X133096Y50800
X130556Y50800
X141986Y2540
X139446Y2286
X178816Y67818
X178816Y65278
X178816Y62738
X121666Y57658
X121666Y60198
X121666Y62738
X121666Y65278
X121666Y67818
X121666Y70358
X121666Y72898
X152400Y10973
X149860Y10973
X121666Y43180
X121666Y40640
X121666Y38100
X121666Y35560
X121666Y33020
X121666Y30480
X178816Y16510
X178816Y13970
X178816Y11430
X178816Y8890
X121666Y3810
X121666Y6350
X121666Y8890
X121666Y11430
X121666Y13970
X121666Y16510
X121666Y19050
X121666Y21590
X24130Y56134
X26670Y56388
X29210Y56134
X31750Y56388
X34290Y56134
X36830Y56388
X41910Y56134
X44450Y56388
X46990Y56134
X49530Y56388
X52070Y56134
X54610Y56388
X54610Y104648
X52070Y104902
X49530Y104648
X46990Y104902
X44450Y104648
X41910Y104902
X39370Y104648
X36830Y104902
X33020Y104648
X30480Y104902
X27940Y104648
X25400Y104902
X22860Y104648
X20320Y104902
X17780Y104648
X15240Y104902
X12700Y104648
X10160Y104648
X21590Y56388
X19050Y56134
X32004Y64821
X29464Y64821
X1270Y97028
X1270Y94488
X1270Y91948
X1270Y89408
X1270Y86868
X1270Y84328
X58420Y70358
X58420Y67818
X58420Y65278
X58420Y62738
X1270Y57658
X1270Y60198
X1270Y62738
X1270Y65278
X1270Y67818
X1270Y70358
X1270Y72898
X1270Y75438
X84328Y56134
X86868Y56388
X89408Y56134
X91948Y56388
X94488Y56134
X97028Y56388
X102108Y56134
X104648Y56388
X107188Y56134
X109728Y56388
X112268Y56134
X114808Y56388
X114808Y104648
X112268Y104902
X109728Y104648
X107188Y104902
X104648Y104648
X102108Y104902
X99568Y104648
X97028Y104902
X93218Y104648
X90678Y104902
X88138Y104648
X85598Y104902
X83058Y104648
X80518Y104902
X77978Y104648
X75438Y104902
X72898Y104648
X70358Y104648
X81788Y56388
X79248Y56134
X92202Y64821
X89662Y64821
X61468Y97028
X61468Y94488
X61468Y91948
X61468Y89408
X61468Y86868
X61468Y84328
X118618Y70358
X118618Y67818
X118618Y65278
X118618Y62738
X61468Y57658
X61468Y60198
X61468Y62738
X61468Y65278
X61468Y67818
X61468Y70358
X61468Y72898
X61468Y75438
X144526Y56134
X147066Y56388
X149606Y56134
T2
X156996Y41720
X39600Y95567
X96798Y95567
X99798Y95567
X156996Y95567
X36600Y41720
X39600Y41720
X96798Y41720
X99798Y41720
X159996Y95567
X159996Y41720
X36600Y95567
T3
X32639Y76899
X32639Y75629
X32639Y80709
X31369Y79439
X31369Y24320
X31369Y25590
X31369Y78169
X31369Y23050
X31369Y21781
X31369Y26860
X32639Y25590
X32639Y24320
X32639Y23050
X32639Y21781
X32639Y26860
X91567Y79439
X91567Y25590
X91567Y24320
X91567Y23050
X91567Y21781
X91567Y26860
X92837Y25590
X92837Y24320
X92837Y23050
X92837Y21781
X92837Y26860
X151765Y25590
X151765Y24320
X151765Y23050
X151765Y21781
X151765Y26860
X153035Y25590
X153035Y24320
X153035Y23050
X153035Y21781
X153035Y26860
X91567Y78169
X151765Y79439
X151765Y78169
X151765Y76899
X151765Y75629
X151765Y80709
X153035Y79439
X153035Y78169
X153035Y76899
X153035Y75629
X153035Y80709
X91567Y76899
X91567Y75629
X91567Y80709
X92837Y79439
X92837Y78169
X92837Y76899
X92837Y75629
X92837Y80709
X31369Y76899
X31369Y75629
X31369Y80709
X32639Y79439
X32639Y78169
T4
X49530Y39370
X49530Y93218
X109728Y93218
X169926Y93218
X109728Y39370
X169926Y39370
T5
X99568Y29210
X100838Y27940
X100838Y30480
X102108Y29210
X102108Y26670
X102108Y24130
X103378Y25400
X104648Y24130
X104648Y29210
X103378Y30480
X104648Y31750
X105918Y30480
X103378Y27940
X108458Y29210
X106616Y29273
X107696Y30277
X109779Y30328
X104648Y26670
X102108Y31750
X114808Y20320
X117348Y20320
X118618Y6350
X114808Y6350
X110998Y6350
X99568Y6350
X95758Y6350
X91948Y6350
X88138Y6350
X90043Y8255
X93853Y8255
X97663Y8255
X95758Y10160
X115062Y18161
X116713Y19177
X84328Y6350
X80518Y6350
X76708Y6350
X85852Y8255
X82423Y8255
X78613Y8255
X74803Y8255
X70993Y8255
X72898Y6350
X69088Y6350
X72898Y10160
X69088Y10160
X76708Y10160
X80518Y10160
X84328Y10160
X85852Y12065
X78613Y12065
X74803Y12065
X70993Y12065
X65278Y2540
X74955Y4470
X71145Y4470
X78765Y4470
X82575Y4470
X85877Y4470
X90195Y4470
X94005Y4470
X97815Y4470
X101625Y4470
X105435Y4470
X109245Y4470
X113055Y4470
X116865Y4470
X73685Y2565
X69723Y20320
X73787Y20320
X77343Y20320
X81153Y20320
X69723Y24130
X73787Y24130
X77343Y24130
X81153Y24130
X69723Y27940
X73787Y27940
X77343Y27940
X81153Y27940
X67818Y22225
X71628Y22225
X75438Y22225
X79248Y22225
X79248Y26035
X75438Y26035
X71628Y29845
X67818Y26035
X67818Y29845
X75438Y29845
X79248Y29845
X102108Y40894
X105918Y40894
X108712Y40894
X113538Y40894
X116586Y40894
X103886Y42799
X107315Y42799
X115062Y43180
X115316Y38989
X113538Y37084
X117348Y37084
X102870Y45339
X105918Y45339
X108839Y45339
X113538Y45466
X116586Y45339
X116586Y49149
X110998Y49022
X99568Y45339
X98044Y46482
X100838Y46609
X104140Y46609
X107569Y46609
X113538Y48260
X115570Y47371
X69723Y31750
X73787Y31750
X77026Y31813
X81153Y31750
X67818Y33655
X71628Y33655
X75438Y33655
X79248Y33655
X79248Y37465
X75438Y37465
X71628Y37465
X67818Y37465
X81153Y39370
X77089Y39116
X73787Y39370
X69723Y39370
X67818Y41275
X71628Y41275
X75438Y41275
X76518Y43434
X73787Y43307
X69723Y43180
X71247Y45085
X75057Y45085
X81153Y46990
X77343Y46926
X73787Y46926
X75438Y48895
X79248Y48895
X104038Y38506
X70993Y15875
X74803Y15875
X78613Y15875
X72898Y17272
X76708Y17272
X80518Y17272
X69088Y17780
X67247Y15875
X62103Y46990
X63817Y51435
X66358Y51435
X106807Y31686
X108712Y31686
X64643Y39370
X63055Y41212
X64643Y43180
X67818Y44831
X67818Y47625
X69723Y47371
X79248Y45085
X105410Y37465
X82423Y12065
X69088Y2540
X68707Y12065
X84963Y20320
X88773Y20320
X91948Y20320
X86868Y22225
X84963Y24130
X84963Y27940
X84963Y31750
X86868Y26035
X86868Y29845
X86868Y33655
X88773Y31750
X88773Y27940
X88773Y24130
X89916Y22225
X91948Y33655
X84836Y37338
X88392Y37338
X84963Y39370
X88773Y39370
X86868Y41275
X84963Y43180
X84963Y46990
X86868Y45085
X88773Y43180
X88773Y46990
X86868Y48895
X90678Y45085
X90678Y41275
X92583Y39370
X92583Y43180
X92583Y46990
X90678Y48895
X88138Y10033
X93853Y12065
X87630Y12065
X63055Y45021
X107188Y6350
X103378Y6350
X116713Y8255
X101473Y7683
X97663Y12065
X95758Y13335
X109093Y7874
X112903Y7683
X114808Y9462
X113919Y14922
X65913Y24130
X65913Y27940
X65913Y31750
X65913Y20320
X62674Y26035
X60960Y24130
X60960Y27940
X71628Y26035
X110363Y42799
X116205Y15811
X108458Y16828
X108458Y15811
X99695Y31864
X99695Y36132
X100711Y31864
X100711Y36640
X109708Y34659
X108708Y34710
X101708Y18415
X94551Y38799
X96719Y19503
X96279Y23190
X99606Y47434
X103721Y18479
X98869Y43244
X104711Y18479
X98298Y40272
X104788Y17285
X109708Y18606
X99123Y30162
X66802Y30797
X65850Y48641
X77978Y30797
X90360Y37148
X89587Y37604
X82550Y15748
X103441Y7302
X83566Y16408
X103441Y8191
X84392Y17018
X103314Y11112
X81661Y17272
X103378Y12001
X112700Y14592
X94615Y48260
X73660Y18034
X72390Y18669
X72365Y42482
X81153Y41466
X81153Y42990
X108458Y9208
X105918Y9208
X95631Y19431
X102718Y18440
X95720Y14326
X94234Y33020
X94297Y13652
X105918Y13017
X103378Y13017
X171247Y34773
X152400Y30099
X171196Y24130
X167958Y22860
X178308Y23939
X152400Y31623
X179324Y35306
X178435Y35306
X177482Y35306
X176593Y35306
X175577Y35306
X173800Y34735
X173800Y33719
X173800Y32702
X173800Y31559
X173800Y30480
X173800Y28257
X173800Y27178
X173800Y26035
X173800Y24955
X174181Y24003
X175196Y23939
X176276Y23939
X179324Y23939
X177292Y23939
X174625Y35306
X173800Y29337
X170942Y31750
X171958Y31750
X172847Y31750
X172911Y32766
X172911Y33846
X172911Y34989
X171247Y35865
X172466Y30480
X171196Y29210
X172466Y27940
X171196Y26670
X172466Y25400
X171196Y21590
X172466Y22860
X169926Y22860
X173736Y21590
X175006Y22860
X176276Y21590
X177546Y22860
X168656Y21590
X166116Y22860
X164846Y21590
X163576Y22860
X162306Y21590
X161036Y22860
X159766Y21590
X159766Y24130
X159766Y26670
X161036Y25400
X159766Y29210
X161036Y27940
X161036Y30480
X162306Y29210
X162306Y26670
X162306Y24130
X163576Y25400
X164846Y24130
X164846Y29210
X163576Y30480
X164846Y31750
X166116Y30480
X163576Y27940
X168656Y29210
X166815Y29273
X167894Y30277
X169977Y30328
X164846Y26670
X162306Y31750
X175006Y20320
X177546Y20320
X178816Y6350
X175006Y6350
X171196Y6350
X159766Y6350
X155956Y6350
X152146Y6350
X148336Y6350
X150241Y8255
X154051Y8255
X157861Y8255
X155956Y10160
X175260Y18161
X176911Y19177
X144526Y6350
X140716Y6350
X136906Y6350
X146050Y8255
X142621Y8255
X138811Y8255
X135001Y8255
X131191Y8255
X133096Y6350
X129286Y6350
X133096Y10160
X129286Y10160
X136906Y10160
X140716Y10160
X144526Y10160
X146050Y12065
X138811Y12065
X135001Y12065
X131191Y12065
X125476Y2540
X135153Y4470
X131343Y4470
X138963Y4470
X142773Y4470
X146075Y4470
X150393Y4470
X154203Y4470
X158013Y4470
X161823Y4470
X165633Y4470
X169443Y4470
X173253Y4470
X177063Y4470
X133883Y2565
X129921Y20320
X133985Y20320
X137541Y20320
X141351Y20320
X129921Y24130
X133985Y24130
X137541Y24130
X141351Y24130
X129921Y27940
X133985Y27940
X137541Y27940
X141351Y27940
X128016Y22225
X131826Y22225
X135636Y22225
X139446Y22225
X139446Y26035
X135636Y26035
X131826Y29845
X128016Y26035
X128016Y29845
X135636Y29845
X139446Y29845
X162306Y40894
X166116Y40894
X168910Y40894
X173736Y40894
X176784Y40894
X164084Y42799
X167513Y42799
X175260Y43180
X175514Y38989
X173736Y37084
X177546Y37084
X163068Y45339
X166116Y45339
X169037Y45339
X173736Y45466
X176784Y45339
X176784Y49149
X171196Y49022
X159766Y45339
X158242Y46482
X161036Y46609
X164338Y46609
X167767Y46609
X173736Y48260
X175768Y47371
X129921Y31750
X133985Y31750
X137224Y31813
X141351Y31750
X128016Y33655
X131826Y33655
X135636Y33655
X139446Y33655
X139446Y37465
X135636Y37465
X131826Y37465
X128016Y37465
X141351Y39370
X137287Y39116
X133985Y39370
X129921Y39370
X128016Y41275
X131826Y41275
X135636Y41275
X136716Y43434
X133985Y43307
X129921Y43180
X131445Y45085
X135255Y45085
X141351Y46990
X137541Y46926
X133985Y46926
X135636Y48895
X139446Y48895
X164236Y38506
X131191Y15875
X135001Y15875
X138811Y15875
X133096Y17272
X136906Y17272
X140716Y17272
X129286Y17780
X127444Y15875
X122301Y46990
X124015Y51435
X126555Y51435
X167005Y31686
X168910Y31686
X124841Y39370
X123253Y41212
X124841Y43180
X128016Y44831
X128016Y47625
X129921Y47371
X139446Y45085
X165608Y37465
X142621Y12065
X129286Y2540
X128905Y12065
X145161Y20320
X148971Y20320
X152146Y20320
X147066Y22225
X145161Y24130
X145161Y27940
X145161Y31750
X147066Y26035
X147066Y29845
X147066Y33655
X148971Y31750
X148971Y27940
X148971Y24130
X150114Y22225
X152146Y33655
X145034Y37338
X148590Y37338
X145161Y39370
X148971Y39370
X147066Y41275
X145161Y43180
X145161Y46990
X147066Y45085
X148971Y43180
X148971Y46990
X147066Y48895
X150876Y45085
X150876Y41275
X152781Y39370
X152781Y43180
X152781Y46990
X150876Y48895
X148336Y10033
X154051Y12065
X147828Y12065
X123253Y45021
X167386Y6350
X163576Y6350
X176911Y8255
X161671Y7683
X157861Y12065
X155956Y13335
X169291Y7874
X173101Y7683
X175006Y9462
X174117Y14922
X126111Y24130
X126111Y27940
X126111Y31750
X126111Y20320
X122872Y26035
X121158Y24130
X121158Y27940
X131826Y26035
X170561Y42799
X176403Y15811
X168656Y16828
X168656Y15811
X159893Y31864
X159893Y36132
X160909Y31864
X160909Y36640
X169906Y34659
X168906Y34710
X161906Y18415
X154750Y38799
X156917Y19503
X156477Y23190
X159804Y47434
X163919Y18479
X159068Y43244
X164910Y18479
X158496Y40272
X164986Y17285
X169906Y18606
X159322Y30162
X127000Y30797
X126047Y48641
X138176Y30797
X150559Y37148
X149785Y37604
X142748Y15748
X163640Y7302
X143764Y16408
X163640Y8191
X144590Y17018
X163513Y11112
X141859Y17272
X163576Y12001
X172898Y14592
X154813Y48260
X133858Y18034
X132588Y18669
X132563Y42482
X141351Y41466
X141351Y42990
X168656Y9208
X166116Y9208
X155829Y19431
X162916Y18440
X155918Y14326
X154432Y33020
X154496Y13652
X166116Y13017
X163576Y13017
X50851Y88621
X32004Y83947
X50800Y77978
X47561Y76708
X57912Y77788
X32004Y85471
X58928Y89154
X58039Y89154
X57086Y89154
X56197Y89154
X55181Y89154
X53403Y88582
X53403Y87566
X53403Y86551
X53403Y85408
X53403Y84328
X53403Y82106
X53403Y81026
X53403Y79883
X53403Y78804
X53784Y77851
X54800Y77788
X55880Y77788
X58928Y77788
X56896Y77788
X54229Y89154
X53403Y83185
X50546Y85598
X51562Y85598
X52451Y85598
X52514Y86614
X52514Y87693
X52514Y88836
X50851Y89713
X52070Y84328
X50800Y83058
X52070Y81788
X50800Y80518
X52070Y79248
X50800Y75438
X52070Y76708
X49530Y76708
X53340Y75438
X54610Y76708
X55880Y75438
X57150Y76708
X48260Y75438
X45720Y76708
X44450Y75438
X43180Y76708
X41910Y75438
X40640Y76708
X39370Y75438
X39370Y77978
X39370Y80518
X40640Y79248
X39370Y83058
X40640Y81788
X40640Y84328
X41910Y83058
X41910Y80518
X41910Y77978
X43180Y79248
X44450Y77978
X44450Y83058
X43180Y84328
X44450Y85598
X45720Y84328
X43180Y81788
X48260Y83058
X46418Y83122
X47498Y84125
X49581Y84176
X44450Y80518
X41910Y85598
X54610Y74168
X57150Y74168
X58420Y60198
X54610Y60198
X50800Y60198
X39370Y60198
X35560Y60198
X31750Y60198
X27940Y60198
X29845Y62103
X33655Y62103
X37465Y62103
X35560Y64008
X54864Y72009
X56515Y73025
X24130Y60198
X20320Y60198
X16510Y60198
X25654Y62103
X22225Y62103
X18415Y62103
X14605Y62103
X10795Y62103
X12700Y60198
X8890Y60198
X12700Y64008
X8890Y64008
X16510Y64008
X20320Y64008
X24130Y64008
X25654Y65913
X18415Y65913
X14605Y65913
X10795Y65913
X5080Y56388
X14757Y58318
X10947Y58318
X18567Y58318
X22377Y58318
X25679Y58318
X29997Y58318
X33807Y58318
X37617Y58318
X41427Y58318
X45237Y58318
X49047Y58318
X52857Y58318
X56667Y58318
X13487Y56413
X9525Y74168
X13589Y74168
X17145Y74168
X20955Y74168
X9525Y77978
X13589Y77978
X17145Y77978
X20955Y77978
X9525Y81788
X13589Y81788
X17145Y81788
X20955Y81788
X7620Y76073
X11430Y76073
X15240Y76073
X19050Y76073
X19050Y79883
X15240Y79883
X11430Y83693
X7620Y79883
X7620Y83693
X15240Y83693
X19050Y83693
X41910Y94742
X45720Y94742
X48514Y94742
X53340Y94742
X56388Y94742
X43688Y96647
X47117Y96647
X54864Y97028
X55118Y92837
X53340Y90932
X57150Y90932
X42672Y99187
X45720Y99187
X48641Y99187
X53340Y99314
X56388Y99187
X56388Y102997
X50800Y102870
X39370Y99187
X37846Y100330
X40640Y100457
X43942Y100457
X47371Y100457
X53340Y102108
X55372Y101219
X9525Y85598
X13589Y85598
X16828Y85662
X20955Y85598
X7620Y87503
X11430Y87503
X15240Y87503
X19050Y87503
X19050Y91313
X15240Y91313
X11430Y91313
X7620Y91313
X20955Y93218
X16891Y92964
X13589Y93218
X9525Y93218
X7620Y95123
X11430Y95123
X15240Y95123
X16319Y97282
X44513Y18479
X9525Y97028
X11049Y98933
X14859Y98933
X20955Y100838
X17145Y100774
X13589Y100774
X15240Y102743
X19050Y102743
X43840Y92354
X10795Y69723
X14605Y69723
X18415Y69723
X12700Y71120
X16510Y71120
X20320Y71120
X8890Y71628
X7048Y69723
X1905Y100838
X3619Y105283
X6159Y105283
X46609Y85535
X48514Y85535
X4445Y93218
X2857Y95059
X4445Y97028
X7620Y98679
X7620Y101473
X9525Y101219
X19050Y98933
X45212Y91313
X22225Y65913
X8890Y56388
X8509Y65913
X24765Y74168
X28575Y74168
X31750Y74168
X26670Y76073
X24765Y77978
X24765Y81788
X24765Y85598
X26670Y79883
X26670Y83693
X26670Y87503
X28575Y85598
X28575Y81788
X28575Y77978
X29718Y76073
X31750Y87503
X24638Y91186
X28194Y91186
X24765Y93218
X28575Y93218
X26670Y95123
X24765Y97028
X24765Y100838
X26670Y98933
X28575Y97028
X28575Y100838
X26670Y102743
X30480Y98933
X30480Y95123
X32385Y93218
X32385Y97028
X32385Y100838
X30480Y102743
X27940Y63881
X33655Y65913
X27432Y65913
X2857Y98869
X46990Y60198
X43180Y60198
X56515Y62103
X41275Y61531
X37465Y65913
X35560Y67183
X48895Y61722
X52705Y61531
X54610Y63309
X53721Y68771
X5715Y77978
X5715Y81788
X5715Y85598
X5715Y74168
X2477Y79883
X762Y77978
X762Y81788
X11430Y79883
X50165Y96647
X56007Y69660
X48260Y70676
X48260Y69660
X39497Y85712
X39497Y89979
X40513Y85712
X40513Y90487
X49510Y88507
X48510Y88558
X41510Y72263
X34354Y92646
X36521Y73351
X36081Y77038
X39408Y101282
X43523Y72327
X38672Y97091
X44513Y72327
X38100Y94120
X44590Y71133
X49510Y72454
X38926Y84011
X6604Y84646
X5651Y102489
X17780Y84646
X50851Y34773
X30162Y90995
X29389Y91452
X22352Y69596
X43244Y61150
X23368Y70256
X43244Y62039
X24193Y70866
X43117Y64960
X21463Y71120
X43180Y65850
X52502Y68440
X34417Y102108
X13462Y71882
X12192Y72517
X12167Y96329
X20955Y95313
X20955Y96837
X48260Y63055
X45720Y63055
X35433Y73279
X42520Y72288
X35522Y68174
X34036Y86868
X34100Y67501
X45720Y66866
X43180Y66866
X111049Y88621
X92202Y83947
X110998Y77978
X107759Y76708
X118110Y77788
X92202Y85471
X119126Y89154
X118237Y89154
X117284Y89154
X116395Y89154
X115379Y89154
X113601Y88582
X113601Y87566
X113601Y86551
X113601Y85408
X113601Y84328
X113601Y82106
X113601Y81026
X113601Y79883
X113601Y78804
X113982Y77851
X114998Y77788
X116078Y77788
X119126Y77788
X117094Y77788
X114427Y89154
X113601Y83185
X110744Y85598
X111760Y85598
X112649Y85598
X112712Y86614
X112712Y87693
X112712Y88836
X111049Y89713
X112268Y84328
X110998Y83058
X112268Y81788
X110998Y80518
X112268Y79248
X110998Y75438
X112268Y76708
X109728Y76708
X113538Y75438
X114808Y76708
X116078Y75438
X117348Y76708
X108458Y75438
X105918Y76708
X104648Y75438
X103378Y76708
X102108Y75438
X100838Y76708
X99568Y75438
X99568Y77978
X99568Y80518
X100838Y79248
X99568Y83058
X100838Y81788
X100838Y84328
X102108Y83058
X102108Y80518
X102108Y77978
X103378Y79248
X104648Y77978
X104648Y83058
X103378Y84328
X104648Y85598
X105918Y84328
X103378Y81788
X108458Y83058
X106616Y83122
X107696Y84125
X109779Y84176
X104648Y80518
X102108Y85598
X114808Y74168
X117348Y74168
X118618Y60198
X114808Y60198
X110998Y60198
X99568Y60198
X95758Y60198
X91948Y60198
X88138Y60198
X90043Y62103
X93853Y62103
X97663Y62103
X95758Y64008
X115062Y72009
X116713Y73025
X84328Y60198
X80518Y60198
X76708Y60198
X85852Y62103
X82423Y62103
X78613Y62103
X74803Y62103
X70993Y62103
X72898Y60198
X69088Y60198
X72898Y64008
X69088Y64008
X76708Y64008
X80518Y64008
X84328Y64008
X85852Y65913
X78613Y65913
X74803Y65913
X70993Y65913
X65278Y56388
X74955Y58318
X71145Y58318
X78765Y58318
X82575Y58318
X85877Y58318
X90195Y58318
X94005Y58318
X97815Y58318
X101625Y58318
X105435Y58318
X109245Y58318
X113055Y58318
X116865Y58318
X73685Y56413
X69723Y74168
X73787Y74168
X77343Y74168
X81153Y74168
X69723Y77978
X73787Y77978
X77343Y77978
X81153Y77978
X69723Y81788
X73787Y81788
X77343Y81788
X81153Y81788
X67818Y76073
X71628Y76073
X75438Y76073
X79248Y76073
X79248Y79883
X75438Y79883
X71628Y83693
X67818Y79883
X67818Y83693
X75438Y83693
X79248Y83693
X102108Y94742
X105918Y94742
X108712Y94742
X113538Y94742
X116586Y94742
X103886Y96647
X107315Y96647
X115062Y97028
X115316Y92837
X113538Y90932
X117348Y90932
X102870Y99187
X105918Y99187
X108839Y99187
X113538Y99314
X116586Y99187
X116586Y102997
X110998Y102870
X99568Y99187
X98044Y100330
X100838Y100457
X104140Y100457
X107569Y100457
X113538Y102108
X115570Y101219
X69723Y85598
X73787Y85598
X77026Y85662
X81153Y85598
X67818Y87503
X71628Y87503
X75438Y87503
X79248Y87503
X79248Y91313
X75438Y91313
X71628Y91313
X67818Y91313
X81153Y93218
X77089Y92964
X73787Y93218
X69723Y93218
X67818Y95123
X71628Y95123
X75438Y95123
X76518Y97282
X73787Y97155
X69723Y97028
X71247Y98933
X75057Y98933
X81153Y100838
X77343Y100774
X73787Y100774
X75438Y102743
X79248Y102743
X104038Y92354
X70993Y69723
X74803Y69723
X78613Y69723
X72898Y71120
X76708Y71120
X80518Y71120
X69088Y71628
X67247Y69723
X62103Y100838
X63817Y105283
X66358Y105283
X106807Y85535
X108712Y85535
X64643Y93218
X63055Y95059
X64643Y97028
X67818Y98679
X67818Y101473
X69723Y101219
X79248Y98933
X105410Y91313
X82423Y65913
X69088Y56388
X68707Y65913
X84963Y74168
X88773Y74168
X91948Y74168
X86868Y76073
X84963Y77978
X84963Y81788
X84963Y85598
X86868Y79883
X86868Y83693
X86868Y87503
X88773Y85598
X88773Y81788
X88773Y77978
X89916Y76073
X91948Y87503
X84836Y91186
X88392Y91186
X84963Y93218
X88773Y93218
X86868Y95123
X84963Y97028
X84963Y100838
X86868Y98933
X88773Y97028
X88773Y100838
X86868Y102743
X90678Y98933
X90678Y95123
X92583Y93218
X92583Y97028
X92583Y100838
X90678Y102743
X88138Y63881
X93853Y65913
X87630Y65913
X63055Y98869
X107188Y60198
X103378Y60198
X116713Y62103
X101473Y61531
X97663Y65913
X95758Y67183
X109093Y61722
X112903Y61531
X114808Y63309
X113919Y68771
X65913Y77978
X65913Y81788
X65913Y85598
X65913Y74168
X62674Y79883
X60960Y77978
X60960Y81788
X71628Y79883
X110363Y96647
X116205Y69660
X108458Y70676
X108458Y69660
X99695Y85712
X99695Y89979
X100711Y85712
X100711Y90487
X109708Y88507
X108708Y88558
X101708Y72263
X94551Y92646
X96719Y73351
X96279Y77038
X99606Y101282
X103721Y72327
X98869Y97091
X104711Y72327
X98298Y94120
X104788Y71133
X109708Y72454
X99123Y84011
X66802Y84646
X65850Y102489
X77978Y84646
X32004Y30099
X90360Y90995
X89587Y91452
X82550Y69596
X103441Y61150
X83566Y70256
X103441Y62039
X84392Y70866
X103314Y64960
X81661Y71120
X103378Y65850
X112700Y68440
X94615Y102108
X73660Y71882
X72390Y72517
X72365Y96329
X81153Y95313
X81153Y96837
X108458Y63055
X105918Y63055
X95631Y73279
X102718Y72288
X95720Y68174
X94234Y86868
X94297Y67501
X105918Y66866
X103378Y66866
X171247Y88621
X152400Y83947
X171196Y77978
X167958Y76708
X178308Y77788
X152400Y85471
X179324Y89154
X178435Y89154
X177482Y89154
X176593Y89154
X175577Y89154
X173800Y88582
X173800Y87566
X173800Y86551
X173800Y85408
X173800Y84328
X173800Y82106
X173800Y81026
X173800Y79883
X173800Y78804
X174181Y77851
X175196Y77788
X176276Y77788
X179324Y77788
X177292Y77788
X174625Y89154
X173800Y83185
X170942Y85598
X171958Y85598
X172847Y85598
X172911Y86614
X172911Y87693
X172911Y88836
X171247Y89713
X172466Y84328
X171196Y83058
X172466Y81788
X171196Y80518
X172466Y79248
X171196Y75438
X172466Y76708
X169926Y76708
X173736Y75438
X175006Y76708
X176276Y75438
X177546Y76708
X168656Y75438
X166116Y76708
X164846Y75438
X163576Y76708
X162306Y75438
X161036Y76708
X159766Y75438
X159766Y77978
X159766Y80518
X161036Y79248
X159766Y83058
X161036Y81788
X161036Y84328
X162306Y83058
X162306Y80518
X162306Y77978
X163576Y79248
X164846Y77978
X164846Y83058
X163576Y84328
X164846Y85598
X166116Y84328
X163576Y81788
X168656Y83058
X166815Y83122
X167894Y84125
X169977Y84176
X164846Y80518
X162306Y85598
X175006Y74168
X177546Y74168
X178816Y60198
X175006Y60198
X171196Y60198
X159766Y60198
X155956Y60198
X152146Y60198
X148336Y60198
X150241Y62103
X154051Y62103
X157861Y62103
X155956Y64008
X175260Y72009
X176911Y73025
X144526Y60198
X140716Y60198
X136906Y60198
X146050Y62103
X142621Y62103
X138811Y62103
X135001Y62103
X131191Y62103
X133096Y60198
X129286Y60198
X133096Y64008
X129286Y64008
X136906Y64008
X140716Y64008
X144526Y64008
X146050Y65913
X138811Y65913
X135001Y65913
X131191Y65913
X125476Y56388
X135153Y58318
X131343Y58318
X138963Y58318
X142773Y58318
X146075Y58318
X150393Y58318
X154203Y58318
X158013Y58318
X161823Y58318
X165633Y58318
X169443Y58318
X50800Y24130
X177063Y58318
X133883Y56413
X129921Y74168
X133985Y74168
X137541Y74168
X141351Y74168
X129921Y77978
X133985Y77978
X137541Y77978
X141351Y77978
X129921Y81788
X133985Y81788
X137541Y81788
X141351Y81788
X128016Y76073
X131826Y76073
X135636Y76073
X139446Y76073
X139446Y79883
X135636Y79883
X131826Y83693
X128016Y79883
X128016Y83693
X135636Y83693
X139446Y83693
X162306Y94742
X166116Y94742
X168910Y94742
X173736Y94742
X176784Y94742
X164084Y96647
X167513Y96647
X175260Y97028
X175514Y92837
X173736Y90932
X177546Y90932
X163068Y99187
X166116Y99187
X169037Y99187
X173736Y99314
X176784Y99187
X176784Y102997
X171196Y102870
X159766Y99187
X158242Y100330
X161036Y100457
X164338Y100457
X167767Y100457
X173736Y102108
X175768Y101219
X129921Y85598
X133985Y85598
X137224Y85662
X141351Y85598
X128016Y87503
X131826Y87503
X135636Y87503
X139446Y87503
X139446Y91313
X135636Y91313
X131826Y91313
X128016Y91313
X141351Y93218
X137287Y92964
X133985Y93218
X129921Y93218
X128016Y95123
X131826Y95123
X135636Y95123
X136716Y97282
X133985Y97155
X129921Y97028
X131445Y98933
X135255Y98933
X141351Y100838
X137541Y100774
X133985Y100774
X135636Y102743
X139446Y102743
X164236Y92354
X131191Y69723
X135001Y69723
X138811Y69723
X133096Y71120
X136906Y71120
X140716Y71120
X129286Y71628
X127444Y69723
X122301Y100838
X124015Y105283
X126555Y105283
X167005Y85535
X168910Y85535
X124841Y93218
X123253Y95059
X124841Y97028
X128016Y98679
X128016Y101473
X129921Y101219
X139446Y98933
X165608Y91313
X142621Y65913
X129286Y56388
X128905Y65913
X145161Y74168
X148971Y74168
X152146Y74168
X147066Y76073
X145161Y77978
X145161Y81788
X145161Y85598
X147066Y79883
X147066Y83693
X147066Y87503
X148971Y85598
X148971Y81788
X148971Y77978
X150114Y76073
X152146Y87503
X145034Y91186
X148590Y91186
X145161Y93218
X148971Y93218
X147066Y95123
X145161Y97028
X145161Y100838
X147066Y98933
X148971Y97028
X148971Y100838
X147066Y102743
X150876Y98933
X150876Y95123
X152781Y93218
X152781Y97028
X152781Y100838
X150876Y102743
X148336Y63881
X154051Y65913
X147828Y65913
X123253Y98869
X167386Y60198
X163576Y60198
X176911Y62103
X161671Y61531
X157861Y65913
X155956Y67183
X169291Y61722
X173101Y61531
X175006Y63309
X174117Y68771
X126111Y77978
X126111Y81788
X126111Y85598
X126111Y74168
X122872Y79883
X121158Y77978
X121158Y81788
X131826Y79883
X170561Y96647
X176403Y69660
X168656Y70676
X168656Y69660
X159893Y85712
X159893Y89979
X160909Y85712
X160909Y90487
X169906Y88507
X168906Y88558
X161906Y72263
X154750Y92646
X156917Y73351
X156477Y77038
X159804Y101282
X163919Y72327
X159068Y97091
X164910Y72327
X158496Y94120
X164986Y71133
X169906Y72454
X159322Y84011
X127000Y84646
X126047Y102489
X138176Y84646
X47561Y22860
X150559Y90995
X149785Y91452
X142748Y69596
X163640Y61150
X143764Y70256
X163640Y62039
X144590Y70866
X163513Y64960
X141859Y71120
X163576Y65850
X172898Y68440
X154813Y102108
X133858Y71882
X132588Y72517
X132563Y96329
X141351Y95313
X141351Y96837
X168656Y63055
X166116Y63055
X155829Y73279
X162916Y72288
X155918Y68174
X154432Y86868
X154496Y67501
X166116Y66866
X163576Y66866
X57912Y23939
X32004Y31623
X58928Y35306
X58039Y35306
X57086Y35306
X56197Y35306
X55181Y35306
X53403Y34735
X53403Y33719
X53403Y32702
X53403Y31559
X53403Y30480
X53403Y28257
X53403Y27178
X53403Y26035
X53403Y24955
X53784Y24003
X54800Y23939
X55880Y23939
X58928Y23939
X56896Y23939
X54229Y35306
X53403Y29337
X50546Y31750
X51562Y31750
X52451Y31750
X52514Y32766
X52514Y33846
X52514Y34989
X50851Y35865
X52070Y30480
X50800Y29210
X52070Y27940
X50800Y26670
X52070Y25400
X50800Y21590
X52070Y22860
X49530Y22860
X53340Y21590
X54610Y22860
X55880Y21590
X57150Y22860
X48260Y21590
X45720Y22860
X44450Y21590
X43180Y22860
X41910Y21590
X40640Y22860
X39370Y21590
X39370Y24130
X39370Y26670
X40640Y25400
X39370Y29210
X40640Y27940
X40640Y30480
X41910Y29210
X41910Y26670
X41910Y24130
X43180Y25400
X44450Y24130
X44450Y29210
X43180Y30480
X44450Y31750
X45720Y30480
X43180Y27940
X48260Y29210
X46418Y29273
X47498Y30277
X49581Y30328
X44450Y26670
X41910Y31750
X54610Y20320
X57150Y20320
X58420Y6350
X54610Y6350
X50800Y6350
X39370Y6350
X35560Y6350
X31750Y6350
X27940Y6350
X29845Y8255
X33655Y8255
X37465Y8255
X35560Y10160
X54864Y18161
X56515Y19177
X13589Y97155
X24130Y6350
X20320Y6350
X16510Y6350
X25654Y8255
X22225Y8255
X18415Y8255
X14605Y8255
X10795Y8255
X12700Y6350
X8890Y6350
X12700Y10160
X8890Y10160
X16510Y10160
X20320Y10160
X24130Y10160
X25654Y12065
X18415Y12065
X14605Y12065
X10795Y12065
X5080Y2540
X14757Y4470
X10947Y4470
X18567Y4470
X22377Y4470
X25679Y4470
X29997Y4470
X33807Y4470
X37617Y4470
X41427Y4470
X45237Y4470
X49047Y4470
X52857Y4470
X56667Y4470
X13487Y2565
X9525Y20320
X13589Y20320
X17145Y20320
X20955Y20320
X9525Y24130
X13589Y24130
X17145Y24130
X20955Y24130
X9525Y27940
X13589Y27940
X17145Y27940
X20955Y27940
X7620Y22225
X11430Y22225
X15240Y22225
X19050Y22225
X19050Y26035
X15240Y26035
X11430Y29845
X7620Y26035
X7620Y29845
X15240Y29845
X19050Y29845
X41910Y40894
X45720Y40894
X48514Y40894
X53340Y40894
X56388Y40894
X43688Y42799
X47117Y42799
X54864Y43180
X55118Y38989
X53340Y37084
X57150Y37084
X42672Y45339
X45720Y45339
X48641Y45339
X53340Y45466
X56388Y45339
X56388Y49149
X50800Y49022
X39370Y45339
X37846Y46482
X40640Y46609
X43942Y46609
X47371Y46609
X53340Y48260
X55372Y47371
X9525Y31750
X13589Y31750
X16828Y31813
X20955Y31750
X7620Y33655
X11430Y33655
X15240Y33655
X19050Y33655
X19050Y37465
X15240Y37465
X11430Y37465
X7620Y37465
X20955Y39370
X16891Y39116
X13589Y39370
X9525Y39370
X7620Y41275
X11430Y41275
X15240Y41275
X16319Y43434
X13589Y43307
X9525Y43180
X11049Y45085
X14859Y45085
X20955Y46990
X17145Y46926
X13589Y46926
X15240Y48895
X19050Y48895
X43840Y38506
X10795Y15875
X14605Y15875
X18415Y15875
X12700Y17272
X16510Y17272
X20320Y17272
X8890Y17780
X7048Y15875
X1905Y46990
X3619Y51435
X6159Y51435
X46609Y31686
X48514Y31686
X4445Y39370
X2857Y41212
X4445Y43180
X7620Y44831
X7620Y47625
X9525Y47371
X19050Y45085
X45212Y37465
X22225Y12065
X8890Y2540
X8509Y12065
X24765Y20320
X28575Y20320
X31750Y20320
X26670Y22225
X24765Y24130
X24765Y27940
X24765Y31750
X26670Y26035
X26670Y29845
X26670Y33655
X28575Y31750
X28575Y27940
X28575Y24130
X29718Y22225
X31750Y33655
X24638Y37338
X28194Y37338
X24765Y39370
X28575Y39370
X26670Y41275
X24765Y43180
X24765Y46990
X26670Y45085
X28575Y43180
X28575Y46990
X26670Y48895
X30480Y45085
X30480Y41275
X32385Y39370
X32385Y43180
X32385Y46990
X30480Y48895
X27940Y10033
X33655Y12065
X27432Y12065
X2857Y45021
X46990Y6350
X43180Y6350
X56515Y8255
X41275Y7683
X37465Y12065
X35560Y13335
X48895Y7874
X52705Y7683
X54610Y9462
X53721Y14922
X5715Y24130
X5715Y27940
X5715Y31750
X5715Y20320
X2477Y26035
X762Y24130
X762Y27940
X11430Y26035
X50165Y42799
X56007Y15811
X48260Y16828
X48260Y15811
X39497Y31864
X39497Y36132
X40513Y31864
X40513Y36640
X49510Y34659
X48510Y34710
X41510Y18415
X34354Y38799
X36521Y19503
X36081Y23190
X39408Y47434
X43523Y18479
X38672Y43244
X38100Y40272
X44590Y17285
X49510Y18606
X38926Y30162
X6604Y30797
X5651Y48641
X17780Y30797
X30162Y37148
X29389Y37604
X22352Y15748
X43244Y7302
X23368Y16408
X43244Y8191
X24193Y17018
X43117Y11112
X21463Y17272
X43180Y12001
X52502Y14592
X34417Y48260
X13462Y18034
X12192Y18669
X12167Y42482
X20955Y41466
X20955Y42990
X48260Y9208
X45720Y9208
X35433Y19431
X42520Y18440
X35522Y14326
X34036Y33020
X34100Y13652
X45720Y13017
X43180Y13017
X111049Y34773
X92202Y30099
X110998Y24130
X107759Y22860
X118110Y23939
X92202Y31623
X119126Y35306
X118237Y35306
X117284Y35306
X116395Y35306
X115379Y35306
X113601Y34735
X113601Y33719
X113601Y32702
X113601Y31559
X113601Y30480
X113601Y28257
X113601Y27178
X113601Y26035
X113601Y24955
X113982Y24003
X114998Y23939
X116078Y23939
X119126Y23939
X117094Y23939
X114427Y35306
X113601Y29337
X110744Y31750
X111760Y31750
X112649Y31750
X112712Y32766
X112712Y33846
X112712Y34989
X111049Y35865
X112268Y30480
X110998Y29210
X112268Y27940
X110998Y26670
X112268Y25400
X110998Y21590
X112268Y22860
X109728Y22860
X113538Y21590
X114808Y22860
X116078Y21590
X117348Y22860
X108458Y21590
X105918Y22860
X104648Y21590
X103378Y22860
X102108Y21590
X100838Y22860
X99568Y21590
X99568Y24130
X99568Y26670
X100838Y25400
X173253Y58318
M30