G04 EAGLE Gerber RS-274X export*
G75*
%MOMM*%
%FSLAX34Y34*%
%LPD*%
%INSoldermask Bottom*%
%IPPOS*%
%AMOC8*
5,1,8,0,0,1.08239X$1,22.5*%
G01*
%ADD10C,2.032000*%
%ADD11C,1.002400*%
%ADD12C,1.152400*%
%ADD13C,0.251966*%
%ADD14C,0.914400*%
%ADD15C,1.270000*%
%ADD16C,1.652400*%

G36*
X1513270Y640981D02*
X1513270Y640981D01*
X1513336Y640983D01*
X1513379Y641001D01*
X1513426Y641009D01*
X1513483Y641043D01*
X1513543Y641068D01*
X1513578Y641099D01*
X1513619Y641124D01*
X1513661Y641175D01*
X1513709Y641219D01*
X1513731Y641261D01*
X1513760Y641298D01*
X1513781Y641360D01*
X1513812Y641419D01*
X1513820Y641473D01*
X1513832Y641510D01*
X1513831Y641550D01*
X1513839Y641604D01*
X1513839Y654812D01*
X1513828Y654877D01*
X1513826Y654943D01*
X1513808Y654986D01*
X1513800Y655033D01*
X1513766Y655090D01*
X1513741Y655150D01*
X1513710Y655185D01*
X1513685Y655226D01*
X1513634Y655268D01*
X1513590Y655316D01*
X1513548Y655338D01*
X1513511Y655367D01*
X1513449Y655388D01*
X1513390Y655419D01*
X1513336Y655427D01*
X1513299Y655439D01*
X1513259Y655438D01*
X1513205Y655446D01*
X1509395Y655446D01*
X1509330Y655435D01*
X1509264Y655433D01*
X1509221Y655415D01*
X1509174Y655407D01*
X1509117Y655373D01*
X1509057Y655348D01*
X1509022Y655317D01*
X1508981Y655292D01*
X1508940Y655241D01*
X1508891Y655197D01*
X1508869Y655155D01*
X1508840Y655118D01*
X1508819Y655056D01*
X1508788Y654997D01*
X1508780Y654943D01*
X1508768Y654906D01*
X1508769Y654866D01*
X1508761Y654812D01*
X1508761Y641604D01*
X1508772Y641539D01*
X1508774Y641473D01*
X1508792Y641430D01*
X1508800Y641383D01*
X1508834Y641326D01*
X1508859Y641266D01*
X1508890Y641231D01*
X1508915Y641190D01*
X1508966Y641149D01*
X1509010Y641100D01*
X1509052Y641078D01*
X1509089Y641049D01*
X1509151Y641028D01*
X1509210Y640997D01*
X1509264Y640989D01*
X1509301Y640977D01*
X1509341Y640978D01*
X1509395Y640970D01*
X1513205Y640970D01*
X1513270Y640981D01*
G37*
G36*
X911290Y640981D02*
X911290Y640981D01*
X911356Y640983D01*
X911399Y641001D01*
X911446Y641009D01*
X911503Y641043D01*
X911563Y641068D01*
X911598Y641099D01*
X911639Y641124D01*
X911681Y641175D01*
X911729Y641219D01*
X911751Y641261D01*
X911780Y641298D01*
X911801Y641360D01*
X911832Y641419D01*
X911840Y641473D01*
X911852Y641510D01*
X911851Y641550D01*
X911859Y641604D01*
X911859Y654812D01*
X911848Y654877D01*
X911846Y654943D01*
X911828Y654986D01*
X911820Y655033D01*
X911786Y655090D01*
X911761Y655150D01*
X911730Y655185D01*
X911705Y655226D01*
X911654Y655268D01*
X911610Y655316D01*
X911568Y655338D01*
X911531Y655367D01*
X911469Y655388D01*
X911410Y655419D01*
X911356Y655427D01*
X911319Y655439D01*
X911279Y655438D01*
X911225Y655446D01*
X907415Y655446D01*
X907350Y655435D01*
X907284Y655433D01*
X907241Y655415D01*
X907194Y655407D01*
X907137Y655373D01*
X907077Y655348D01*
X907042Y655317D01*
X907001Y655292D01*
X906960Y655241D01*
X906911Y655197D01*
X906889Y655155D01*
X906860Y655118D01*
X906839Y655056D01*
X906808Y654997D01*
X906800Y654943D01*
X906788Y654906D01*
X906789Y654866D01*
X906781Y654812D01*
X906781Y641604D01*
X906792Y641539D01*
X906794Y641473D01*
X906812Y641430D01*
X906820Y641383D01*
X906854Y641326D01*
X906879Y641266D01*
X906910Y641231D01*
X906935Y641190D01*
X906986Y641149D01*
X907030Y641100D01*
X907072Y641078D01*
X907109Y641049D01*
X907171Y641028D01*
X907230Y640997D01*
X907284Y640989D01*
X907321Y640977D01*
X907361Y640978D01*
X907415Y640970D01*
X911225Y640970D01*
X911290Y640981D01*
G37*
G36*
X309310Y640981D02*
X309310Y640981D01*
X309376Y640983D01*
X309419Y641001D01*
X309466Y641009D01*
X309523Y641043D01*
X309583Y641068D01*
X309618Y641099D01*
X309659Y641124D01*
X309701Y641175D01*
X309749Y641219D01*
X309771Y641261D01*
X309800Y641298D01*
X309821Y641360D01*
X309852Y641419D01*
X309860Y641473D01*
X309872Y641510D01*
X309871Y641550D01*
X309879Y641604D01*
X309879Y654812D01*
X309868Y654877D01*
X309866Y654943D01*
X309848Y654986D01*
X309840Y655033D01*
X309806Y655090D01*
X309781Y655150D01*
X309750Y655185D01*
X309725Y655226D01*
X309674Y655268D01*
X309630Y655316D01*
X309588Y655338D01*
X309551Y655367D01*
X309489Y655388D01*
X309430Y655419D01*
X309376Y655427D01*
X309339Y655439D01*
X309299Y655438D01*
X309245Y655446D01*
X305435Y655446D01*
X305370Y655435D01*
X305304Y655433D01*
X305261Y655415D01*
X305214Y655407D01*
X305157Y655373D01*
X305097Y655348D01*
X305062Y655317D01*
X305021Y655292D01*
X304980Y655241D01*
X304931Y655197D01*
X304909Y655155D01*
X304880Y655118D01*
X304859Y655056D01*
X304828Y654997D01*
X304820Y654943D01*
X304808Y654906D01*
X304809Y654866D01*
X304801Y654812D01*
X304801Y641604D01*
X304812Y641539D01*
X304814Y641473D01*
X304832Y641430D01*
X304840Y641383D01*
X304874Y641326D01*
X304899Y641266D01*
X304930Y641231D01*
X304955Y641190D01*
X305006Y641149D01*
X305050Y641100D01*
X305092Y641078D01*
X305129Y641049D01*
X305191Y641028D01*
X305250Y640997D01*
X305304Y640989D01*
X305341Y640977D01*
X305381Y640978D01*
X305435Y640970D01*
X309245Y640970D01*
X309310Y640981D01*
G37*
G36*
X309310Y102501D02*
X309310Y102501D01*
X309376Y102503D01*
X309419Y102521D01*
X309466Y102529D01*
X309523Y102563D01*
X309583Y102588D01*
X309618Y102619D01*
X309659Y102644D01*
X309701Y102695D01*
X309749Y102739D01*
X309771Y102781D01*
X309800Y102818D01*
X309821Y102880D01*
X309852Y102939D01*
X309860Y102993D01*
X309872Y103030D01*
X309871Y103070D01*
X309879Y103124D01*
X309879Y116332D01*
X309868Y116397D01*
X309866Y116463D01*
X309848Y116506D01*
X309840Y116553D01*
X309806Y116610D01*
X309781Y116670D01*
X309750Y116705D01*
X309725Y116746D01*
X309674Y116788D01*
X309630Y116836D01*
X309588Y116858D01*
X309551Y116887D01*
X309489Y116908D01*
X309430Y116939D01*
X309376Y116947D01*
X309339Y116959D01*
X309299Y116958D01*
X309245Y116966D01*
X305435Y116966D01*
X305370Y116955D01*
X305304Y116953D01*
X305261Y116935D01*
X305214Y116927D01*
X305157Y116893D01*
X305097Y116868D01*
X305062Y116837D01*
X305021Y116812D01*
X304980Y116761D01*
X304931Y116717D01*
X304909Y116675D01*
X304880Y116638D01*
X304859Y116576D01*
X304828Y116517D01*
X304820Y116463D01*
X304808Y116426D01*
X304809Y116386D01*
X304801Y116332D01*
X304801Y103124D01*
X304812Y103059D01*
X304814Y102993D01*
X304832Y102950D01*
X304840Y102903D01*
X304874Y102846D01*
X304899Y102786D01*
X304930Y102751D01*
X304955Y102710D01*
X305006Y102669D01*
X305050Y102620D01*
X305092Y102598D01*
X305129Y102569D01*
X305191Y102548D01*
X305250Y102517D01*
X305304Y102509D01*
X305341Y102497D01*
X305381Y102498D01*
X305435Y102490D01*
X309245Y102490D01*
X309310Y102501D01*
G37*
G36*
X911290Y102501D02*
X911290Y102501D01*
X911356Y102503D01*
X911399Y102521D01*
X911446Y102529D01*
X911503Y102563D01*
X911563Y102588D01*
X911598Y102619D01*
X911639Y102644D01*
X911681Y102695D01*
X911729Y102739D01*
X911751Y102781D01*
X911780Y102818D01*
X911801Y102880D01*
X911832Y102939D01*
X911840Y102993D01*
X911852Y103030D01*
X911851Y103070D01*
X911859Y103124D01*
X911859Y116332D01*
X911848Y116397D01*
X911846Y116463D01*
X911828Y116506D01*
X911820Y116553D01*
X911786Y116610D01*
X911761Y116670D01*
X911730Y116705D01*
X911705Y116746D01*
X911654Y116788D01*
X911610Y116836D01*
X911568Y116858D01*
X911531Y116887D01*
X911469Y116908D01*
X911410Y116939D01*
X911356Y116947D01*
X911319Y116959D01*
X911279Y116958D01*
X911225Y116966D01*
X907415Y116966D01*
X907350Y116955D01*
X907284Y116953D01*
X907241Y116935D01*
X907194Y116927D01*
X907137Y116893D01*
X907077Y116868D01*
X907042Y116837D01*
X907001Y116812D01*
X906960Y116761D01*
X906911Y116717D01*
X906889Y116675D01*
X906860Y116638D01*
X906839Y116576D01*
X906808Y116517D01*
X906800Y116463D01*
X906788Y116426D01*
X906789Y116386D01*
X906781Y116332D01*
X906781Y103124D01*
X906792Y103059D01*
X906794Y102993D01*
X906812Y102950D01*
X906820Y102903D01*
X906854Y102846D01*
X906879Y102786D01*
X906910Y102751D01*
X906935Y102710D01*
X906986Y102669D01*
X907030Y102620D01*
X907072Y102598D01*
X907109Y102569D01*
X907171Y102548D01*
X907230Y102517D01*
X907284Y102509D01*
X907321Y102497D01*
X907361Y102498D01*
X907415Y102490D01*
X911225Y102490D01*
X911290Y102501D01*
G37*
G36*
X1513270Y102501D02*
X1513270Y102501D01*
X1513336Y102503D01*
X1513379Y102521D01*
X1513426Y102529D01*
X1513483Y102563D01*
X1513543Y102588D01*
X1513578Y102619D01*
X1513619Y102644D01*
X1513661Y102695D01*
X1513709Y102739D01*
X1513731Y102781D01*
X1513760Y102818D01*
X1513781Y102880D01*
X1513812Y102939D01*
X1513820Y102993D01*
X1513832Y103030D01*
X1513831Y103070D01*
X1513839Y103124D01*
X1513839Y116332D01*
X1513828Y116397D01*
X1513826Y116463D01*
X1513808Y116506D01*
X1513800Y116553D01*
X1513766Y116610D01*
X1513741Y116670D01*
X1513710Y116705D01*
X1513685Y116746D01*
X1513634Y116788D01*
X1513590Y116836D01*
X1513548Y116858D01*
X1513511Y116887D01*
X1513449Y116908D01*
X1513390Y116939D01*
X1513336Y116947D01*
X1513299Y116959D01*
X1513259Y116958D01*
X1513205Y116966D01*
X1509395Y116966D01*
X1509330Y116955D01*
X1509264Y116953D01*
X1509221Y116935D01*
X1509174Y116927D01*
X1509117Y116893D01*
X1509057Y116868D01*
X1509022Y116837D01*
X1508981Y116812D01*
X1508940Y116761D01*
X1508891Y116717D01*
X1508869Y116675D01*
X1508840Y116638D01*
X1508819Y116576D01*
X1508788Y116517D01*
X1508780Y116463D01*
X1508768Y116426D01*
X1508769Y116386D01*
X1508761Y116332D01*
X1508761Y103124D01*
X1508772Y103059D01*
X1508774Y102993D01*
X1508792Y102950D01*
X1508800Y102903D01*
X1508834Y102846D01*
X1508859Y102786D01*
X1508890Y102751D01*
X1508915Y102710D01*
X1508966Y102669D01*
X1509010Y102620D01*
X1509052Y102598D01*
X1509089Y102569D01*
X1509151Y102548D01*
X1509210Y102517D01*
X1509264Y102509D01*
X1509301Y102497D01*
X1509341Y102498D01*
X1509395Y102490D01*
X1513205Y102490D01*
X1513270Y102501D01*
G37*
G36*
X793180Y953147D02*
X793180Y953147D01*
X793246Y953149D01*
X793289Y953167D01*
X793336Y953175D01*
X793393Y953209D01*
X793453Y953234D01*
X793488Y953265D01*
X793529Y953290D01*
X793571Y953341D01*
X793619Y953385D01*
X793641Y953427D01*
X793670Y953464D01*
X793691Y953526D01*
X793722Y953585D01*
X793730Y953639D01*
X793742Y953676D01*
X793741Y953716D01*
X793749Y953770D01*
X793749Y957580D01*
X793738Y957645D01*
X793736Y957711D01*
X793718Y957754D01*
X793710Y957801D01*
X793676Y957858D01*
X793651Y957918D01*
X793620Y957953D01*
X793595Y957994D01*
X793544Y958036D01*
X793500Y958084D01*
X793458Y958106D01*
X793421Y958135D01*
X793359Y958156D01*
X793300Y958187D01*
X793246Y958195D01*
X793209Y958207D01*
X793169Y958206D01*
X793115Y958214D01*
X790575Y958214D01*
X790510Y958203D01*
X790444Y958201D01*
X790401Y958183D01*
X790354Y958175D01*
X790297Y958141D01*
X790237Y958116D01*
X790202Y958085D01*
X790161Y958060D01*
X790120Y958009D01*
X790071Y957965D01*
X790049Y957923D01*
X790020Y957886D01*
X789999Y957824D01*
X789968Y957765D01*
X789960Y957711D01*
X789948Y957674D01*
X789948Y957670D01*
X789948Y957669D01*
X789949Y957634D01*
X789941Y957580D01*
X789941Y953770D01*
X789952Y953705D01*
X789954Y953639D01*
X789972Y953596D01*
X789980Y953549D01*
X790014Y953492D01*
X790039Y953432D01*
X790070Y953397D01*
X790095Y953356D01*
X790146Y953315D01*
X790190Y953266D01*
X790232Y953244D01*
X790269Y953215D01*
X790331Y953194D01*
X790390Y953163D01*
X790444Y953155D01*
X790481Y953143D01*
X790521Y953144D01*
X790575Y953136D01*
X793115Y953136D01*
X793180Y953147D01*
G37*
G36*
X191200Y953147D02*
X191200Y953147D01*
X191266Y953149D01*
X191309Y953167D01*
X191356Y953175D01*
X191413Y953209D01*
X191473Y953234D01*
X191508Y953265D01*
X191549Y953290D01*
X191591Y953341D01*
X191639Y953385D01*
X191661Y953427D01*
X191690Y953464D01*
X191711Y953526D01*
X191742Y953585D01*
X191750Y953639D01*
X191762Y953676D01*
X191761Y953716D01*
X191769Y953770D01*
X191769Y957580D01*
X191758Y957645D01*
X191756Y957711D01*
X191738Y957754D01*
X191730Y957801D01*
X191696Y957858D01*
X191671Y957918D01*
X191640Y957953D01*
X191615Y957994D01*
X191564Y958036D01*
X191520Y958084D01*
X191478Y958106D01*
X191441Y958135D01*
X191379Y958156D01*
X191320Y958187D01*
X191266Y958195D01*
X191229Y958207D01*
X191189Y958206D01*
X191135Y958214D01*
X188595Y958214D01*
X188530Y958203D01*
X188464Y958201D01*
X188421Y958183D01*
X188374Y958175D01*
X188317Y958141D01*
X188257Y958116D01*
X188222Y958085D01*
X188181Y958060D01*
X188140Y958009D01*
X188091Y957965D01*
X188069Y957923D01*
X188040Y957886D01*
X188019Y957824D01*
X187988Y957765D01*
X187980Y957711D01*
X187968Y957674D01*
X187968Y957670D01*
X187968Y957669D01*
X187969Y957634D01*
X187961Y957580D01*
X187961Y953770D01*
X187972Y953705D01*
X187974Y953639D01*
X187992Y953596D01*
X188000Y953549D01*
X188034Y953492D01*
X188059Y953432D01*
X188090Y953397D01*
X188115Y953356D01*
X188166Y953315D01*
X188210Y953266D01*
X188252Y953244D01*
X188289Y953215D01*
X188351Y953194D01*
X188410Y953163D01*
X188464Y953155D01*
X188501Y953143D01*
X188541Y953144D01*
X188595Y953136D01*
X191135Y953136D01*
X191200Y953147D01*
G37*
G36*
X1395160Y953147D02*
X1395160Y953147D01*
X1395226Y953149D01*
X1395269Y953167D01*
X1395316Y953175D01*
X1395373Y953209D01*
X1395433Y953234D01*
X1395468Y953265D01*
X1395509Y953290D01*
X1395551Y953341D01*
X1395599Y953385D01*
X1395621Y953427D01*
X1395650Y953464D01*
X1395671Y953526D01*
X1395702Y953585D01*
X1395710Y953639D01*
X1395722Y953676D01*
X1395721Y953716D01*
X1395729Y953770D01*
X1395729Y957580D01*
X1395718Y957645D01*
X1395716Y957711D01*
X1395698Y957754D01*
X1395690Y957801D01*
X1395656Y957858D01*
X1395631Y957918D01*
X1395600Y957953D01*
X1395575Y957994D01*
X1395524Y958036D01*
X1395480Y958084D01*
X1395438Y958106D01*
X1395401Y958135D01*
X1395339Y958156D01*
X1395280Y958187D01*
X1395226Y958195D01*
X1395189Y958207D01*
X1395149Y958206D01*
X1395095Y958214D01*
X1392555Y958214D01*
X1392490Y958203D01*
X1392424Y958201D01*
X1392381Y958183D01*
X1392334Y958175D01*
X1392277Y958141D01*
X1392217Y958116D01*
X1392182Y958085D01*
X1392141Y958060D01*
X1392100Y958009D01*
X1392051Y957965D01*
X1392029Y957923D01*
X1392000Y957886D01*
X1391979Y957824D01*
X1391948Y957765D01*
X1391940Y957711D01*
X1391928Y957674D01*
X1391928Y957670D01*
X1391928Y957669D01*
X1391929Y957634D01*
X1391921Y957580D01*
X1391921Y953770D01*
X1391932Y953705D01*
X1391934Y953639D01*
X1391952Y953596D01*
X1391960Y953549D01*
X1391994Y953492D01*
X1392019Y953432D01*
X1392050Y953397D01*
X1392075Y953356D01*
X1392126Y953315D01*
X1392170Y953266D01*
X1392212Y953244D01*
X1392249Y953215D01*
X1392311Y953194D01*
X1392370Y953163D01*
X1392424Y953155D01*
X1392461Y953143D01*
X1392501Y953144D01*
X1392555Y953136D01*
X1395095Y953136D01*
X1395160Y953147D01*
G37*
G36*
X1729678Y712482D02*
X1729678Y712482D01*
X1729744Y712484D01*
X1729787Y712502D01*
X1729834Y712510D01*
X1729891Y712544D01*
X1729951Y712569D01*
X1729986Y712600D01*
X1730027Y712625D01*
X1730069Y712676D01*
X1730117Y712720D01*
X1730139Y712762D01*
X1730168Y712799D01*
X1730189Y712861D01*
X1730220Y712920D01*
X1730228Y712974D01*
X1730240Y713011D01*
X1730239Y713051D01*
X1730247Y713105D01*
X1730247Y716915D01*
X1730236Y716980D01*
X1730234Y717046D01*
X1730216Y717089D01*
X1730208Y717136D01*
X1730174Y717193D01*
X1730149Y717253D01*
X1730118Y717288D01*
X1730093Y717329D01*
X1730042Y717371D01*
X1729998Y717419D01*
X1729956Y717441D01*
X1729919Y717470D01*
X1729857Y717491D01*
X1729798Y717522D01*
X1729744Y717530D01*
X1729707Y717542D01*
X1729667Y717541D01*
X1729613Y717549D01*
X1727073Y717549D01*
X1727008Y717538D01*
X1726942Y717536D01*
X1726899Y717518D01*
X1726852Y717510D01*
X1726795Y717476D01*
X1726735Y717451D01*
X1726700Y717420D01*
X1726659Y717395D01*
X1726618Y717344D01*
X1726569Y717300D01*
X1726547Y717258D01*
X1726518Y717221D01*
X1726497Y717159D01*
X1726466Y717100D01*
X1726458Y717046D01*
X1726446Y717009D01*
X1726446Y717005D01*
X1726446Y717004D01*
X1726447Y716969D01*
X1726439Y716915D01*
X1726439Y713105D01*
X1726450Y713040D01*
X1726452Y712974D01*
X1726470Y712931D01*
X1726478Y712884D01*
X1726512Y712827D01*
X1726537Y712767D01*
X1726568Y712732D01*
X1726593Y712691D01*
X1726644Y712650D01*
X1726688Y712601D01*
X1726730Y712579D01*
X1726767Y712550D01*
X1726829Y712529D01*
X1726888Y712498D01*
X1726942Y712490D01*
X1726979Y712478D01*
X1727019Y712479D01*
X1727073Y712471D01*
X1729613Y712471D01*
X1729678Y712482D01*
G37*
G36*
X1127698Y712482D02*
X1127698Y712482D01*
X1127764Y712484D01*
X1127807Y712502D01*
X1127854Y712510D01*
X1127911Y712544D01*
X1127971Y712569D01*
X1128006Y712600D01*
X1128047Y712625D01*
X1128089Y712676D01*
X1128137Y712720D01*
X1128159Y712762D01*
X1128188Y712799D01*
X1128209Y712861D01*
X1128240Y712920D01*
X1128248Y712974D01*
X1128260Y713011D01*
X1128259Y713051D01*
X1128267Y713105D01*
X1128267Y716915D01*
X1128256Y716980D01*
X1128254Y717046D01*
X1128236Y717089D01*
X1128228Y717136D01*
X1128194Y717193D01*
X1128169Y717253D01*
X1128138Y717288D01*
X1128113Y717329D01*
X1128062Y717371D01*
X1128018Y717419D01*
X1127976Y717441D01*
X1127939Y717470D01*
X1127877Y717491D01*
X1127818Y717522D01*
X1127764Y717530D01*
X1127727Y717542D01*
X1127687Y717541D01*
X1127633Y717549D01*
X1125093Y717549D01*
X1125028Y717538D01*
X1124962Y717536D01*
X1124919Y717518D01*
X1124872Y717510D01*
X1124815Y717476D01*
X1124755Y717451D01*
X1124720Y717420D01*
X1124679Y717395D01*
X1124638Y717344D01*
X1124589Y717300D01*
X1124567Y717258D01*
X1124538Y717221D01*
X1124517Y717159D01*
X1124486Y717100D01*
X1124478Y717046D01*
X1124466Y717009D01*
X1124466Y717005D01*
X1124466Y717004D01*
X1124467Y716969D01*
X1124459Y716915D01*
X1124459Y713105D01*
X1124470Y713040D01*
X1124472Y712974D01*
X1124490Y712931D01*
X1124498Y712884D01*
X1124532Y712827D01*
X1124557Y712767D01*
X1124588Y712732D01*
X1124613Y712691D01*
X1124664Y712650D01*
X1124708Y712601D01*
X1124750Y712579D01*
X1124787Y712550D01*
X1124849Y712529D01*
X1124908Y712498D01*
X1124962Y712490D01*
X1124999Y712478D01*
X1125039Y712479D01*
X1125093Y712471D01*
X1127633Y712471D01*
X1127698Y712482D01*
G37*
G36*
X525718Y712482D02*
X525718Y712482D01*
X525784Y712484D01*
X525827Y712502D01*
X525874Y712510D01*
X525931Y712544D01*
X525991Y712569D01*
X526026Y712600D01*
X526067Y712625D01*
X526109Y712676D01*
X526157Y712720D01*
X526179Y712762D01*
X526208Y712799D01*
X526229Y712861D01*
X526260Y712920D01*
X526268Y712974D01*
X526280Y713011D01*
X526279Y713051D01*
X526287Y713105D01*
X526287Y716915D01*
X526276Y716980D01*
X526274Y717046D01*
X526256Y717089D01*
X526248Y717136D01*
X526214Y717193D01*
X526189Y717253D01*
X526158Y717288D01*
X526133Y717329D01*
X526082Y717371D01*
X526038Y717419D01*
X525996Y717441D01*
X525959Y717470D01*
X525897Y717491D01*
X525838Y717522D01*
X525784Y717530D01*
X525747Y717542D01*
X525707Y717541D01*
X525653Y717549D01*
X523113Y717549D01*
X523048Y717538D01*
X522982Y717536D01*
X522939Y717518D01*
X522892Y717510D01*
X522835Y717476D01*
X522775Y717451D01*
X522740Y717420D01*
X522699Y717395D01*
X522658Y717344D01*
X522609Y717300D01*
X522587Y717258D01*
X522558Y717221D01*
X522537Y717159D01*
X522506Y717100D01*
X522498Y717046D01*
X522486Y717009D01*
X522486Y717005D01*
X522486Y717004D01*
X522487Y716969D01*
X522479Y716915D01*
X522479Y713105D01*
X522490Y713040D01*
X522492Y712974D01*
X522510Y712931D01*
X522518Y712884D01*
X522552Y712827D01*
X522577Y712767D01*
X522608Y712732D01*
X522633Y712691D01*
X522684Y712650D01*
X522728Y712601D01*
X522770Y712579D01*
X522807Y712550D01*
X522869Y712529D01*
X522928Y712498D01*
X522982Y712490D01*
X523019Y712478D01*
X523059Y712479D01*
X523113Y712471D01*
X525653Y712471D01*
X525718Y712482D01*
G37*
G36*
X961455Y699782D02*
X961455Y699782D01*
X961521Y699784D01*
X961564Y699802D01*
X961611Y699810D01*
X961668Y699844D01*
X961728Y699869D01*
X961763Y699900D01*
X961804Y699925D01*
X961846Y699976D01*
X961894Y700020D01*
X961916Y700062D01*
X961945Y700099D01*
X961966Y700161D01*
X961997Y700220D01*
X962005Y700274D01*
X962017Y700311D01*
X962016Y700351D01*
X962024Y700405D01*
X962024Y704215D01*
X962013Y704280D01*
X962011Y704346D01*
X961993Y704389D01*
X961985Y704436D01*
X961951Y704493D01*
X961926Y704553D01*
X961895Y704588D01*
X961870Y704629D01*
X961819Y704671D01*
X961775Y704719D01*
X961733Y704741D01*
X961696Y704770D01*
X961634Y704791D01*
X961575Y704822D01*
X961521Y704830D01*
X961484Y704842D01*
X961444Y704841D01*
X961390Y704849D01*
X958850Y704849D01*
X958785Y704838D01*
X958719Y704836D01*
X958676Y704818D01*
X958629Y704810D01*
X958572Y704776D01*
X958512Y704751D01*
X958477Y704720D01*
X958436Y704695D01*
X958395Y704644D01*
X958346Y704600D01*
X958324Y704558D01*
X958295Y704521D01*
X958274Y704459D01*
X958243Y704400D01*
X958235Y704346D01*
X958223Y704309D01*
X958223Y704305D01*
X958223Y704304D01*
X958224Y704269D01*
X958216Y704215D01*
X958216Y700405D01*
X958227Y700340D01*
X958229Y700274D01*
X958247Y700231D01*
X958255Y700184D01*
X958289Y700127D01*
X958314Y700067D01*
X958345Y700032D01*
X958370Y699991D01*
X958421Y699950D01*
X958465Y699901D01*
X958507Y699879D01*
X958544Y699850D01*
X958606Y699829D01*
X958665Y699798D01*
X958719Y699790D01*
X958756Y699778D01*
X958796Y699779D01*
X958850Y699771D01*
X961390Y699771D01*
X961455Y699782D01*
G37*
G36*
X1563435Y699782D02*
X1563435Y699782D01*
X1563501Y699784D01*
X1563544Y699802D01*
X1563591Y699810D01*
X1563648Y699844D01*
X1563708Y699869D01*
X1563743Y699900D01*
X1563784Y699925D01*
X1563826Y699976D01*
X1563874Y700020D01*
X1563896Y700062D01*
X1563925Y700099D01*
X1563946Y700161D01*
X1563977Y700220D01*
X1563985Y700274D01*
X1563997Y700311D01*
X1563996Y700351D01*
X1564004Y700405D01*
X1564004Y704215D01*
X1563993Y704280D01*
X1563991Y704346D01*
X1563973Y704389D01*
X1563965Y704436D01*
X1563931Y704493D01*
X1563906Y704553D01*
X1563875Y704588D01*
X1563850Y704629D01*
X1563799Y704671D01*
X1563755Y704719D01*
X1563713Y704741D01*
X1563676Y704770D01*
X1563614Y704791D01*
X1563555Y704822D01*
X1563501Y704830D01*
X1563464Y704842D01*
X1563424Y704841D01*
X1563370Y704849D01*
X1560830Y704849D01*
X1560765Y704838D01*
X1560699Y704836D01*
X1560656Y704818D01*
X1560609Y704810D01*
X1560552Y704776D01*
X1560492Y704751D01*
X1560457Y704720D01*
X1560416Y704695D01*
X1560375Y704644D01*
X1560326Y704600D01*
X1560304Y704558D01*
X1560275Y704521D01*
X1560254Y704459D01*
X1560223Y704400D01*
X1560215Y704346D01*
X1560203Y704309D01*
X1560203Y704305D01*
X1560203Y704304D01*
X1560204Y704269D01*
X1560196Y704215D01*
X1560196Y700405D01*
X1560207Y700340D01*
X1560209Y700274D01*
X1560227Y700231D01*
X1560235Y700184D01*
X1560269Y700127D01*
X1560294Y700067D01*
X1560325Y700032D01*
X1560350Y699991D01*
X1560401Y699950D01*
X1560445Y699901D01*
X1560487Y699879D01*
X1560524Y699850D01*
X1560586Y699829D01*
X1560645Y699798D01*
X1560699Y699790D01*
X1560736Y699778D01*
X1560776Y699779D01*
X1560830Y699771D01*
X1563370Y699771D01*
X1563435Y699782D01*
G37*
G36*
X359475Y699782D02*
X359475Y699782D01*
X359541Y699784D01*
X359584Y699802D01*
X359631Y699810D01*
X359688Y699844D01*
X359748Y699869D01*
X359783Y699900D01*
X359824Y699925D01*
X359866Y699976D01*
X359914Y700020D01*
X359936Y700062D01*
X359965Y700099D01*
X359986Y700161D01*
X360017Y700220D01*
X360025Y700274D01*
X360037Y700311D01*
X360036Y700351D01*
X360044Y700405D01*
X360044Y704215D01*
X360033Y704280D01*
X360031Y704346D01*
X360013Y704389D01*
X360005Y704436D01*
X359971Y704493D01*
X359946Y704553D01*
X359915Y704588D01*
X359890Y704629D01*
X359839Y704671D01*
X359795Y704719D01*
X359753Y704741D01*
X359716Y704770D01*
X359654Y704791D01*
X359595Y704822D01*
X359541Y704830D01*
X359504Y704842D01*
X359464Y704841D01*
X359410Y704849D01*
X356870Y704849D01*
X356805Y704838D01*
X356739Y704836D01*
X356696Y704818D01*
X356649Y704810D01*
X356592Y704776D01*
X356532Y704751D01*
X356497Y704720D01*
X356456Y704695D01*
X356415Y704644D01*
X356366Y704600D01*
X356344Y704558D01*
X356315Y704521D01*
X356294Y704459D01*
X356263Y704400D01*
X356255Y704346D01*
X356243Y704309D01*
X356243Y704305D01*
X356243Y704304D01*
X356244Y704269D01*
X356236Y704215D01*
X356236Y700405D01*
X356247Y700340D01*
X356249Y700274D01*
X356267Y700231D01*
X356275Y700184D01*
X356309Y700127D01*
X356334Y700067D01*
X356365Y700032D01*
X356390Y699991D01*
X356441Y699950D01*
X356485Y699901D01*
X356527Y699879D01*
X356564Y699850D01*
X356626Y699829D01*
X356685Y699798D01*
X356739Y699790D01*
X356776Y699778D01*
X356816Y699779D01*
X356870Y699771D01*
X359410Y699771D01*
X359475Y699782D01*
G37*
G36*
X445835Y661047D02*
X445835Y661047D01*
X445901Y661049D01*
X445944Y661067D01*
X445991Y661075D01*
X446048Y661109D01*
X446108Y661134D01*
X446143Y661165D01*
X446184Y661190D01*
X446226Y661241D01*
X446274Y661285D01*
X446296Y661327D01*
X446325Y661364D01*
X446346Y661426D01*
X446377Y661485D01*
X446385Y661539D01*
X446397Y661576D01*
X446396Y661616D01*
X446404Y661670D01*
X446404Y665480D01*
X446393Y665545D01*
X446391Y665611D01*
X446373Y665654D01*
X446365Y665701D01*
X446331Y665758D01*
X446306Y665818D01*
X446275Y665853D01*
X446250Y665894D01*
X446199Y665936D01*
X446155Y665984D01*
X446113Y666006D01*
X446076Y666035D01*
X446014Y666056D01*
X445955Y666087D01*
X445901Y666095D01*
X445864Y666107D01*
X445824Y666106D01*
X445770Y666114D01*
X443230Y666114D01*
X443165Y666103D01*
X443099Y666101D01*
X443056Y666083D01*
X443009Y666075D01*
X442952Y666041D01*
X442892Y666016D01*
X442857Y665985D01*
X442816Y665960D01*
X442775Y665909D01*
X442726Y665865D01*
X442704Y665823D01*
X442675Y665786D01*
X442654Y665724D01*
X442623Y665665D01*
X442615Y665611D01*
X442603Y665574D01*
X442603Y665570D01*
X442603Y665569D01*
X442604Y665534D01*
X442596Y665480D01*
X442596Y661670D01*
X442607Y661605D01*
X442609Y661539D01*
X442627Y661496D01*
X442635Y661449D01*
X442669Y661392D01*
X442694Y661332D01*
X442725Y661297D01*
X442750Y661256D01*
X442801Y661215D01*
X442845Y661166D01*
X442887Y661144D01*
X442924Y661115D01*
X442986Y661094D01*
X443045Y661063D01*
X443099Y661055D01*
X443136Y661043D01*
X443176Y661044D01*
X443230Y661036D01*
X445770Y661036D01*
X445835Y661047D01*
G37*
G36*
X1073215Y661047D02*
X1073215Y661047D01*
X1073281Y661049D01*
X1073324Y661067D01*
X1073371Y661075D01*
X1073428Y661109D01*
X1073488Y661134D01*
X1073523Y661165D01*
X1073564Y661190D01*
X1073606Y661241D01*
X1073654Y661285D01*
X1073676Y661327D01*
X1073705Y661364D01*
X1073726Y661426D01*
X1073757Y661485D01*
X1073765Y661539D01*
X1073777Y661576D01*
X1073776Y661616D01*
X1073784Y661670D01*
X1073784Y665480D01*
X1073773Y665545D01*
X1073771Y665611D01*
X1073753Y665654D01*
X1073745Y665701D01*
X1073711Y665758D01*
X1073686Y665818D01*
X1073655Y665853D01*
X1073630Y665894D01*
X1073579Y665936D01*
X1073535Y665984D01*
X1073493Y666006D01*
X1073456Y666035D01*
X1073394Y666056D01*
X1073335Y666087D01*
X1073281Y666095D01*
X1073244Y666107D01*
X1073204Y666106D01*
X1073150Y666114D01*
X1070610Y666114D01*
X1070545Y666103D01*
X1070479Y666101D01*
X1070436Y666083D01*
X1070389Y666075D01*
X1070332Y666041D01*
X1070272Y666016D01*
X1070237Y665985D01*
X1070196Y665960D01*
X1070155Y665909D01*
X1070106Y665865D01*
X1070084Y665823D01*
X1070055Y665786D01*
X1070034Y665724D01*
X1070003Y665665D01*
X1069995Y665611D01*
X1069983Y665574D01*
X1069983Y665570D01*
X1069983Y665569D01*
X1069984Y665534D01*
X1069976Y665480D01*
X1069976Y661670D01*
X1069987Y661605D01*
X1069989Y661539D01*
X1070007Y661496D01*
X1070015Y661449D01*
X1070049Y661392D01*
X1070074Y661332D01*
X1070105Y661297D01*
X1070130Y661256D01*
X1070181Y661215D01*
X1070225Y661166D01*
X1070267Y661144D01*
X1070304Y661115D01*
X1070366Y661094D01*
X1070425Y661063D01*
X1070479Y661055D01*
X1070516Y661043D01*
X1070556Y661044D01*
X1070610Y661036D01*
X1073150Y661036D01*
X1073215Y661047D01*
G37*
G36*
X1047815Y661047D02*
X1047815Y661047D01*
X1047881Y661049D01*
X1047924Y661067D01*
X1047971Y661075D01*
X1048028Y661109D01*
X1048088Y661134D01*
X1048123Y661165D01*
X1048164Y661190D01*
X1048206Y661241D01*
X1048254Y661285D01*
X1048276Y661327D01*
X1048305Y661364D01*
X1048326Y661426D01*
X1048357Y661485D01*
X1048365Y661539D01*
X1048377Y661576D01*
X1048376Y661616D01*
X1048384Y661670D01*
X1048384Y665480D01*
X1048373Y665545D01*
X1048371Y665611D01*
X1048353Y665654D01*
X1048345Y665701D01*
X1048311Y665758D01*
X1048286Y665818D01*
X1048255Y665853D01*
X1048230Y665894D01*
X1048179Y665936D01*
X1048135Y665984D01*
X1048093Y666006D01*
X1048056Y666035D01*
X1047994Y666056D01*
X1047935Y666087D01*
X1047881Y666095D01*
X1047844Y666107D01*
X1047804Y666106D01*
X1047750Y666114D01*
X1045210Y666114D01*
X1045145Y666103D01*
X1045079Y666101D01*
X1045036Y666083D01*
X1044989Y666075D01*
X1044932Y666041D01*
X1044872Y666016D01*
X1044837Y665985D01*
X1044796Y665960D01*
X1044755Y665909D01*
X1044706Y665865D01*
X1044684Y665823D01*
X1044655Y665786D01*
X1044634Y665724D01*
X1044603Y665665D01*
X1044595Y665611D01*
X1044583Y665574D01*
X1044583Y665570D01*
X1044583Y665569D01*
X1044584Y665534D01*
X1044576Y665480D01*
X1044576Y661670D01*
X1044587Y661605D01*
X1044589Y661539D01*
X1044607Y661496D01*
X1044615Y661449D01*
X1044649Y661392D01*
X1044674Y661332D01*
X1044705Y661297D01*
X1044730Y661256D01*
X1044781Y661215D01*
X1044825Y661166D01*
X1044867Y661144D01*
X1044904Y661115D01*
X1044966Y661094D01*
X1045025Y661063D01*
X1045079Y661055D01*
X1045116Y661043D01*
X1045156Y661044D01*
X1045210Y661036D01*
X1047750Y661036D01*
X1047815Y661047D01*
G37*
G36*
X1649795Y661047D02*
X1649795Y661047D01*
X1649861Y661049D01*
X1649904Y661067D01*
X1649951Y661075D01*
X1650008Y661109D01*
X1650068Y661134D01*
X1650103Y661165D01*
X1650144Y661190D01*
X1650186Y661241D01*
X1650234Y661285D01*
X1650256Y661327D01*
X1650285Y661364D01*
X1650306Y661426D01*
X1650337Y661485D01*
X1650345Y661539D01*
X1650357Y661576D01*
X1650356Y661616D01*
X1650364Y661670D01*
X1650364Y665480D01*
X1650353Y665545D01*
X1650351Y665611D01*
X1650333Y665654D01*
X1650325Y665701D01*
X1650291Y665758D01*
X1650266Y665818D01*
X1650235Y665853D01*
X1650210Y665894D01*
X1650159Y665936D01*
X1650115Y665984D01*
X1650073Y666006D01*
X1650036Y666035D01*
X1649974Y666056D01*
X1649915Y666087D01*
X1649861Y666095D01*
X1649824Y666107D01*
X1649784Y666106D01*
X1649730Y666114D01*
X1647190Y666114D01*
X1647125Y666103D01*
X1647059Y666101D01*
X1647016Y666083D01*
X1646969Y666075D01*
X1646912Y666041D01*
X1646852Y666016D01*
X1646817Y665985D01*
X1646776Y665960D01*
X1646735Y665909D01*
X1646686Y665865D01*
X1646664Y665823D01*
X1646635Y665786D01*
X1646614Y665724D01*
X1646583Y665665D01*
X1646575Y665611D01*
X1646563Y665574D01*
X1646563Y665570D01*
X1646563Y665569D01*
X1646564Y665534D01*
X1646556Y665480D01*
X1646556Y661670D01*
X1646567Y661605D01*
X1646569Y661539D01*
X1646587Y661496D01*
X1646595Y661449D01*
X1646629Y661392D01*
X1646654Y661332D01*
X1646685Y661297D01*
X1646710Y661256D01*
X1646761Y661215D01*
X1646805Y661166D01*
X1646847Y661144D01*
X1646884Y661115D01*
X1646946Y661094D01*
X1647005Y661063D01*
X1647059Y661055D01*
X1647096Y661043D01*
X1647136Y661044D01*
X1647190Y661036D01*
X1649730Y661036D01*
X1649795Y661047D01*
G37*
G36*
X1675195Y661047D02*
X1675195Y661047D01*
X1675261Y661049D01*
X1675304Y661067D01*
X1675351Y661075D01*
X1675408Y661109D01*
X1675468Y661134D01*
X1675503Y661165D01*
X1675544Y661190D01*
X1675586Y661241D01*
X1675634Y661285D01*
X1675656Y661327D01*
X1675685Y661364D01*
X1675706Y661426D01*
X1675737Y661485D01*
X1675745Y661539D01*
X1675757Y661576D01*
X1675756Y661616D01*
X1675764Y661670D01*
X1675764Y665480D01*
X1675753Y665545D01*
X1675751Y665611D01*
X1675733Y665654D01*
X1675725Y665701D01*
X1675691Y665758D01*
X1675666Y665818D01*
X1675635Y665853D01*
X1675610Y665894D01*
X1675559Y665936D01*
X1675515Y665984D01*
X1675473Y666006D01*
X1675436Y666035D01*
X1675374Y666056D01*
X1675315Y666087D01*
X1675261Y666095D01*
X1675224Y666107D01*
X1675184Y666106D01*
X1675130Y666114D01*
X1672590Y666114D01*
X1672525Y666103D01*
X1672459Y666101D01*
X1672416Y666083D01*
X1672369Y666075D01*
X1672312Y666041D01*
X1672252Y666016D01*
X1672217Y665985D01*
X1672176Y665960D01*
X1672135Y665909D01*
X1672086Y665865D01*
X1672064Y665823D01*
X1672035Y665786D01*
X1672014Y665724D01*
X1671983Y665665D01*
X1671975Y665611D01*
X1671963Y665574D01*
X1671963Y665570D01*
X1671963Y665569D01*
X1671964Y665534D01*
X1671956Y665480D01*
X1671956Y661670D01*
X1671967Y661605D01*
X1671969Y661539D01*
X1671987Y661496D01*
X1671995Y661449D01*
X1672029Y661392D01*
X1672054Y661332D01*
X1672085Y661297D01*
X1672110Y661256D01*
X1672161Y661215D01*
X1672205Y661166D01*
X1672247Y661144D01*
X1672284Y661115D01*
X1672346Y661094D01*
X1672405Y661063D01*
X1672459Y661055D01*
X1672496Y661043D01*
X1672536Y661044D01*
X1672590Y661036D01*
X1675130Y661036D01*
X1675195Y661047D01*
G37*
G36*
X471235Y661047D02*
X471235Y661047D01*
X471301Y661049D01*
X471344Y661067D01*
X471391Y661075D01*
X471448Y661109D01*
X471508Y661134D01*
X471543Y661165D01*
X471584Y661190D01*
X471626Y661241D01*
X471674Y661285D01*
X471696Y661327D01*
X471725Y661364D01*
X471746Y661426D01*
X471777Y661485D01*
X471785Y661539D01*
X471797Y661576D01*
X471796Y661616D01*
X471804Y661670D01*
X471804Y665480D01*
X471793Y665545D01*
X471791Y665611D01*
X471773Y665654D01*
X471765Y665701D01*
X471731Y665758D01*
X471706Y665818D01*
X471675Y665853D01*
X471650Y665894D01*
X471599Y665936D01*
X471555Y665984D01*
X471513Y666006D01*
X471476Y666035D01*
X471414Y666056D01*
X471355Y666087D01*
X471301Y666095D01*
X471264Y666107D01*
X471224Y666106D01*
X471170Y666114D01*
X468630Y666114D01*
X468565Y666103D01*
X468499Y666101D01*
X468456Y666083D01*
X468409Y666075D01*
X468352Y666041D01*
X468292Y666016D01*
X468257Y665985D01*
X468216Y665960D01*
X468175Y665909D01*
X468126Y665865D01*
X468104Y665823D01*
X468075Y665786D01*
X468054Y665724D01*
X468023Y665665D01*
X468015Y665611D01*
X468003Y665574D01*
X468003Y665570D01*
X468003Y665569D01*
X468004Y665534D01*
X467996Y665480D01*
X467996Y661670D01*
X468007Y661605D01*
X468009Y661539D01*
X468027Y661496D01*
X468035Y661449D01*
X468069Y661392D01*
X468094Y661332D01*
X468125Y661297D01*
X468150Y661256D01*
X468201Y661215D01*
X468245Y661166D01*
X468287Y661144D01*
X468324Y661115D01*
X468386Y661094D01*
X468445Y661063D01*
X468499Y661055D01*
X468536Y661043D01*
X468576Y661044D01*
X468630Y661036D01*
X471170Y661036D01*
X471235Y661047D01*
G37*
G36*
X1675195Y622947D02*
X1675195Y622947D01*
X1675261Y622949D01*
X1675304Y622967D01*
X1675351Y622975D01*
X1675408Y623009D01*
X1675468Y623034D01*
X1675503Y623065D01*
X1675544Y623090D01*
X1675586Y623141D01*
X1675634Y623185D01*
X1675656Y623227D01*
X1675685Y623264D01*
X1675706Y623326D01*
X1675737Y623385D01*
X1675745Y623439D01*
X1675757Y623476D01*
X1675756Y623516D01*
X1675764Y623570D01*
X1675764Y627380D01*
X1675753Y627445D01*
X1675751Y627511D01*
X1675733Y627554D01*
X1675725Y627601D01*
X1675691Y627658D01*
X1675666Y627718D01*
X1675635Y627753D01*
X1675610Y627794D01*
X1675559Y627836D01*
X1675515Y627884D01*
X1675473Y627906D01*
X1675436Y627935D01*
X1675374Y627956D01*
X1675315Y627987D01*
X1675261Y627995D01*
X1675224Y628007D01*
X1675184Y628006D01*
X1675130Y628014D01*
X1672590Y628014D01*
X1672525Y628003D01*
X1672459Y628001D01*
X1672416Y627983D01*
X1672369Y627975D01*
X1672312Y627941D01*
X1672252Y627916D01*
X1672217Y627885D01*
X1672176Y627860D01*
X1672135Y627809D01*
X1672086Y627765D01*
X1672064Y627723D01*
X1672035Y627686D01*
X1672014Y627624D01*
X1671983Y627565D01*
X1671975Y627511D01*
X1671963Y627474D01*
X1671963Y627470D01*
X1671963Y627469D01*
X1671964Y627434D01*
X1671956Y627380D01*
X1671956Y623570D01*
X1671967Y623505D01*
X1671969Y623439D01*
X1671987Y623396D01*
X1671995Y623349D01*
X1672029Y623292D01*
X1672054Y623232D01*
X1672085Y623197D01*
X1672110Y623156D01*
X1672161Y623115D01*
X1672205Y623066D01*
X1672247Y623044D01*
X1672284Y623015D01*
X1672346Y622994D01*
X1672405Y622963D01*
X1672459Y622955D01*
X1672496Y622943D01*
X1672536Y622944D01*
X1672590Y622936D01*
X1675130Y622936D01*
X1675195Y622947D01*
G37*
G36*
X1649795Y622947D02*
X1649795Y622947D01*
X1649861Y622949D01*
X1649904Y622967D01*
X1649951Y622975D01*
X1650008Y623009D01*
X1650068Y623034D01*
X1650103Y623065D01*
X1650144Y623090D01*
X1650186Y623141D01*
X1650234Y623185D01*
X1650256Y623227D01*
X1650285Y623264D01*
X1650306Y623326D01*
X1650337Y623385D01*
X1650345Y623439D01*
X1650357Y623476D01*
X1650356Y623516D01*
X1650364Y623570D01*
X1650364Y627380D01*
X1650353Y627445D01*
X1650351Y627511D01*
X1650333Y627554D01*
X1650325Y627601D01*
X1650291Y627658D01*
X1650266Y627718D01*
X1650235Y627753D01*
X1650210Y627794D01*
X1650159Y627836D01*
X1650115Y627884D01*
X1650073Y627906D01*
X1650036Y627935D01*
X1649974Y627956D01*
X1649915Y627987D01*
X1649861Y627995D01*
X1649824Y628007D01*
X1649784Y628006D01*
X1649730Y628014D01*
X1647190Y628014D01*
X1647125Y628003D01*
X1647059Y628001D01*
X1647016Y627983D01*
X1646969Y627975D01*
X1646912Y627941D01*
X1646852Y627916D01*
X1646817Y627885D01*
X1646776Y627860D01*
X1646735Y627809D01*
X1646686Y627765D01*
X1646664Y627723D01*
X1646635Y627686D01*
X1646614Y627624D01*
X1646583Y627565D01*
X1646575Y627511D01*
X1646563Y627474D01*
X1646563Y627470D01*
X1646563Y627469D01*
X1646564Y627434D01*
X1646556Y627380D01*
X1646556Y623570D01*
X1646567Y623505D01*
X1646569Y623439D01*
X1646587Y623396D01*
X1646595Y623349D01*
X1646629Y623292D01*
X1646654Y623232D01*
X1646685Y623197D01*
X1646710Y623156D01*
X1646761Y623115D01*
X1646805Y623066D01*
X1646847Y623044D01*
X1646884Y623015D01*
X1646946Y622994D01*
X1647005Y622963D01*
X1647059Y622955D01*
X1647096Y622943D01*
X1647136Y622944D01*
X1647190Y622936D01*
X1649730Y622936D01*
X1649795Y622947D01*
G37*
G36*
X445835Y622947D02*
X445835Y622947D01*
X445901Y622949D01*
X445944Y622967D01*
X445991Y622975D01*
X446048Y623009D01*
X446108Y623034D01*
X446143Y623065D01*
X446184Y623090D01*
X446226Y623141D01*
X446274Y623185D01*
X446296Y623227D01*
X446325Y623264D01*
X446346Y623326D01*
X446377Y623385D01*
X446385Y623439D01*
X446397Y623476D01*
X446396Y623516D01*
X446404Y623570D01*
X446404Y627380D01*
X446393Y627445D01*
X446391Y627511D01*
X446373Y627554D01*
X446365Y627601D01*
X446331Y627658D01*
X446306Y627718D01*
X446275Y627753D01*
X446250Y627794D01*
X446199Y627836D01*
X446155Y627884D01*
X446113Y627906D01*
X446076Y627935D01*
X446014Y627956D01*
X445955Y627987D01*
X445901Y627995D01*
X445864Y628007D01*
X445824Y628006D01*
X445770Y628014D01*
X443230Y628014D01*
X443165Y628003D01*
X443099Y628001D01*
X443056Y627983D01*
X443009Y627975D01*
X442952Y627941D01*
X442892Y627916D01*
X442857Y627885D01*
X442816Y627860D01*
X442775Y627809D01*
X442726Y627765D01*
X442704Y627723D01*
X442675Y627686D01*
X442654Y627624D01*
X442623Y627565D01*
X442615Y627511D01*
X442603Y627474D01*
X442603Y627470D01*
X442603Y627469D01*
X442604Y627434D01*
X442596Y627380D01*
X442596Y623570D01*
X442607Y623505D01*
X442609Y623439D01*
X442627Y623396D01*
X442635Y623349D01*
X442669Y623292D01*
X442694Y623232D01*
X442725Y623197D01*
X442750Y623156D01*
X442801Y623115D01*
X442845Y623066D01*
X442887Y623044D01*
X442924Y623015D01*
X442986Y622994D01*
X443045Y622963D01*
X443099Y622955D01*
X443136Y622943D01*
X443176Y622944D01*
X443230Y622936D01*
X445770Y622936D01*
X445835Y622947D01*
G37*
G36*
X1073215Y622947D02*
X1073215Y622947D01*
X1073281Y622949D01*
X1073324Y622967D01*
X1073371Y622975D01*
X1073428Y623009D01*
X1073488Y623034D01*
X1073523Y623065D01*
X1073564Y623090D01*
X1073606Y623141D01*
X1073654Y623185D01*
X1073676Y623227D01*
X1073705Y623264D01*
X1073726Y623326D01*
X1073757Y623385D01*
X1073765Y623439D01*
X1073777Y623476D01*
X1073776Y623516D01*
X1073784Y623570D01*
X1073784Y627380D01*
X1073773Y627445D01*
X1073771Y627511D01*
X1073753Y627554D01*
X1073745Y627601D01*
X1073711Y627658D01*
X1073686Y627718D01*
X1073655Y627753D01*
X1073630Y627794D01*
X1073579Y627836D01*
X1073535Y627884D01*
X1073493Y627906D01*
X1073456Y627935D01*
X1073394Y627956D01*
X1073335Y627987D01*
X1073281Y627995D01*
X1073244Y628007D01*
X1073204Y628006D01*
X1073150Y628014D01*
X1070610Y628014D01*
X1070545Y628003D01*
X1070479Y628001D01*
X1070436Y627983D01*
X1070389Y627975D01*
X1070332Y627941D01*
X1070272Y627916D01*
X1070237Y627885D01*
X1070196Y627860D01*
X1070155Y627809D01*
X1070106Y627765D01*
X1070084Y627723D01*
X1070055Y627686D01*
X1070034Y627624D01*
X1070003Y627565D01*
X1069995Y627511D01*
X1069983Y627474D01*
X1069983Y627470D01*
X1069983Y627469D01*
X1069984Y627434D01*
X1069976Y627380D01*
X1069976Y623570D01*
X1069987Y623505D01*
X1069989Y623439D01*
X1070007Y623396D01*
X1070015Y623349D01*
X1070049Y623292D01*
X1070074Y623232D01*
X1070105Y623197D01*
X1070130Y623156D01*
X1070181Y623115D01*
X1070225Y623066D01*
X1070267Y623044D01*
X1070304Y623015D01*
X1070366Y622994D01*
X1070425Y622963D01*
X1070479Y622955D01*
X1070516Y622943D01*
X1070556Y622944D01*
X1070610Y622936D01*
X1073150Y622936D01*
X1073215Y622947D01*
G37*
G36*
X471235Y622947D02*
X471235Y622947D01*
X471301Y622949D01*
X471344Y622967D01*
X471391Y622975D01*
X471448Y623009D01*
X471508Y623034D01*
X471543Y623065D01*
X471584Y623090D01*
X471626Y623141D01*
X471674Y623185D01*
X471696Y623227D01*
X471725Y623264D01*
X471746Y623326D01*
X471777Y623385D01*
X471785Y623439D01*
X471797Y623476D01*
X471796Y623516D01*
X471804Y623570D01*
X471804Y627380D01*
X471793Y627445D01*
X471791Y627511D01*
X471773Y627554D01*
X471765Y627601D01*
X471731Y627658D01*
X471706Y627718D01*
X471675Y627753D01*
X471650Y627794D01*
X471599Y627836D01*
X471555Y627884D01*
X471513Y627906D01*
X471476Y627935D01*
X471414Y627956D01*
X471355Y627987D01*
X471301Y627995D01*
X471264Y628007D01*
X471224Y628006D01*
X471170Y628014D01*
X468630Y628014D01*
X468565Y628003D01*
X468499Y628001D01*
X468456Y627983D01*
X468409Y627975D01*
X468352Y627941D01*
X468292Y627916D01*
X468257Y627885D01*
X468216Y627860D01*
X468175Y627809D01*
X468126Y627765D01*
X468104Y627723D01*
X468075Y627686D01*
X468054Y627624D01*
X468023Y627565D01*
X468015Y627511D01*
X468003Y627474D01*
X468003Y627470D01*
X468003Y627469D01*
X468004Y627434D01*
X467996Y627380D01*
X467996Y623570D01*
X468007Y623505D01*
X468009Y623439D01*
X468027Y623396D01*
X468035Y623349D01*
X468069Y623292D01*
X468094Y623232D01*
X468125Y623197D01*
X468150Y623156D01*
X468201Y623115D01*
X468245Y623066D01*
X468287Y623044D01*
X468324Y623015D01*
X468386Y622994D01*
X468445Y622963D01*
X468499Y622955D01*
X468536Y622943D01*
X468576Y622944D01*
X468630Y622936D01*
X471170Y622936D01*
X471235Y622947D01*
G37*
G36*
X1047815Y622947D02*
X1047815Y622947D01*
X1047881Y622949D01*
X1047924Y622967D01*
X1047971Y622975D01*
X1048028Y623009D01*
X1048088Y623034D01*
X1048123Y623065D01*
X1048164Y623090D01*
X1048206Y623141D01*
X1048254Y623185D01*
X1048276Y623227D01*
X1048305Y623264D01*
X1048326Y623326D01*
X1048357Y623385D01*
X1048365Y623439D01*
X1048377Y623476D01*
X1048376Y623516D01*
X1048384Y623570D01*
X1048384Y627380D01*
X1048373Y627445D01*
X1048371Y627511D01*
X1048353Y627554D01*
X1048345Y627601D01*
X1048311Y627658D01*
X1048286Y627718D01*
X1048255Y627753D01*
X1048230Y627794D01*
X1048179Y627836D01*
X1048135Y627884D01*
X1048093Y627906D01*
X1048056Y627935D01*
X1047994Y627956D01*
X1047935Y627987D01*
X1047881Y627995D01*
X1047844Y628007D01*
X1047804Y628006D01*
X1047750Y628014D01*
X1045210Y628014D01*
X1045145Y628003D01*
X1045079Y628001D01*
X1045036Y627983D01*
X1044989Y627975D01*
X1044932Y627941D01*
X1044872Y627916D01*
X1044837Y627885D01*
X1044796Y627860D01*
X1044755Y627809D01*
X1044706Y627765D01*
X1044684Y627723D01*
X1044655Y627686D01*
X1044634Y627624D01*
X1044603Y627565D01*
X1044595Y627511D01*
X1044583Y627474D01*
X1044583Y627470D01*
X1044583Y627469D01*
X1044584Y627434D01*
X1044576Y627380D01*
X1044576Y623570D01*
X1044587Y623505D01*
X1044589Y623439D01*
X1044607Y623396D01*
X1044615Y623349D01*
X1044649Y623292D01*
X1044674Y623232D01*
X1044705Y623197D01*
X1044730Y623156D01*
X1044781Y623115D01*
X1044825Y623066D01*
X1044867Y623044D01*
X1044904Y623015D01*
X1044966Y622994D01*
X1045025Y622963D01*
X1045079Y622955D01*
X1045116Y622943D01*
X1045156Y622944D01*
X1045210Y622936D01*
X1047750Y622936D01*
X1047815Y622947D01*
G37*
G36*
X1395160Y424827D02*
X1395160Y424827D01*
X1395226Y424829D01*
X1395269Y424847D01*
X1395316Y424855D01*
X1395373Y424889D01*
X1395433Y424914D01*
X1395468Y424945D01*
X1395509Y424970D01*
X1395551Y425021D01*
X1395599Y425065D01*
X1395621Y425107D01*
X1395650Y425144D01*
X1395671Y425206D01*
X1395702Y425265D01*
X1395710Y425319D01*
X1395722Y425356D01*
X1395721Y425396D01*
X1395729Y425450D01*
X1395729Y429260D01*
X1395718Y429325D01*
X1395716Y429391D01*
X1395698Y429434D01*
X1395690Y429481D01*
X1395656Y429538D01*
X1395631Y429598D01*
X1395600Y429633D01*
X1395575Y429674D01*
X1395524Y429716D01*
X1395480Y429764D01*
X1395438Y429786D01*
X1395401Y429815D01*
X1395339Y429836D01*
X1395280Y429867D01*
X1395226Y429875D01*
X1395189Y429887D01*
X1395149Y429886D01*
X1395095Y429894D01*
X1392555Y429894D01*
X1392490Y429883D01*
X1392424Y429881D01*
X1392381Y429863D01*
X1392334Y429855D01*
X1392277Y429821D01*
X1392217Y429796D01*
X1392182Y429765D01*
X1392141Y429740D01*
X1392100Y429689D01*
X1392051Y429645D01*
X1392029Y429603D01*
X1392000Y429566D01*
X1391979Y429504D01*
X1391948Y429445D01*
X1391940Y429391D01*
X1391928Y429354D01*
X1391928Y429350D01*
X1391928Y429349D01*
X1391929Y429314D01*
X1391921Y429260D01*
X1391921Y425450D01*
X1391932Y425385D01*
X1391934Y425319D01*
X1391952Y425276D01*
X1391960Y425229D01*
X1391994Y425172D01*
X1392019Y425112D01*
X1392050Y425077D01*
X1392075Y425036D01*
X1392126Y424995D01*
X1392170Y424946D01*
X1392212Y424924D01*
X1392249Y424895D01*
X1392311Y424874D01*
X1392370Y424843D01*
X1392424Y424835D01*
X1392461Y424823D01*
X1392501Y424824D01*
X1392555Y424816D01*
X1395095Y424816D01*
X1395160Y424827D01*
G37*
G36*
X793180Y424827D02*
X793180Y424827D01*
X793246Y424829D01*
X793289Y424847D01*
X793336Y424855D01*
X793393Y424889D01*
X793453Y424914D01*
X793488Y424945D01*
X793529Y424970D01*
X793571Y425021D01*
X793619Y425065D01*
X793641Y425107D01*
X793670Y425144D01*
X793691Y425206D01*
X793722Y425265D01*
X793730Y425319D01*
X793742Y425356D01*
X793741Y425396D01*
X793749Y425450D01*
X793749Y429260D01*
X793738Y429325D01*
X793736Y429391D01*
X793718Y429434D01*
X793710Y429481D01*
X793676Y429538D01*
X793651Y429598D01*
X793620Y429633D01*
X793595Y429674D01*
X793544Y429716D01*
X793500Y429764D01*
X793458Y429786D01*
X793421Y429815D01*
X793359Y429836D01*
X793300Y429867D01*
X793246Y429875D01*
X793209Y429887D01*
X793169Y429886D01*
X793115Y429894D01*
X790575Y429894D01*
X790510Y429883D01*
X790444Y429881D01*
X790401Y429863D01*
X790354Y429855D01*
X790297Y429821D01*
X790237Y429796D01*
X790202Y429765D01*
X790161Y429740D01*
X790120Y429689D01*
X790071Y429645D01*
X790049Y429603D01*
X790020Y429566D01*
X789999Y429504D01*
X789968Y429445D01*
X789960Y429391D01*
X789948Y429354D01*
X789948Y429350D01*
X789948Y429349D01*
X789949Y429314D01*
X789941Y429260D01*
X789941Y425450D01*
X789952Y425385D01*
X789954Y425319D01*
X789972Y425276D01*
X789980Y425229D01*
X790014Y425172D01*
X790039Y425112D01*
X790070Y425077D01*
X790095Y425036D01*
X790146Y424995D01*
X790190Y424946D01*
X790232Y424924D01*
X790269Y424895D01*
X790331Y424874D01*
X790390Y424843D01*
X790444Y424835D01*
X790481Y424823D01*
X790521Y424824D01*
X790575Y424816D01*
X793115Y424816D01*
X793180Y424827D01*
G37*
G36*
X191200Y424827D02*
X191200Y424827D01*
X191266Y424829D01*
X191309Y424847D01*
X191356Y424855D01*
X191413Y424889D01*
X191473Y424914D01*
X191508Y424945D01*
X191549Y424970D01*
X191591Y425021D01*
X191639Y425065D01*
X191661Y425107D01*
X191690Y425144D01*
X191711Y425206D01*
X191742Y425265D01*
X191750Y425319D01*
X191762Y425356D01*
X191761Y425396D01*
X191769Y425450D01*
X191769Y429260D01*
X191758Y429325D01*
X191756Y429391D01*
X191738Y429434D01*
X191730Y429481D01*
X191696Y429538D01*
X191671Y429598D01*
X191640Y429633D01*
X191615Y429674D01*
X191564Y429716D01*
X191520Y429764D01*
X191478Y429786D01*
X191441Y429815D01*
X191379Y429836D01*
X191320Y429867D01*
X191266Y429875D01*
X191229Y429887D01*
X191189Y429886D01*
X191135Y429894D01*
X188595Y429894D01*
X188530Y429883D01*
X188464Y429881D01*
X188421Y429863D01*
X188374Y429855D01*
X188317Y429821D01*
X188257Y429796D01*
X188222Y429765D01*
X188181Y429740D01*
X188140Y429689D01*
X188091Y429645D01*
X188069Y429603D01*
X188040Y429566D01*
X188019Y429504D01*
X187988Y429445D01*
X187980Y429391D01*
X187968Y429354D01*
X187968Y429350D01*
X187968Y429349D01*
X187969Y429314D01*
X187961Y429260D01*
X187961Y425450D01*
X187972Y425385D01*
X187974Y425319D01*
X187992Y425276D01*
X188000Y425229D01*
X188034Y425172D01*
X188059Y425112D01*
X188090Y425077D01*
X188115Y425036D01*
X188166Y424995D01*
X188210Y424946D01*
X188252Y424924D01*
X188289Y424895D01*
X188351Y424874D01*
X188410Y424843D01*
X188464Y424835D01*
X188501Y424823D01*
X188541Y424824D01*
X188595Y424816D01*
X191135Y424816D01*
X191200Y424827D01*
G37*
G36*
X1395160Y414667D02*
X1395160Y414667D01*
X1395226Y414669D01*
X1395269Y414687D01*
X1395316Y414695D01*
X1395373Y414729D01*
X1395433Y414754D01*
X1395468Y414785D01*
X1395509Y414810D01*
X1395551Y414861D01*
X1395599Y414905D01*
X1395621Y414947D01*
X1395650Y414984D01*
X1395671Y415046D01*
X1395702Y415105D01*
X1395710Y415159D01*
X1395722Y415196D01*
X1395721Y415236D01*
X1395729Y415290D01*
X1395729Y419100D01*
X1395718Y419165D01*
X1395716Y419231D01*
X1395698Y419274D01*
X1395690Y419321D01*
X1395656Y419378D01*
X1395631Y419438D01*
X1395600Y419473D01*
X1395575Y419514D01*
X1395524Y419556D01*
X1395480Y419604D01*
X1395438Y419626D01*
X1395401Y419655D01*
X1395339Y419676D01*
X1395280Y419707D01*
X1395226Y419715D01*
X1395189Y419727D01*
X1395149Y419726D01*
X1395095Y419734D01*
X1392555Y419734D01*
X1392490Y419723D01*
X1392424Y419721D01*
X1392381Y419703D01*
X1392334Y419695D01*
X1392277Y419661D01*
X1392217Y419636D01*
X1392182Y419605D01*
X1392141Y419580D01*
X1392100Y419529D01*
X1392051Y419485D01*
X1392029Y419443D01*
X1392000Y419406D01*
X1391979Y419344D01*
X1391948Y419285D01*
X1391940Y419231D01*
X1391928Y419194D01*
X1391928Y419190D01*
X1391928Y419189D01*
X1391929Y419154D01*
X1391921Y419100D01*
X1391921Y415290D01*
X1391932Y415225D01*
X1391934Y415159D01*
X1391952Y415116D01*
X1391960Y415069D01*
X1391994Y415012D01*
X1392019Y414952D01*
X1392050Y414917D01*
X1392075Y414876D01*
X1392126Y414835D01*
X1392170Y414786D01*
X1392212Y414764D01*
X1392249Y414735D01*
X1392311Y414714D01*
X1392370Y414683D01*
X1392424Y414675D01*
X1392461Y414663D01*
X1392501Y414664D01*
X1392555Y414656D01*
X1395095Y414656D01*
X1395160Y414667D01*
G37*
G36*
X191200Y414667D02*
X191200Y414667D01*
X191266Y414669D01*
X191309Y414687D01*
X191356Y414695D01*
X191413Y414729D01*
X191473Y414754D01*
X191508Y414785D01*
X191549Y414810D01*
X191591Y414861D01*
X191639Y414905D01*
X191661Y414947D01*
X191690Y414984D01*
X191711Y415046D01*
X191742Y415105D01*
X191750Y415159D01*
X191762Y415196D01*
X191761Y415236D01*
X191769Y415290D01*
X191769Y419100D01*
X191758Y419165D01*
X191756Y419231D01*
X191738Y419274D01*
X191730Y419321D01*
X191696Y419378D01*
X191671Y419438D01*
X191640Y419473D01*
X191615Y419514D01*
X191564Y419556D01*
X191520Y419604D01*
X191478Y419626D01*
X191441Y419655D01*
X191379Y419676D01*
X191320Y419707D01*
X191266Y419715D01*
X191229Y419727D01*
X191189Y419726D01*
X191135Y419734D01*
X188595Y419734D01*
X188530Y419723D01*
X188464Y419721D01*
X188421Y419703D01*
X188374Y419695D01*
X188317Y419661D01*
X188257Y419636D01*
X188222Y419605D01*
X188181Y419580D01*
X188140Y419529D01*
X188091Y419485D01*
X188069Y419443D01*
X188040Y419406D01*
X188019Y419344D01*
X187988Y419285D01*
X187980Y419231D01*
X187968Y419194D01*
X187968Y419190D01*
X187968Y419189D01*
X187969Y419154D01*
X187961Y419100D01*
X187961Y415290D01*
X187972Y415225D01*
X187974Y415159D01*
X187992Y415116D01*
X188000Y415069D01*
X188034Y415012D01*
X188059Y414952D01*
X188090Y414917D01*
X188115Y414876D01*
X188166Y414835D01*
X188210Y414786D01*
X188252Y414764D01*
X188289Y414735D01*
X188351Y414714D01*
X188410Y414683D01*
X188464Y414675D01*
X188501Y414663D01*
X188541Y414664D01*
X188595Y414656D01*
X191135Y414656D01*
X191200Y414667D01*
G37*
G36*
X793180Y414667D02*
X793180Y414667D01*
X793246Y414669D01*
X793289Y414687D01*
X793336Y414695D01*
X793393Y414729D01*
X793453Y414754D01*
X793488Y414785D01*
X793529Y414810D01*
X793571Y414861D01*
X793619Y414905D01*
X793641Y414947D01*
X793670Y414984D01*
X793691Y415046D01*
X793722Y415105D01*
X793730Y415159D01*
X793742Y415196D01*
X793741Y415236D01*
X793749Y415290D01*
X793749Y419100D01*
X793738Y419165D01*
X793736Y419231D01*
X793718Y419274D01*
X793710Y419321D01*
X793676Y419378D01*
X793651Y419438D01*
X793620Y419473D01*
X793595Y419514D01*
X793544Y419556D01*
X793500Y419604D01*
X793458Y419626D01*
X793421Y419655D01*
X793359Y419676D01*
X793300Y419707D01*
X793246Y419715D01*
X793209Y419727D01*
X793169Y419726D01*
X793115Y419734D01*
X790575Y419734D01*
X790510Y419723D01*
X790444Y419721D01*
X790401Y419703D01*
X790354Y419695D01*
X790297Y419661D01*
X790237Y419636D01*
X790202Y419605D01*
X790161Y419580D01*
X790120Y419529D01*
X790071Y419485D01*
X790049Y419443D01*
X790020Y419406D01*
X789999Y419344D01*
X789968Y419285D01*
X789960Y419231D01*
X789948Y419194D01*
X789948Y419190D01*
X789948Y419189D01*
X789949Y419154D01*
X789941Y419100D01*
X789941Y415290D01*
X789952Y415225D01*
X789954Y415159D01*
X789972Y415116D01*
X789980Y415069D01*
X790014Y415012D01*
X790039Y414952D01*
X790070Y414917D01*
X790095Y414876D01*
X790146Y414835D01*
X790190Y414786D01*
X790232Y414764D01*
X790269Y414735D01*
X790331Y414714D01*
X790390Y414683D01*
X790444Y414675D01*
X790481Y414663D01*
X790521Y414664D01*
X790575Y414656D01*
X793115Y414656D01*
X793180Y414667D01*
G37*
G36*
X525718Y174002D02*
X525718Y174002D01*
X525784Y174004D01*
X525827Y174022D01*
X525874Y174030D01*
X525931Y174064D01*
X525991Y174089D01*
X526026Y174120D01*
X526067Y174145D01*
X526109Y174196D01*
X526157Y174240D01*
X526179Y174282D01*
X526208Y174319D01*
X526229Y174381D01*
X526260Y174440D01*
X526268Y174494D01*
X526280Y174531D01*
X526279Y174571D01*
X526287Y174625D01*
X526287Y178435D01*
X526276Y178500D01*
X526274Y178566D01*
X526256Y178609D01*
X526248Y178656D01*
X526214Y178713D01*
X526189Y178773D01*
X526158Y178808D01*
X526133Y178849D01*
X526082Y178891D01*
X526038Y178939D01*
X525996Y178961D01*
X525959Y178990D01*
X525897Y179011D01*
X525838Y179042D01*
X525784Y179050D01*
X525747Y179062D01*
X525707Y179061D01*
X525653Y179069D01*
X523113Y179069D01*
X523048Y179058D01*
X522982Y179056D01*
X522939Y179038D01*
X522892Y179030D01*
X522835Y178996D01*
X522775Y178971D01*
X522740Y178940D01*
X522699Y178915D01*
X522658Y178864D01*
X522609Y178820D01*
X522587Y178778D01*
X522558Y178741D01*
X522537Y178679D01*
X522506Y178620D01*
X522498Y178566D01*
X522486Y178529D01*
X522486Y178525D01*
X522486Y178524D01*
X522487Y178489D01*
X522479Y178435D01*
X522479Y174625D01*
X522490Y174560D01*
X522492Y174494D01*
X522510Y174451D01*
X522518Y174404D01*
X522552Y174347D01*
X522577Y174287D01*
X522608Y174252D01*
X522633Y174211D01*
X522684Y174170D01*
X522728Y174121D01*
X522770Y174099D01*
X522807Y174070D01*
X522869Y174049D01*
X522928Y174018D01*
X522982Y174010D01*
X523019Y173998D01*
X523059Y173999D01*
X523113Y173991D01*
X525653Y173991D01*
X525718Y174002D01*
G37*
G36*
X1729678Y174002D02*
X1729678Y174002D01*
X1729744Y174004D01*
X1729787Y174022D01*
X1729834Y174030D01*
X1729891Y174064D01*
X1729951Y174089D01*
X1729986Y174120D01*
X1730027Y174145D01*
X1730069Y174196D01*
X1730117Y174240D01*
X1730139Y174282D01*
X1730168Y174319D01*
X1730189Y174381D01*
X1730220Y174440D01*
X1730228Y174494D01*
X1730240Y174531D01*
X1730239Y174571D01*
X1730247Y174625D01*
X1730247Y178435D01*
X1730236Y178500D01*
X1730234Y178566D01*
X1730216Y178609D01*
X1730208Y178656D01*
X1730174Y178713D01*
X1730149Y178773D01*
X1730118Y178808D01*
X1730093Y178849D01*
X1730042Y178891D01*
X1729998Y178939D01*
X1729956Y178961D01*
X1729919Y178990D01*
X1729857Y179011D01*
X1729798Y179042D01*
X1729744Y179050D01*
X1729707Y179062D01*
X1729667Y179061D01*
X1729613Y179069D01*
X1727073Y179069D01*
X1727008Y179058D01*
X1726942Y179056D01*
X1726899Y179038D01*
X1726852Y179030D01*
X1726795Y178996D01*
X1726735Y178971D01*
X1726700Y178940D01*
X1726659Y178915D01*
X1726618Y178864D01*
X1726569Y178820D01*
X1726547Y178778D01*
X1726518Y178741D01*
X1726497Y178679D01*
X1726466Y178620D01*
X1726458Y178566D01*
X1726446Y178529D01*
X1726446Y178525D01*
X1726446Y178524D01*
X1726447Y178489D01*
X1726439Y178435D01*
X1726439Y174625D01*
X1726450Y174560D01*
X1726452Y174494D01*
X1726470Y174451D01*
X1726478Y174404D01*
X1726512Y174347D01*
X1726537Y174287D01*
X1726568Y174252D01*
X1726593Y174211D01*
X1726644Y174170D01*
X1726688Y174121D01*
X1726730Y174099D01*
X1726767Y174070D01*
X1726829Y174049D01*
X1726888Y174018D01*
X1726942Y174010D01*
X1726979Y173998D01*
X1727019Y173999D01*
X1727073Y173991D01*
X1729613Y173991D01*
X1729678Y174002D01*
G37*
G36*
X1127698Y174002D02*
X1127698Y174002D01*
X1127764Y174004D01*
X1127807Y174022D01*
X1127854Y174030D01*
X1127911Y174064D01*
X1127971Y174089D01*
X1128006Y174120D01*
X1128047Y174145D01*
X1128089Y174196D01*
X1128137Y174240D01*
X1128159Y174282D01*
X1128188Y174319D01*
X1128209Y174381D01*
X1128240Y174440D01*
X1128248Y174494D01*
X1128260Y174531D01*
X1128259Y174571D01*
X1128267Y174625D01*
X1128267Y178435D01*
X1128256Y178500D01*
X1128254Y178566D01*
X1128236Y178609D01*
X1128228Y178656D01*
X1128194Y178713D01*
X1128169Y178773D01*
X1128138Y178808D01*
X1128113Y178849D01*
X1128062Y178891D01*
X1128018Y178939D01*
X1127976Y178961D01*
X1127939Y178990D01*
X1127877Y179011D01*
X1127818Y179042D01*
X1127764Y179050D01*
X1127727Y179062D01*
X1127687Y179061D01*
X1127633Y179069D01*
X1125093Y179069D01*
X1125028Y179058D01*
X1124962Y179056D01*
X1124919Y179038D01*
X1124872Y179030D01*
X1124815Y178996D01*
X1124755Y178971D01*
X1124720Y178940D01*
X1124679Y178915D01*
X1124638Y178864D01*
X1124589Y178820D01*
X1124567Y178778D01*
X1124538Y178741D01*
X1124517Y178679D01*
X1124486Y178620D01*
X1124478Y178566D01*
X1124466Y178529D01*
X1124466Y178525D01*
X1124466Y178524D01*
X1124467Y178489D01*
X1124459Y178435D01*
X1124459Y174625D01*
X1124470Y174560D01*
X1124472Y174494D01*
X1124490Y174451D01*
X1124498Y174404D01*
X1124532Y174347D01*
X1124557Y174287D01*
X1124588Y174252D01*
X1124613Y174211D01*
X1124664Y174170D01*
X1124708Y174121D01*
X1124750Y174099D01*
X1124787Y174070D01*
X1124849Y174049D01*
X1124908Y174018D01*
X1124962Y174010D01*
X1124999Y173998D01*
X1125039Y173999D01*
X1125093Y173991D01*
X1127633Y173991D01*
X1127698Y174002D01*
G37*
G36*
X1563435Y161302D02*
X1563435Y161302D01*
X1563501Y161304D01*
X1563544Y161322D01*
X1563591Y161330D01*
X1563648Y161364D01*
X1563708Y161389D01*
X1563743Y161420D01*
X1563784Y161445D01*
X1563826Y161496D01*
X1563874Y161540D01*
X1563896Y161582D01*
X1563925Y161619D01*
X1563946Y161681D01*
X1563977Y161740D01*
X1563985Y161794D01*
X1563997Y161831D01*
X1563996Y161871D01*
X1564004Y161925D01*
X1564004Y165735D01*
X1563993Y165800D01*
X1563991Y165866D01*
X1563973Y165909D01*
X1563965Y165956D01*
X1563931Y166013D01*
X1563906Y166073D01*
X1563875Y166108D01*
X1563850Y166149D01*
X1563799Y166191D01*
X1563755Y166239D01*
X1563713Y166261D01*
X1563676Y166290D01*
X1563614Y166311D01*
X1563555Y166342D01*
X1563501Y166350D01*
X1563464Y166362D01*
X1563424Y166361D01*
X1563370Y166369D01*
X1560830Y166369D01*
X1560765Y166358D01*
X1560699Y166356D01*
X1560656Y166338D01*
X1560609Y166330D01*
X1560552Y166296D01*
X1560492Y166271D01*
X1560457Y166240D01*
X1560416Y166215D01*
X1560375Y166164D01*
X1560326Y166120D01*
X1560304Y166078D01*
X1560275Y166041D01*
X1560254Y165979D01*
X1560223Y165920D01*
X1560215Y165866D01*
X1560203Y165829D01*
X1560203Y165825D01*
X1560203Y165824D01*
X1560204Y165789D01*
X1560196Y165735D01*
X1560196Y161925D01*
X1560207Y161860D01*
X1560209Y161794D01*
X1560227Y161751D01*
X1560235Y161704D01*
X1560269Y161647D01*
X1560294Y161587D01*
X1560325Y161552D01*
X1560350Y161511D01*
X1560401Y161470D01*
X1560445Y161421D01*
X1560487Y161399D01*
X1560524Y161370D01*
X1560586Y161349D01*
X1560645Y161318D01*
X1560699Y161310D01*
X1560736Y161298D01*
X1560776Y161299D01*
X1560830Y161291D01*
X1563370Y161291D01*
X1563435Y161302D01*
G37*
G36*
X961455Y161302D02*
X961455Y161302D01*
X961521Y161304D01*
X961564Y161322D01*
X961611Y161330D01*
X961668Y161364D01*
X961728Y161389D01*
X961763Y161420D01*
X961804Y161445D01*
X961846Y161496D01*
X961894Y161540D01*
X961916Y161582D01*
X961945Y161619D01*
X961966Y161681D01*
X961997Y161740D01*
X962005Y161794D01*
X962017Y161831D01*
X962016Y161871D01*
X962024Y161925D01*
X962024Y165735D01*
X962013Y165800D01*
X962011Y165866D01*
X961993Y165909D01*
X961985Y165956D01*
X961951Y166013D01*
X961926Y166073D01*
X961895Y166108D01*
X961870Y166149D01*
X961819Y166191D01*
X961775Y166239D01*
X961733Y166261D01*
X961696Y166290D01*
X961634Y166311D01*
X961575Y166342D01*
X961521Y166350D01*
X961484Y166362D01*
X961444Y166361D01*
X961390Y166369D01*
X958850Y166369D01*
X958785Y166358D01*
X958719Y166356D01*
X958676Y166338D01*
X958629Y166330D01*
X958572Y166296D01*
X958512Y166271D01*
X958477Y166240D01*
X958436Y166215D01*
X958395Y166164D01*
X958346Y166120D01*
X958324Y166078D01*
X958295Y166041D01*
X958274Y165979D01*
X958243Y165920D01*
X958235Y165866D01*
X958223Y165829D01*
X958223Y165825D01*
X958223Y165824D01*
X958224Y165789D01*
X958216Y165735D01*
X958216Y161925D01*
X958227Y161860D01*
X958229Y161794D01*
X958247Y161751D01*
X958255Y161704D01*
X958289Y161647D01*
X958314Y161587D01*
X958345Y161552D01*
X958370Y161511D01*
X958421Y161470D01*
X958465Y161421D01*
X958507Y161399D01*
X958544Y161370D01*
X958606Y161349D01*
X958665Y161318D01*
X958719Y161310D01*
X958756Y161298D01*
X958796Y161299D01*
X958850Y161291D01*
X961390Y161291D01*
X961455Y161302D01*
G37*
G36*
X359475Y161302D02*
X359475Y161302D01*
X359541Y161304D01*
X359584Y161322D01*
X359631Y161330D01*
X359688Y161364D01*
X359748Y161389D01*
X359783Y161420D01*
X359824Y161445D01*
X359866Y161496D01*
X359914Y161540D01*
X359936Y161582D01*
X359965Y161619D01*
X359986Y161681D01*
X360017Y161740D01*
X360025Y161794D01*
X360037Y161831D01*
X360036Y161871D01*
X360044Y161925D01*
X360044Y165735D01*
X360033Y165800D01*
X360031Y165866D01*
X360013Y165909D01*
X360005Y165956D01*
X359971Y166013D01*
X359946Y166073D01*
X359915Y166108D01*
X359890Y166149D01*
X359839Y166191D01*
X359795Y166239D01*
X359753Y166261D01*
X359716Y166290D01*
X359654Y166311D01*
X359595Y166342D01*
X359541Y166350D01*
X359504Y166362D01*
X359464Y166361D01*
X359410Y166369D01*
X356870Y166369D01*
X356805Y166358D01*
X356739Y166356D01*
X356696Y166338D01*
X356649Y166330D01*
X356592Y166296D01*
X356532Y166271D01*
X356497Y166240D01*
X356456Y166215D01*
X356415Y166164D01*
X356366Y166120D01*
X356344Y166078D01*
X356315Y166041D01*
X356294Y165979D01*
X356263Y165920D01*
X356255Y165866D01*
X356243Y165829D01*
X356243Y165825D01*
X356243Y165824D01*
X356244Y165789D01*
X356236Y165735D01*
X356236Y161925D01*
X356247Y161860D01*
X356249Y161794D01*
X356267Y161751D01*
X356275Y161704D01*
X356309Y161647D01*
X356334Y161587D01*
X356365Y161552D01*
X356390Y161511D01*
X356441Y161470D01*
X356485Y161421D01*
X356527Y161399D01*
X356564Y161370D01*
X356626Y161349D01*
X356685Y161318D01*
X356739Y161310D01*
X356776Y161298D01*
X356816Y161299D01*
X356870Y161291D01*
X359410Y161291D01*
X359475Y161302D01*
G37*
G36*
X1047815Y122567D02*
X1047815Y122567D01*
X1047881Y122569D01*
X1047924Y122587D01*
X1047971Y122595D01*
X1048028Y122629D01*
X1048088Y122654D01*
X1048123Y122685D01*
X1048164Y122710D01*
X1048206Y122761D01*
X1048254Y122805D01*
X1048276Y122847D01*
X1048305Y122884D01*
X1048326Y122946D01*
X1048357Y123005D01*
X1048365Y123059D01*
X1048377Y123096D01*
X1048376Y123136D01*
X1048384Y123190D01*
X1048384Y127000D01*
X1048373Y127065D01*
X1048371Y127131D01*
X1048353Y127174D01*
X1048345Y127221D01*
X1048311Y127278D01*
X1048286Y127338D01*
X1048255Y127373D01*
X1048230Y127414D01*
X1048179Y127456D01*
X1048135Y127504D01*
X1048093Y127526D01*
X1048056Y127555D01*
X1047994Y127576D01*
X1047935Y127607D01*
X1047881Y127615D01*
X1047844Y127627D01*
X1047804Y127626D01*
X1047750Y127634D01*
X1045210Y127634D01*
X1045145Y127623D01*
X1045079Y127621D01*
X1045036Y127603D01*
X1044989Y127595D01*
X1044932Y127561D01*
X1044872Y127536D01*
X1044837Y127505D01*
X1044796Y127480D01*
X1044755Y127429D01*
X1044706Y127385D01*
X1044684Y127343D01*
X1044655Y127306D01*
X1044634Y127244D01*
X1044603Y127185D01*
X1044595Y127131D01*
X1044583Y127094D01*
X1044583Y127090D01*
X1044583Y127089D01*
X1044584Y127054D01*
X1044576Y127000D01*
X1044576Y123190D01*
X1044587Y123125D01*
X1044589Y123059D01*
X1044607Y123016D01*
X1044615Y122969D01*
X1044649Y122912D01*
X1044674Y122852D01*
X1044705Y122817D01*
X1044730Y122776D01*
X1044781Y122735D01*
X1044825Y122686D01*
X1044867Y122664D01*
X1044904Y122635D01*
X1044966Y122614D01*
X1045025Y122583D01*
X1045079Y122575D01*
X1045116Y122563D01*
X1045156Y122564D01*
X1045210Y122556D01*
X1047750Y122556D01*
X1047815Y122567D01*
G37*
G36*
X1675195Y122567D02*
X1675195Y122567D01*
X1675261Y122569D01*
X1675304Y122587D01*
X1675351Y122595D01*
X1675408Y122629D01*
X1675468Y122654D01*
X1675503Y122685D01*
X1675544Y122710D01*
X1675586Y122761D01*
X1675634Y122805D01*
X1675656Y122847D01*
X1675685Y122884D01*
X1675706Y122946D01*
X1675737Y123005D01*
X1675745Y123059D01*
X1675757Y123096D01*
X1675756Y123136D01*
X1675764Y123190D01*
X1675764Y127000D01*
X1675753Y127065D01*
X1675751Y127131D01*
X1675733Y127174D01*
X1675725Y127221D01*
X1675691Y127278D01*
X1675666Y127338D01*
X1675635Y127373D01*
X1675610Y127414D01*
X1675559Y127456D01*
X1675515Y127504D01*
X1675473Y127526D01*
X1675436Y127555D01*
X1675374Y127576D01*
X1675315Y127607D01*
X1675261Y127615D01*
X1675224Y127627D01*
X1675184Y127626D01*
X1675130Y127634D01*
X1672590Y127634D01*
X1672525Y127623D01*
X1672459Y127621D01*
X1672416Y127603D01*
X1672369Y127595D01*
X1672312Y127561D01*
X1672252Y127536D01*
X1672217Y127505D01*
X1672176Y127480D01*
X1672135Y127429D01*
X1672086Y127385D01*
X1672064Y127343D01*
X1672035Y127306D01*
X1672014Y127244D01*
X1671983Y127185D01*
X1671975Y127131D01*
X1671963Y127094D01*
X1671963Y127090D01*
X1671963Y127089D01*
X1671964Y127054D01*
X1671956Y127000D01*
X1671956Y123190D01*
X1671967Y123125D01*
X1671969Y123059D01*
X1671987Y123016D01*
X1671995Y122969D01*
X1672029Y122912D01*
X1672054Y122852D01*
X1672085Y122817D01*
X1672110Y122776D01*
X1672161Y122735D01*
X1672205Y122686D01*
X1672247Y122664D01*
X1672284Y122635D01*
X1672346Y122614D01*
X1672405Y122583D01*
X1672459Y122575D01*
X1672496Y122563D01*
X1672536Y122564D01*
X1672590Y122556D01*
X1675130Y122556D01*
X1675195Y122567D01*
G37*
G36*
X793180Y963307D02*
X793180Y963307D01*
X793246Y963309D01*
X793289Y963327D01*
X793336Y963335D01*
X793393Y963369D01*
X793453Y963394D01*
X793488Y963425D01*
X793529Y963450D01*
X793571Y963501D01*
X793619Y963545D01*
X793641Y963587D01*
X793670Y963624D01*
X793691Y963686D01*
X793722Y963745D01*
X793730Y963799D01*
X793742Y963836D01*
X793741Y963876D01*
X793749Y963930D01*
X793749Y967740D01*
X793738Y967805D01*
X793736Y967871D01*
X793718Y967914D01*
X793710Y967961D01*
X793676Y968018D01*
X793651Y968078D01*
X793620Y968113D01*
X793595Y968154D01*
X793544Y968196D01*
X793500Y968244D01*
X793458Y968266D01*
X793421Y968295D01*
X793359Y968316D01*
X793300Y968347D01*
X793246Y968355D01*
X793209Y968367D01*
X793169Y968366D01*
X793115Y968374D01*
X790575Y968374D01*
X790510Y968363D01*
X790444Y968361D01*
X790401Y968343D01*
X790354Y968335D01*
X790297Y968301D01*
X790237Y968276D01*
X790202Y968245D01*
X790161Y968220D01*
X790120Y968169D01*
X790071Y968125D01*
X790049Y968083D01*
X790020Y968046D01*
X789999Y967984D01*
X789968Y967925D01*
X789960Y967871D01*
X789948Y967834D01*
X789948Y967830D01*
X789948Y967829D01*
X789949Y967794D01*
X789941Y967740D01*
X789941Y963930D01*
X789952Y963865D01*
X789954Y963799D01*
X789972Y963756D01*
X789980Y963709D01*
X790014Y963652D01*
X790039Y963592D01*
X790070Y963557D01*
X790095Y963516D01*
X790146Y963475D01*
X790190Y963426D01*
X790232Y963404D01*
X790269Y963375D01*
X790331Y963354D01*
X790390Y963323D01*
X790444Y963315D01*
X790481Y963303D01*
X790521Y963304D01*
X790575Y963296D01*
X793115Y963296D01*
X793180Y963307D01*
G37*
G36*
X1649795Y122567D02*
X1649795Y122567D01*
X1649861Y122569D01*
X1649904Y122587D01*
X1649951Y122595D01*
X1650008Y122629D01*
X1650068Y122654D01*
X1650103Y122685D01*
X1650144Y122710D01*
X1650186Y122761D01*
X1650234Y122805D01*
X1650256Y122847D01*
X1650285Y122884D01*
X1650306Y122946D01*
X1650337Y123005D01*
X1650345Y123059D01*
X1650357Y123096D01*
X1650356Y123136D01*
X1650364Y123190D01*
X1650364Y127000D01*
X1650353Y127065D01*
X1650351Y127131D01*
X1650333Y127174D01*
X1650325Y127221D01*
X1650291Y127278D01*
X1650266Y127338D01*
X1650235Y127373D01*
X1650210Y127414D01*
X1650159Y127456D01*
X1650115Y127504D01*
X1650073Y127526D01*
X1650036Y127555D01*
X1649974Y127576D01*
X1649915Y127607D01*
X1649861Y127615D01*
X1649824Y127627D01*
X1649784Y127626D01*
X1649730Y127634D01*
X1647190Y127634D01*
X1647125Y127623D01*
X1647059Y127621D01*
X1647016Y127603D01*
X1646969Y127595D01*
X1646912Y127561D01*
X1646852Y127536D01*
X1646817Y127505D01*
X1646776Y127480D01*
X1646735Y127429D01*
X1646686Y127385D01*
X1646664Y127343D01*
X1646635Y127306D01*
X1646614Y127244D01*
X1646583Y127185D01*
X1646575Y127131D01*
X1646563Y127094D01*
X1646563Y127090D01*
X1646563Y127089D01*
X1646564Y127054D01*
X1646556Y127000D01*
X1646556Y123190D01*
X1646567Y123125D01*
X1646569Y123059D01*
X1646587Y123016D01*
X1646595Y122969D01*
X1646629Y122912D01*
X1646654Y122852D01*
X1646685Y122817D01*
X1646710Y122776D01*
X1646761Y122735D01*
X1646805Y122686D01*
X1646847Y122664D01*
X1646884Y122635D01*
X1646946Y122614D01*
X1647005Y122583D01*
X1647059Y122575D01*
X1647096Y122563D01*
X1647136Y122564D01*
X1647190Y122556D01*
X1649730Y122556D01*
X1649795Y122567D01*
G37*
G36*
X471235Y122567D02*
X471235Y122567D01*
X471301Y122569D01*
X471344Y122587D01*
X471391Y122595D01*
X471448Y122629D01*
X471508Y122654D01*
X471543Y122685D01*
X471584Y122710D01*
X471626Y122761D01*
X471674Y122805D01*
X471696Y122847D01*
X471725Y122884D01*
X471746Y122946D01*
X471777Y123005D01*
X471785Y123059D01*
X471797Y123096D01*
X471796Y123136D01*
X471804Y123190D01*
X471804Y127000D01*
X471793Y127065D01*
X471791Y127131D01*
X471773Y127174D01*
X471765Y127221D01*
X471731Y127278D01*
X471706Y127338D01*
X471675Y127373D01*
X471650Y127414D01*
X471599Y127456D01*
X471555Y127504D01*
X471513Y127526D01*
X471476Y127555D01*
X471414Y127576D01*
X471355Y127607D01*
X471301Y127615D01*
X471264Y127627D01*
X471224Y127626D01*
X471170Y127634D01*
X468630Y127634D01*
X468565Y127623D01*
X468499Y127621D01*
X468456Y127603D01*
X468409Y127595D01*
X468352Y127561D01*
X468292Y127536D01*
X468257Y127505D01*
X468216Y127480D01*
X468175Y127429D01*
X468126Y127385D01*
X468104Y127343D01*
X468075Y127306D01*
X468054Y127244D01*
X468023Y127185D01*
X468015Y127131D01*
X468003Y127094D01*
X468003Y127090D01*
X468003Y127089D01*
X468004Y127054D01*
X467996Y127000D01*
X467996Y123190D01*
X468007Y123125D01*
X468009Y123059D01*
X468027Y123016D01*
X468035Y122969D01*
X468069Y122912D01*
X468094Y122852D01*
X468125Y122817D01*
X468150Y122776D01*
X468201Y122735D01*
X468245Y122686D01*
X468287Y122664D01*
X468324Y122635D01*
X468386Y122614D01*
X468445Y122583D01*
X468499Y122575D01*
X468536Y122563D01*
X468576Y122564D01*
X468630Y122556D01*
X471170Y122556D01*
X471235Y122567D01*
G37*
G36*
X445835Y122567D02*
X445835Y122567D01*
X445901Y122569D01*
X445944Y122587D01*
X445991Y122595D01*
X446048Y122629D01*
X446108Y122654D01*
X446143Y122685D01*
X446184Y122710D01*
X446226Y122761D01*
X446274Y122805D01*
X446296Y122847D01*
X446325Y122884D01*
X446346Y122946D01*
X446377Y123005D01*
X446385Y123059D01*
X446397Y123096D01*
X446396Y123136D01*
X446404Y123190D01*
X446404Y127000D01*
X446393Y127065D01*
X446391Y127131D01*
X446373Y127174D01*
X446365Y127221D01*
X446331Y127278D01*
X446306Y127338D01*
X446275Y127373D01*
X446250Y127414D01*
X446199Y127456D01*
X446155Y127504D01*
X446113Y127526D01*
X446076Y127555D01*
X446014Y127576D01*
X445955Y127607D01*
X445901Y127615D01*
X445864Y127627D01*
X445824Y127626D01*
X445770Y127634D01*
X443230Y127634D01*
X443165Y127623D01*
X443099Y127621D01*
X443056Y127603D01*
X443009Y127595D01*
X442952Y127561D01*
X442892Y127536D01*
X442857Y127505D01*
X442816Y127480D01*
X442775Y127429D01*
X442726Y127385D01*
X442704Y127343D01*
X442675Y127306D01*
X442654Y127244D01*
X442623Y127185D01*
X442615Y127131D01*
X442603Y127094D01*
X442603Y127090D01*
X442603Y127089D01*
X442604Y127054D01*
X442596Y127000D01*
X442596Y123190D01*
X442607Y123125D01*
X442609Y123059D01*
X442627Y123016D01*
X442635Y122969D01*
X442669Y122912D01*
X442694Y122852D01*
X442725Y122817D01*
X442750Y122776D01*
X442801Y122735D01*
X442845Y122686D01*
X442887Y122664D01*
X442924Y122635D01*
X442986Y122614D01*
X443045Y122583D01*
X443099Y122575D01*
X443136Y122563D01*
X443176Y122564D01*
X443230Y122556D01*
X445770Y122556D01*
X445835Y122567D01*
G37*
G36*
X191200Y963307D02*
X191200Y963307D01*
X191266Y963309D01*
X191309Y963327D01*
X191356Y963335D01*
X191413Y963369D01*
X191473Y963394D01*
X191508Y963425D01*
X191549Y963450D01*
X191591Y963501D01*
X191639Y963545D01*
X191661Y963587D01*
X191690Y963624D01*
X191711Y963686D01*
X191742Y963745D01*
X191750Y963799D01*
X191762Y963836D01*
X191761Y963876D01*
X191769Y963930D01*
X191769Y967740D01*
X191758Y967805D01*
X191756Y967871D01*
X191738Y967914D01*
X191730Y967961D01*
X191696Y968018D01*
X191671Y968078D01*
X191640Y968113D01*
X191615Y968154D01*
X191564Y968196D01*
X191520Y968244D01*
X191478Y968266D01*
X191441Y968295D01*
X191379Y968316D01*
X191320Y968347D01*
X191266Y968355D01*
X191229Y968367D01*
X191189Y968366D01*
X191135Y968374D01*
X188595Y968374D01*
X188530Y968363D01*
X188464Y968361D01*
X188421Y968343D01*
X188374Y968335D01*
X188317Y968301D01*
X188257Y968276D01*
X188222Y968245D01*
X188181Y968220D01*
X188140Y968169D01*
X188091Y968125D01*
X188069Y968083D01*
X188040Y968046D01*
X188019Y967984D01*
X187988Y967925D01*
X187980Y967871D01*
X187968Y967834D01*
X187968Y967830D01*
X187968Y967829D01*
X187969Y967794D01*
X187961Y967740D01*
X187961Y963930D01*
X187972Y963865D01*
X187974Y963799D01*
X187992Y963756D01*
X188000Y963709D01*
X188034Y963652D01*
X188059Y963592D01*
X188090Y963557D01*
X188115Y963516D01*
X188166Y963475D01*
X188210Y963426D01*
X188252Y963404D01*
X188289Y963375D01*
X188351Y963354D01*
X188410Y963323D01*
X188464Y963315D01*
X188501Y963303D01*
X188541Y963304D01*
X188595Y963296D01*
X191135Y963296D01*
X191200Y963307D01*
G37*
G36*
X1395160Y963307D02*
X1395160Y963307D01*
X1395226Y963309D01*
X1395269Y963327D01*
X1395316Y963335D01*
X1395373Y963369D01*
X1395433Y963394D01*
X1395468Y963425D01*
X1395509Y963450D01*
X1395551Y963501D01*
X1395599Y963545D01*
X1395621Y963587D01*
X1395650Y963624D01*
X1395671Y963686D01*
X1395702Y963745D01*
X1395710Y963799D01*
X1395722Y963836D01*
X1395721Y963876D01*
X1395729Y963930D01*
X1395729Y967740D01*
X1395718Y967805D01*
X1395716Y967871D01*
X1395698Y967914D01*
X1395690Y967961D01*
X1395656Y968018D01*
X1395631Y968078D01*
X1395600Y968113D01*
X1395575Y968154D01*
X1395524Y968196D01*
X1395480Y968244D01*
X1395438Y968266D01*
X1395401Y968295D01*
X1395339Y968316D01*
X1395280Y968347D01*
X1395226Y968355D01*
X1395189Y968367D01*
X1395149Y968366D01*
X1395095Y968374D01*
X1392555Y968374D01*
X1392490Y968363D01*
X1392424Y968361D01*
X1392381Y968343D01*
X1392334Y968335D01*
X1392277Y968301D01*
X1392217Y968276D01*
X1392182Y968245D01*
X1392141Y968220D01*
X1392100Y968169D01*
X1392051Y968125D01*
X1392029Y968083D01*
X1392000Y968046D01*
X1391979Y967984D01*
X1391948Y967925D01*
X1391940Y967871D01*
X1391928Y967834D01*
X1391928Y967830D01*
X1391928Y967829D01*
X1391929Y967794D01*
X1391921Y967740D01*
X1391921Y963930D01*
X1391932Y963865D01*
X1391934Y963799D01*
X1391952Y963756D01*
X1391960Y963709D01*
X1391994Y963652D01*
X1392019Y963592D01*
X1392050Y963557D01*
X1392075Y963516D01*
X1392126Y963475D01*
X1392170Y963426D01*
X1392212Y963404D01*
X1392249Y963375D01*
X1392311Y963354D01*
X1392370Y963323D01*
X1392424Y963315D01*
X1392461Y963303D01*
X1392501Y963304D01*
X1392555Y963296D01*
X1395095Y963296D01*
X1395160Y963307D01*
G37*
G36*
X1073215Y122567D02*
X1073215Y122567D01*
X1073281Y122569D01*
X1073324Y122587D01*
X1073371Y122595D01*
X1073428Y122629D01*
X1073488Y122654D01*
X1073523Y122685D01*
X1073564Y122710D01*
X1073606Y122761D01*
X1073654Y122805D01*
X1073676Y122847D01*
X1073705Y122884D01*
X1073726Y122946D01*
X1073757Y123005D01*
X1073765Y123059D01*
X1073777Y123096D01*
X1073776Y123136D01*
X1073784Y123190D01*
X1073784Y127000D01*
X1073773Y127065D01*
X1073771Y127131D01*
X1073753Y127174D01*
X1073745Y127221D01*
X1073711Y127278D01*
X1073686Y127338D01*
X1073655Y127373D01*
X1073630Y127414D01*
X1073579Y127456D01*
X1073535Y127504D01*
X1073493Y127526D01*
X1073456Y127555D01*
X1073394Y127576D01*
X1073335Y127607D01*
X1073281Y127615D01*
X1073244Y127627D01*
X1073204Y127626D01*
X1073150Y127634D01*
X1070610Y127634D01*
X1070545Y127623D01*
X1070479Y127621D01*
X1070436Y127603D01*
X1070389Y127595D01*
X1070332Y127561D01*
X1070272Y127536D01*
X1070237Y127505D01*
X1070196Y127480D01*
X1070155Y127429D01*
X1070106Y127385D01*
X1070084Y127343D01*
X1070055Y127306D01*
X1070034Y127244D01*
X1070003Y127185D01*
X1069995Y127131D01*
X1069983Y127094D01*
X1069983Y127090D01*
X1069983Y127089D01*
X1069984Y127054D01*
X1069976Y127000D01*
X1069976Y123190D01*
X1069987Y123125D01*
X1069989Y123059D01*
X1070007Y123016D01*
X1070015Y122969D01*
X1070049Y122912D01*
X1070074Y122852D01*
X1070105Y122817D01*
X1070130Y122776D01*
X1070181Y122735D01*
X1070225Y122686D01*
X1070267Y122664D01*
X1070304Y122635D01*
X1070366Y122614D01*
X1070425Y122583D01*
X1070479Y122575D01*
X1070516Y122563D01*
X1070556Y122564D01*
X1070610Y122556D01*
X1073150Y122556D01*
X1073215Y122567D01*
G37*
G36*
X1675195Y84467D02*
X1675195Y84467D01*
X1675261Y84469D01*
X1675304Y84487D01*
X1675351Y84495D01*
X1675408Y84529D01*
X1675468Y84554D01*
X1675503Y84585D01*
X1675544Y84610D01*
X1675586Y84661D01*
X1675634Y84705D01*
X1675656Y84747D01*
X1675685Y84784D01*
X1675706Y84846D01*
X1675737Y84905D01*
X1675745Y84959D01*
X1675757Y84996D01*
X1675756Y85036D01*
X1675764Y85090D01*
X1675764Y88900D01*
X1675753Y88965D01*
X1675751Y89031D01*
X1675733Y89074D01*
X1675725Y89121D01*
X1675691Y89178D01*
X1675666Y89238D01*
X1675635Y89273D01*
X1675610Y89314D01*
X1675559Y89356D01*
X1675515Y89404D01*
X1675473Y89426D01*
X1675436Y89455D01*
X1675374Y89476D01*
X1675315Y89507D01*
X1675261Y89515D01*
X1675224Y89527D01*
X1675184Y89526D01*
X1675130Y89534D01*
X1672590Y89534D01*
X1672525Y89523D01*
X1672459Y89521D01*
X1672416Y89503D01*
X1672369Y89495D01*
X1672312Y89461D01*
X1672252Y89436D01*
X1672217Y89405D01*
X1672176Y89380D01*
X1672135Y89329D01*
X1672086Y89285D01*
X1672064Y89243D01*
X1672035Y89206D01*
X1672014Y89144D01*
X1671983Y89085D01*
X1671975Y89031D01*
X1671963Y88994D01*
X1671963Y88990D01*
X1671963Y88989D01*
X1671964Y88954D01*
X1671956Y88900D01*
X1671956Y85090D01*
X1671967Y85025D01*
X1671969Y84959D01*
X1671987Y84916D01*
X1671995Y84869D01*
X1672029Y84812D01*
X1672054Y84752D01*
X1672085Y84717D01*
X1672110Y84676D01*
X1672161Y84635D01*
X1672205Y84586D01*
X1672247Y84564D01*
X1672284Y84535D01*
X1672346Y84514D01*
X1672405Y84483D01*
X1672459Y84475D01*
X1672496Y84463D01*
X1672536Y84464D01*
X1672590Y84456D01*
X1675130Y84456D01*
X1675195Y84467D01*
G37*
G36*
X1047815Y84467D02*
X1047815Y84467D01*
X1047881Y84469D01*
X1047924Y84487D01*
X1047971Y84495D01*
X1048028Y84529D01*
X1048088Y84554D01*
X1048123Y84585D01*
X1048164Y84610D01*
X1048206Y84661D01*
X1048254Y84705D01*
X1048276Y84747D01*
X1048305Y84784D01*
X1048326Y84846D01*
X1048357Y84905D01*
X1048365Y84959D01*
X1048377Y84996D01*
X1048376Y85036D01*
X1048384Y85090D01*
X1048384Y88900D01*
X1048373Y88965D01*
X1048371Y89031D01*
X1048353Y89074D01*
X1048345Y89121D01*
X1048311Y89178D01*
X1048286Y89238D01*
X1048255Y89273D01*
X1048230Y89314D01*
X1048179Y89356D01*
X1048135Y89404D01*
X1048093Y89426D01*
X1048056Y89455D01*
X1047994Y89476D01*
X1047935Y89507D01*
X1047881Y89515D01*
X1047844Y89527D01*
X1047804Y89526D01*
X1047750Y89534D01*
X1045210Y89534D01*
X1045145Y89523D01*
X1045079Y89521D01*
X1045036Y89503D01*
X1044989Y89495D01*
X1044932Y89461D01*
X1044872Y89436D01*
X1044837Y89405D01*
X1044796Y89380D01*
X1044755Y89329D01*
X1044706Y89285D01*
X1044684Y89243D01*
X1044655Y89206D01*
X1044634Y89144D01*
X1044603Y89085D01*
X1044595Y89031D01*
X1044583Y88994D01*
X1044583Y88990D01*
X1044583Y88989D01*
X1044584Y88954D01*
X1044576Y88900D01*
X1044576Y85090D01*
X1044587Y85025D01*
X1044589Y84959D01*
X1044607Y84916D01*
X1044615Y84869D01*
X1044649Y84812D01*
X1044674Y84752D01*
X1044705Y84717D01*
X1044730Y84676D01*
X1044781Y84635D01*
X1044825Y84586D01*
X1044867Y84564D01*
X1044904Y84535D01*
X1044966Y84514D01*
X1045025Y84483D01*
X1045079Y84475D01*
X1045116Y84463D01*
X1045156Y84464D01*
X1045210Y84456D01*
X1047750Y84456D01*
X1047815Y84467D01*
G37*
G36*
X1073215Y84467D02*
X1073215Y84467D01*
X1073281Y84469D01*
X1073324Y84487D01*
X1073371Y84495D01*
X1073428Y84529D01*
X1073488Y84554D01*
X1073523Y84585D01*
X1073564Y84610D01*
X1073606Y84661D01*
X1073654Y84705D01*
X1073676Y84747D01*
X1073705Y84784D01*
X1073726Y84846D01*
X1073757Y84905D01*
X1073765Y84959D01*
X1073777Y84996D01*
X1073776Y85036D01*
X1073784Y85090D01*
X1073784Y88900D01*
X1073773Y88965D01*
X1073771Y89031D01*
X1073753Y89074D01*
X1073745Y89121D01*
X1073711Y89178D01*
X1073686Y89238D01*
X1073655Y89273D01*
X1073630Y89314D01*
X1073579Y89356D01*
X1073535Y89404D01*
X1073493Y89426D01*
X1073456Y89455D01*
X1073394Y89476D01*
X1073335Y89507D01*
X1073281Y89515D01*
X1073244Y89527D01*
X1073204Y89526D01*
X1073150Y89534D01*
X1070610Y89534D01*
X1070545Y89523D01*
X1070479Y89521D01*
X1070436Y89503D01*
X1070389Y89495D01*
X1070332Y89461D01*
X1070272Y89436D01*
X1070237Y89405D01*
X1070196Y89380D01*
X1070155Y89329D01*
X1070106Y89285D01*
X1070084Y89243D01*
X1070055Y89206D01*
X1070034Y89144D01*
X1070003Y89085D01*
X1069995Y89031D01*
X1069983Y88994D01*
X1069983Y88990D01*
X1069983Y88989D01*
X1069984Y88954D01*
X1069976Y88900D01*
X1069976Y85090D01*
X1069987Y85025D01*
X1069989Y84959D01*
X1070007Y84916D01*
X1070015Y84869D01*
X1070049Y84812D01*
X1070074Y84752D01*
X1070105Y84717D01*
X1070130Y84676D01*
X1070181Y84635D01*
X1070225Y84586D01*
X1070267Y84564D01*
X1070304Y84535D01*
X1070366Y84514D01*
X1070425Y84483D01*
X1070479Y84475D01*
X1070516Y84463D01*
X1070556Y84464D01*
X1070610Y84456D01*
X1073150Y84456D01*
X1073215Y84467D01*
G37*
G36*
X471235Y84467D02*
X471235Y84467D01*
X471301Y84469D01*
X471344Y84487D01*
X471391Y84495D01*
X471448Y84529D01*
X471508Y84554D01*
X471543Y84585D01*
X471584Y84610D01*
X471626Y84661D01*
X471674Y84705D01*
X471696Y84747D01*
X471725Y84784D01*
X471746Y84846D01*
X471777Y84905D01*
X471785Y84959D01*
X471797Y84996D01*
X471796Y85036D01*
X471804Y85090D01*
X471804Y88900D01*
X471793Y88965D01*
X471791Y89031D01*
X471773Y89074D01*
X471765Y89121D01*
X471731Y89178D01*
X471706Y89238D01*
X471675Y89273D01*
X471650Y89314D01*
X471599Y89356D01*
X471555Y89404D01*
X471513Y89426D01*
X471476Y89455D01*
X471414Y89476D01*
X471355Y89507D01*
X471301Y89515D01*
X471264Y89527D01*
X471224Y89526D01*
X471170Y89534D01*
X468630Y89534D01*
X468565Y89523D01*
X468499Y89521D01*
X468456Y89503D01*
X468409Y89495D01*
X468352Y89461D01*
X468292Y89436D01*
X468257Y89405D01*
X468216Y89380D01*
X468175Y89329D01*
X468126Y89285D01*
X468104Y89243D01*
X468075Y89206D01*
X468054Y89144D01*
X468023Y89085D01*
X468015Y89031D01*
X468003Y88994D01*
X468003Y88990D01*
X468003Y88989D01*
X468004Y88954D01*
X467996Y88900D01*
X467996Y85090D01*
X468007Y85025D01*
X468009Y84959D01*
X468027Y84916D01*
X468035Y84869D01*
X468069Y84812D01*
X468094Y84752D01*
X468125Y84717D01*
X468150Y84676D01*
X468201Y84635D01*
X468245Y84586D01*
X468287Y84564D01*
X468324Y84535D01*
X468386Y84514D01*
X468445Y84483D01*
X468499Y84475D01*
X468536Y84463D01*
X468576Y84464D01*
X468630Y84456D01*
X471170Y84456D01*
X471235Y84467D01*
G37*
G36*
X445835Y84467D02*
X445835Y84467D01*
X445901Y84469D01*
X445944Y84487D01*
X445991Y84495D01*
X446048Y84529D01*
X446108Y84554D01*
X446143Y84585D01*
X446184Y84610D01*
X446226Y84661D01*
X446274Y84705D01*
X446296Y84747D01*
X446325Y84784D01*
X446346Y84846D01*
X446377Y84905D01*
X446385Y84959D01*
X446397Y84996D01*
X446396Y85036D01*
X446404Y85090D01*
X446404Y88900D01*
X446393Y88965D01*
X446391Y89031D01*
X446373Y89074D01*
X446365Y89121D01*
X446331Y89178D01*
X446306Y89238D01*
X446275Y89273D01*
X446250Y89314D01*
X446199Y89356D01*
X446155Y89404D01*
X446113Y89426D01*
X446076Y89455D01*
X446014Y89476D01*
X445955Y89507D01*
X445901Y89515D01*
X445864Y89527D01*
X445824Y89526D01*
X445770Y89534D01*
X443230Y89534D01*
X443165Y89523D01*
X443099Y89521D01*
X443056Y89503D01*
X443009Y89495D01*
X442952Y89461D01*
X442892Y89436D01*
X442857Y89405D01*
X442816Y89380D01*
X442775Y89329D01*
X442726Y89285D01*
X442704Y89243D01*
X442675Y89206D01*
X442654Y89144D01*
X442623Y89085D01*
X442615Y89031D01*
X442603Y88994D01*
X442603Y88990D01*
X442603Y88989D01*
X442604Y88954D01*
X442596Y88900D01*
X442596Y85090D01*
X442607Y85025D01*
X442609Y84959D01*
X442627Y84916D01*
X442635Y84869D01*
X442669Y84812D01*
X442694Y84752D01*
X442725Y84717D01*
X442750Y84676D01*
X442801Y84635D01*
X442845Y84586D01*
X442887Y84564D01*
X442924Y84535D01*
X442986Y84514D01*
X443045Y84483D01*
X443099Y84475D01*
X443136Y84463D01*
X443176Y84464D01*
X443230Y84456D01*
X445770Y84456D01*
X445835Y84467D01*
G37*
G36*
X1649795Y84467D02*
X1649795Y84467D01*
X1649861Y84469D01*
X1649904Y84487D01*
X1649951Y84495D01*
X1650008Y84529D01*
X1650068Y84554D01*
X1650103Y84585D01*
X1650144Y84610D01*
X1650186Y84661D01*
X1650234Y84705D01*
X1650256Y84747D01*
X1650285Y84784D01*
X1650306Y84846D01*
X1650337Y84905D01*
X1650345Y84959D01*
X1650357Y84996D01*
X1650356Y85036D01*
X1650364Y85090D01*
X1650364Y88900D01*
X1650353Y88965D01*
X1650351Y89031D01*
X1650333Y89074D01*
X1650325Y89121D01*
X1650291Y89178D01*
X1650266Y89238D01*
X1650235Y89273D01*
X1650210Y89314D01*
X1650159Y89356D01*
X1650115Y89404D01*
X1650073Y89426D01*
X1650036Y89455D01*
X1649974Y89476D01*
X1649915Y89507D01*
X1649861Y89515D01*
X1649824Y89527D01*
X1649784Y89526D01*
X1649730Y89534D01*
X1647190Y89534D01*
X1647125Y89523D01*
X1647059Y89521D01*
X1647016Y89503D01*
X1646969Y89495D01*
X1646912Y89461D01*
X1646852Y89436D01*
X1646817Y89405D01*
X1646776Y89380D01*
X1646735Y89329D01*
X1646686Y89285D01*
X1646664Y89243D01*
X1646635Y89206D01*
X1646614Y89144D01*
X1646583Y89085D01*
X1646575Y89031D01*
X1646563Y88994D01*
X1646563Y88990D01*
X1646563Y88989D01*
X1646564Y88954D01*
X1646556Y88900D01*
X1646556Y85090D01*
X1646567Y85025D01*
X1646569Y84959D01*
X1646587Y84916D01*
X1646595Y84869D01*
X1646629Y84812D01*
X1646654Y84752D01*
X1646685Y84717D01*
X1646710Y84676D01*
X1646761Y84635D01*
X1646805Y84586D01*
X1646847Y84564D01*
X1646884Y84535D01*
X1646946Y84514D01*
X1647005Y84483D01*
X1647059Y84475D01*
X1647096Y84463D01*
X1647136Y84464D01*
X1647190Y84456D01*
X1649730Y84456D01*
X1649795Y84467D01*
G37*
D10*
X241300Y22860D03*
X266700Y25400D03*
X292100Y22860D03*
X317500Y25400D03*
X342900Y22860D03*
X368300Y25400D03*
X419100Y22860D03*
X444500Y25400D03*
X469900Y22860D03*
X495300Y25400D03*
X520700Y22860D03*
X546100Y25400D03*
X546100Y508000D03*
X520700Y510540D03*
X495300Y508000D03*
X469900Y510540D03*
X444500Y508000D03*
X419100Y510540D03*
X393700Y508000D03*
X368300Y510540D03*
X330200Y508000D03*
X304800Y510540D03*
X279400Y508000D03*
X254000Y510540D03*
X228600Y508000D03*
X203200Y510540D03*
X177800Y508000D03*
X152400Y510540D03*
X127000Y508000D03*
X101600Y508000D03*
X215900Y25400D03*
X190500Y22860D03*
D11*
X366000Y417195D03*
X396000Y417195D03*
D12*
X313690Y255905D03*
X313690Y243205D03*
X313690Y230505D03*
X313690Y217805D03*
X313690Y268605D03*
X326390Y255905D03*
X326390Y243205D03*
X326390Y230505D03*
X326390Y217805D03*
X326390Y268605D03*
X9525Y481965D03*
X577850Y47625D03*
D13*
X315097Y115580D02*
X309743Y115580D01*
X315097Y115580D02*
X315097Y103876D01*
X309743Y103876D01*
X309743Y115580D01*
X309743Y106270D02*
X315097Y106270D01*
X315097Y108664D02*
X309743Y108664D01*
X309743Y111058D02*
X315097Y111058D01*
X315097Y113452D02*
X309743Y113452D01*
X304937Y115580D02*
X299583Y115580D01*
X304937Y115580D02*
X304937Y103876D01*
X299583Y103876D01*
X299583Y115580D01*
X299583Y106270D02*
X304937Y106270D01*
X304937Y108664D02*
X299583Y108664D01*
X299583Y111058D02*
X304937Y111058D01*
X304937Y113452D02*
X299583Y113452D01*
D10*
X320040Y109728D03*
X294640Y109728D03*
D13*
X530235Y168519D02*
X530235Y174127D01*
X530235Y168519D02*
X518531Y168519D01*
X518531Y174127D01*
X530235Y174127D01*
X530235Y170913D02*
X518531Y170913D01*
X518531Y173307D02*
X530235Y173307D01*
X530235Y178933D02*
X530235Y184541D01*
X530235Y178933D02*
X518531Y178933D01*
X518531Y184541D01*
X530235Y184541D01*
X530235Y181327D02*
X518531Y181327D01*
X518531Y183721D02*
X530235Y183721D01*
D10*
X12700Y431800D03*
X12700Y406400D03*
X12700Y381000D03*
X12700Y355600D03*
X12700Y330200D03*
X12700Y304800D03*
D13*
X352288Y182128D02*
X352288Y176520D01*
X352288Y182128D02*
X363992Y182128D01*
X363992Y176520D01*
X352288Y176520D01*
X352288Y178914D02*
X363992Y178914D01*
X363992Y181308D02*
X352288Y181308D01*
X352288Y171714D02*
X352288Y166106D01*
X352288Y171714D02*
X363992Y171714D01*
X363992Y166106D01*
X352288Y166106D01*
X352288Y168500D02*
X363992Y168500D01*
X363992Y170894D02*
X352288Y170894D01*
X352288Y161300D02*
X352288Y155692D01*
X352288Y161300D02*
X363992Y161300D01*
X363992Y155692D01*
X352288Y155692D01*
X352288Y158086D02*
X363992Y158086D01*
X363992Y160480D02*
X352288Y160480D01*
X184013Y429885D02*
X184013Y435493D01*
X195717Y435493D01*
X195717Y429885D01*
X184013Y429885D01*
X184013Y432279D02*
X195717Y432279D01*
X195717Y434673D02*
X184013Y434673D01*
X184013Y425079D02*
X184013Y419471D01*
X184013Y425079D02*
X195717Y425079D01*
X195717Y419471D01*
X184013Y419471D01*
X184013Y421865D02*
X195717Y421865D01*
X195717Y424259D02*
X184013Y424259D01*
X184013Y414665D02*
X184013Y409057D01*
X184013Y414665D02*
X195717Y414665D01*
X195717Y409057D01*
X184013Y409057D01*
X184013Y411451D02*
X195717Y411451D01*
X195717Y413845D02*
X184013Y413845D01*
D14*
X301625Y384175D03*
D13*
X464048Y105293D02*
X464048Y99685D01*
X464048Y105293D02*
X475752Y105293D01*
X475752Y99685D01*
X464048Y99685D01*
X464048Y102079D02*
X475752Y102079D01*
X475752Y104473D02*
X464048Y104473D01*
X464048Y94879D02*
X464048Y89271D01*
X464048Y94879D02*
X475752Y94879D01*
X475752Y89271D01*
X464048Y89271D01*
X464048Y91665D02*
X475752Y91665D01*
X475752Y94059D02*
X464048Y94059D01*
X464048Y84465D02*
X464048Y78857D01*
X464048Y84465D02*
X475752Y84465D01*
X475752Y78857D01*
X464048Y78857D01*
X464048Y81251D02*
X475752Y81251D01*
X475752Y83645D02*
X464048Y83645D01*
X438648Y99685D02*
X438648Y105293D01*
X450352Y105293D01*
X450352Y99685D01*
X438648Y99685D01*
X438648Y102079D02*
X450352Y102079D01*
X450352Y104473D02*
X438648Y104473D01*
X438648Y94879D02*
X438648Y89271D01*
X438648Y94879D02*
X450352Y94879D01*
X450352Y89271D01*
X438648Y89271D01*
X438648Y91665D02*
X450352Y91665D01*
X450352Y94059D02*
X438648Y94059D01*
X438648Y84465D02*
X438648Y78857D01*
X438648Y84465D02*
X450352Y84465D01*
X450352Y78857D01*
X438648Y78857D01*
X438648Y81251D02*
X450352Y81251D01*
X450352Y83645D02*
X438648Y83645D01*
X464048Y137785D02*
X464048Y143393D01*
X475752Y143393D01*
X475752Y137785D01*
X464048Y137785D01*
X464048Y140179D02*
X475752Y140179D01*
X475752Y142573D02*
X464048Y142573D01*
X464048Y132979D02*
X464048Y127371D01*
X464048Y132979D02*
X475752Y132979D01*
X475752Y127371D01*
X464048Y127371D01*
X464048Y129765D02*
X475752Y129765D01*
X475752Y132159D02*
X464048Y132159D01*
X464048Y122565D02*
X464048Y116957D01*
X464048Y122565D02*
X475752Y122565D01*
X475752Y116957D01*
X464048Y116957D01*
X464048Y119351D02*
X475752Y119351D01*
X475752Y121745D02*
X464048Y121745D01*
X438648Y137785D02*
X438648Y143393D01*
X450352Y143393D01*
X450352Y137785D01*
X438648Y137785D01*
X438648Y140179D02*
X450352Y140179D01*
X450352Y142573D02*
X438648Y142573D01*
X438648Y132979D02*
X438648Y127371D01*
X438648Y132979D02*
X450352Y132979D01*
X450352Y127371D01*
X438648Y127371D01*
X438648Y129765D02*
X450352Y129765D01*
X450352Y132159D02*
X438648Y132159D01*
X438648Y122565D02*
X438648Y116957D01*
X438648Y122565D02*
X450352Y122565D01*
X450352Y116957D01*
X438648Y116957D01*
X438648Y119351D02*
X450352Y119351D01*
X450352Y121745D02*
X438648Y121745D01*
D10*
X584200Y165100D03*
X584200Y139700D03*
X584200Y114300D03*
X584200Y88900D03*
X12700Y38100D03*
X12700Y63500D03*
X12700Y88900D03*
X12700Y114300D03*
X12700Y139700D03*
X12700Y165100D03*
X12700Y190500D03*
X12700Y215900D03*
X843280Y22860D03*
X868680Y25400D03*
X894080Y22860D03*
X919480Y25400D03*
X944880Y22860D03*
X970280Y25400D03*
X1021080Y22860D03*
X1046480Y25400D03*
X1071880Y22860D03*
X1097280Y25400D03*
X1122680Y22860D03*
X1148080Y25400D03*
X1148080Y508000D03*
X1122680Y510540D03*
X1097280Y508000D03*
X1071880Y510540D03*
X1046480Y508000D03*
X1021080Y510540D03*
X995680Y508000D03*
X970280Y510540D03*
X932180Y508000D03*
X906780Y510540D03*
X881380Y508000D03*
X855980Y510540D03*
X830580Y508000D03*
X805180Y510540D03*
X779780Y508000D03*
X754380Y510540D03*
X728980Y508000D03*
X703580Y508000D03*
X817880Y25400D03*
X792480Y22860D03*
D11*
X967980Y417195D03*
X997980Y417195D03*
D12*
X915670Y255905D03*
X915670Y243205D03*
X915670Y230505D03*
X915670Y217805D03*
X915670Y268605D03*
X928370Y255905D03*
X928370Y243205D03*
X928370Y230505D03*
X928370Y217805D03*
X928370Y268605D03*
X611505Y481965D03*
X1179830Y47625D03*
D13*
X917077Y115580D02*
X911723Y115580D01*
X917077Y115580D02*
X917077Y103876D01*
X911723Y103876D01*
X911723Y115580D01*
X911723Y106270D02*
X917077Y106270D01*
X917077Y108664D02*
X911723Y108664D01*
X911723Y111058D02*
X917077Y111058D01*
X917077Y113452D02*
X911723Y113452D01*
X906917Y115580D02*
X901563Y115580D01*
X906917Y115580D02*
X906917Y103876D01*
X901563Y103876D01*
X901563Y115580D01*
X901563Y106270D02*
X906917Y106270D01*
X906917Y108664D02*
X901563Y108664D01*
X901563Y111058D02*
X906917Y111058D01*
X906917Y113452D02*
X901563Y113452D01*
D10*
X922020Y109728D03*
X896620Y109728D03*
D13*
X1132215Y168519D02*
X1132215Y174127D01*
X1132215Y168519D02*
X1120511Y168519D01*
X1120511Y174127D01*
X1132215Y174127D01*
X1132215Y170913D02*
X1120511Y170913D01*
X1120511Y173307D02*
X1132215Y173307D01*
X1132215Y178933D02*
X1132215Y184541D01*
X1132215Y178933D02*
X1120511Y178933D01*
X1120511Y184541D01*
X1132215Y184541D01*
X1132215Y181327D02*
X1120511Y181327D01*
X1120511Y183721D02*
X1132215Y183721D01*
D10*
X614680Y431800D03*
X614680Y406400D03*
X614680Y381000D03*
X614680Y355600D03*
X614680Y330200D03*
X614680Y304800D03*
D13*
X954268Y182128D02*
X954268Y176520D01*
X954268Y182128D02*
X965972Y182128D01*
X965972Y176520D01*
X954268Y176520D01*
X954268Y178914D02*
X965972Y178914D01*
X965972Y181308D02*
X954268Y181308D01*
X954268Y171714D02*
X954268Y166106D01*
X954268Y171714D02*
X965972Y171714D01*
X965972Y166106D01*
X954268Y166106D01*
X954268Y168500D02*
X965972Y168500D01*
X965972Y170894D02*
X954268Y170894D01*
X954268Y161300D02*
X954268Y155692D01*
X954268Y161300D02*
X965972Y161300D01*
X965972Y155692D01*
X954268Y155692D01*
X954268Y158086D02*
X965972Y158086D01*
X965972Y160480D02*
X954268Y160480D01*
X785993Y429885D02*
X785993Y435493D01*
X797697Y435493D01*
X797697Y429885D01*
X785993Y429885D01*
X785993Y432279D02*
X797697Y432279D01*
X797697Y434673D02*
X785993Y434673D01*
X785993Y425079D02*
X785993Y419471D01*
X785993Y425079D02*
X797697Y425079D01*
X797697Y419471D01*
X785993Y419471D01*
X785993Y421865D02*
X797697Y421865D01*
X797697Y424259D02*
X785993Y424259D01*
X785993Y414665D02*
X785993Y409057D01*
X785993Y414665D02*
X797697Y414665D01*
X797697Y409057D01*
X785993Y409057D01*
X785993Y411451D02*
X797697Y411451D01*
X797697Y413845D02*
X785993Y413845D01*
D14*
X903605Y384175D03*
D13*
X1066028Y105293D02*
X1066028Y99685D01*
X1066028Y105293D02*
X1077732Y105293D01*
X1077732Y99685D01*
X1066028Y99685D01*
X1066028Y102079D02*
X1077732Y102079D01*
X1077732Y104473D02*
X1066028Y104473D01*
X1066028Y94879D02*
X1066028Y89271D01*
X1066028Y94879D02*
X1077732Y94879D01*
X1077732Y89271D01*
X1066028Y89271D01*
X1066028Y91665D02*
X1077732Y91665D01*
X1077732Y94059D02*
X1066028Y94059D01*
X1066028Y84465D02*
X1066028Y78857D01*
X1066028Y84465D02*
X1077732Y84465D01*
X1077732Y78857D01*
X1066028Y78857D01*
X1066028Y81251D02*
X1077732Y81251D01*
X1077732Y83645D02*
X1066028Y83645D01*
X1040628Y99685D02*
X1040628Y105293D01*
X1052332Y105293D01*
X1052332Y99685D01*
X1040628Y99685D01*
X1040628Y102079D02*
X1052332Y102079D01*
X1052332Y104473D02*
X1040628Y104473D01*
X1040628Y94879D02*
X1040628Y89271D01*
X1040628Y94879D02*
X1052332Y94879D01*
X1052332Y89271D01*
X1040628Y89271D01*
X1040628Y91665D02*
X1052332Y91665D01*
X1052332Y94059D02*
X1040628Y94059D01*
X1040628Y84465D02*
X1040628Y78857D01*
X1040628Y84465D02*
X1052332Y84465D01*
X1052332Y78857D01*
X1040628Y78857D01*
X1040628Y81251D02*
X1052332Y81251D01*
X1052332Y83645D02*
X1040628Y83645D01*
X1066028Y137785D02*
X1066028Y143393D01*
X1077732Y143393D01*
X1077732Y137785D01*
X1066028Y137785D01*
X1066028Y140179D02*
X1077732Y140179D01*
X1077732Y142573D02*
X1066028Y142573D01*
X1066028Y132979D02*
X1066028Y127371D01*
X1066028Y132979D02*
X1077732Y132979D01*
X1077732Y127371D01*
X1066028Y127371D01*
X1066028Y129765D02*
X1077732Y129765D01*
X1077732Y132159D02*
X1066028Y132159D01*
X1066028Y122565D02*
X1066028Y116957D01*
X1066028Y122565D02*
X1077732Y122565D01*
X1077732Y116957D01*
X1066028Y116957D01*
X1066028Y119351D02*
X1077732Y119351D01*
X1077732Y121745D02*
X1066028Y121745D01*
X1040628Y137785D02*
X1040628Y143393D01*
X1052332Y143393D01*
X1052332Y137785D01*
X1040628Y137785D01*
X1040628Y140179D02*
X1052332Y140179D01*
X1052332Y142573D02*
X1040628Y142573D01*
X1040628Y132979D02*
X1040628Y127371D01*
X1040628Y132979D02*
X1052332Y132979D01*
X1052332Y127371D01*
X1040628Y127371D01*
X1040628Y129765D02*
X1052332Y129765D01*
X1052332Y132159D02*
X1040628Y132159D01*
X1040628Y122565D02*
X1040628Y116957D01*
X1040628Y122565D02*
X1052332Y122565D01*
X1052332Y116957D01*
X1040628Y116957D01*
X1040628Y119351D02*
X1052332Y119351D01*
X1052332Y121745D02*
X1040628Y121745D01*
D10*
X1186180Y165100D03*
X1186180Y139700D03*
X1186180Y114300D03*
X1186180Y88900D03*
X614680Y38100D03*
X614680Y63500D03*
X614680Y88900D03*
X614680Y114300D03*
X614680Y139700D03*
X614680Y165100D03*
X614680Y190500D03*
X614680Y215900D03*
X1445260Y22860D03*
X1470660Y25400D03*
X1496060Y22860D03*
X1521460Y25400D03*
X1546860Y22860D03*
X1572260Y25400D03*
X1623060Y22860D03*
X1648460Y25400D03*
X1673860Y22860D03*
X1699260Y25400D03*
X1724660Y22860D03*
X1750060Y25400D03*
X1750060Y508000D03*
X1724660Y510540D03*
X1699260Y508000D03*
X1673860Y510540D03*
X1648460Y508000D03*
X1623060Y510540D03*
X1597660Y508000D03*
X1572260Y510540D03*
X1534160Y508000D03*
X1508760Y510540D03*
X1483360Y508000D03*
X1457960Y510540D03*
X1432560Y508000D03*
X1407160Y510540D03*
X1381760Y508000D03*
X1356360Y510540D03*
X1330960Y508000D03*
X1305560Y508000D03*
X1419860Y25400D03*
X1394460Y22860D03*
D11*
X1569960Y417195D03*
X1599960Y417195D03*
D12*
X1517650Y255905D03*
X1517650Y243205D03*
X1517650Y230505D03*
X1517650Y217805D03*
X1517650Y268605D03*
X1530350Y255905D03*
X1530350Y243205D03*
X1530350Y230505D03*
X1530350Y217805D03*
X1530350Y268605D03*
X1213485Y481965D03*
X1781810Y47625D03*
D13*
X1519057Y115580D02*
X1513703Y115580D01*
X1519057Y115580D02*
X1519057Y103876D01*
X1513703Y103876D01*
X1513703Y115580D01*
X1513703Y106270D02*
X1519057Y106270D01*
X1519057Y108664D02*
X1513703Y108664D01*
X1513703Y111058D02*
X1519057Y111058D01*
X1519057Y113452D02*
X1513703Y113452D01*
X1508897Y115580D02*
X1503543Y115580D01*
X1508897Y115580D02*
X1508897Y103876D01*
X1503543Y103876D01*
X1503543Y115580D01*
X1503543Y106270D02*
X1508897Y106270D01*
X1508897Y108664D02*
X1503543Y108664D01*
X1503543Y111058D02*
X1508897Y111058D01*
X1508897Y113452D02*
X1503543Y113452D01*
D10*
X1524000Y109728D03*
X1498600Y109728D03*
D13*
X1734195Y168519D02*
X1734195Y174127D01*
X1734195Y168519D02*
X1722491Y168519D01*
X1722491Y174127D01*
X1734195Y174127D01*
X1734195Y170913D02*
X1722491Y170913D01*
X1722491Y173307D02*
X1734195Y173307D01*
X1734195Y178933D02*
X1734195Y184541D01*
X1734195Y178933D02*
X1722491Y178933D01*
X1722491Y184541D01*
X1734195Y184541D01*
X1734195Y181327D02*
X1722491Y181327D01*
X1722491Y183721D02*
X1734195Y183721D01*
D10*
X1216660Y431800D03*
X1216660Y406400D03*
X1216660Y381000D03*
X1216660Y355600D03*
X1216660Y330200D03*
X1216660Y304800D03*
D13*
X1556248Y182128D02*
X1556248Y176520D01*
X1556248Y182128D02*
X1567952Y182128D01*
X1567952Y176520D01*
X1556248Y176520D01*
X1556248Y178914D02*
X1567952Y178914D01*
X1567952Y181308D02*
X1556248Y181308D01*
X1556248Y171714D02*
X1556248Y166106D01*
X1556248Y171714D02*
X1567952Y171714D01*
X1567952Y166106D01*
X1556248Y166106D01*
X1556248Y168500D02*
X1567952Y168500D01*
X1567952Y170894D02*
X1556248Y170894D01*
X1556248Y161300D02*
X1556248Y155692D01*
X1556248Y161300D02*
X1567952Y161300D01*
X1567952Y155692D01*
X1556248Y155692D01*
X1556248Y158086D02*
X1567952Y158086D01*
X1567952Y160480D02*
X1556248Y160480D01*
X1387973Y429885D02*
X1387973Y435493D01*
X1399677Y435493D01*
X1399677Y429885D01*
X1387973Y429885D01*
X1387973Y432279D02*
X1399677Y432279D01*
X1399677Y434673D02*
X1387973Y434673D01*
X1387973Y425079D02*
X1387973Y419471D01*
X1387973Y425079D02*
X1399677Y425079D01*
X1399677Y419471D01*
X1387973Y419471D01*
X1387973Y421865D02*
X1399677Y421865D01*
X1399677Y424259D02*
X1387973Y424259D01*
X1387973Y414665D02*
X1387973Y409057D01*
X1387973Y414665D02*
X1399677Y414665D01*
X1399677Y409057D01*
X1387973Y409057D01*
X1387973Y411451D02*
X1399677Y411451D01*
X1399677Y413845D02*
X1387973Y413845D01*
D14*
X1505585Y384175D03*
D13*
X1668008Y105293D02*
X1668008Y99685D01*
X1668008Y105293D02*
X1679712Y105293D01*
X1679712Y99685D01*
X1668008Y99685D01*
X1668008Y102079D02*
X1679712Y102079D01*
X1679712Y104473D02*
X1668008Y104473D01*
X1668008Y94879D02*
X1668008Y89271D01*
X1668008Y94879D02*
X1679712Y94879D01*
X1679712Y89271D01*
X1668008Y89271D01*
X1668008Y91665D02*
X1679712Y91665D01*
X1679712Y94059D02*
X1668008Y94059D01*
X1668008Y84465D02*
X1668008Y78857D01*
X1668008Y84465D02*
X1679712Y84465D01*
X1679712Y78857D01*
X1668008Y78857D01*
X1668008Y81251D02*
X1679712Y81251D01*
X1679712Y83645D02*
X1668008Y83645D01*
X1642608Y99685D02*
X1642608Y105293D01*
X1654312Y105293D01*
X1654312Y99685D01*
X1642608Y99685D01*
X1642608Y102079D02*
X1654312Y102079D01*
X1654312Y104473D02*
X1642608Y104473D01*
X1642608Y94879D02*
X1642608Y89271D01*
X1642608Y94879D02*
X1654312Y94879D01*
X1654312Y89271D01*
X1642608Y89271D01*
X1642608Y91665D02*
X1654312Y91665D01*
X1654312Y94059D02*
X1642608Y94059D01*
X1642608Y84465D02*
X1642608Y78857D01*
X1642608Y84465D02*
X1654312Y84465D01*
X1654312Y78857D01*
X1642608Y78857D01*
X1642608Y81251D02*
X1654312Y81251D01*
X1654312Y83645D02*
X1642608Y83645D01*
X1668008Y137785D02*
X1668008Y143393D01*
X1679712Y143393D01*
X1679712Y137785D01*
X1668008Y137785D01*
X1668008Y140179D02*
X1679712Y140179D01*
X1679712Y142573D02*
X1668008Y142573D01*
X1668008Y132979D02*
X1668008Y127371D01*
X1668008Y132979D02*
X1679712Y132979D01*
X1679712Y127371D01*
X1668008Y127371D01*
X1668008Y129765D02*
X1679712Y129765D01*
X1679712Y132159D02*
X1668008Y132159D01*
X1668008Y122565D02*
X1668008Y116957D01*
X1668008Y122565D02*
X1679712Y122565D01*
X1679712Y116957D01*
X1668008Y116957D01*
X1668008Y119351D02*
X1679712Y119351D01*
X1679712Y121745D02*
X1668008Y121745D01*
X1642608Y137785D02*
X1642608Y143393D01*
X1654312Y143393D01*
X1654312Y137785D01*
X1642608Y137785D01*
X1642608Y140179D02*
X1654312Y140179D01*
X1654312Y142573D02*
X1642608Y142573D01*
X1642608Y132979D02*
X1642608Y127371D01*
X1642608Y132979D02*
X1654312Y132979D01*
X1654312Y127371D01*
X1642608Y127371D01*
X1642608Y129765D02*
X1654312Y129765D01*
X1654312Y132159D02*
X1642608Y132159D01*
X1642608Y122565D02*
X1642608Y116957D01*
X1642608Y122565D02*
X1654312Y122565D01*
X1654312Y116957D01*
X1642608Y116957D01*
X1642608Y119351D02*
X1654312Y119351D01*
X1654312Y121745D02*
X1642608Y121745D01*
D10*
X1788160Y165100D03*
X1788160Y139700D03*
X1788160Y114300D03*
X1788160Y88900D03*
X1216660Y38100D03*
X1216660Y63500D03*
X1216660Y88900D03*
X1216660Y114300D03*
X1216660Y139700D03*
X1216660Y165100D03*
X1216660Y190500D03*
X1216660Y215900D03*
X241300Y561340D03*
X266700Y563880D03*
X292100Y561340D03*
X317500Y563880D03*
X342900Y561340D03*
X368300Y563880D03*
X419100Y561340D03*
X444500Y563880D03*
X469900Y561340D03*
X495300Y563880D03*
X520700Y561340D03*
X546100Y563880D03*
X546100Y1046480D03*
X520700Y1049020D03*
X495300Y1046480D03*
X469900Y1049020D03*
X444500Y1046480D03*
X419100Y1049020D03*
X393700Y1046480D03*
X368300Y1049020D03*
X330200Y1046480D03*
X304800Y1049020D03*
X279400Y1046480D03*
X254000Y1049020D03*
X228600Y1046480D03*
X203200Y1049020D03*
X177800Y1046480D03*
X152400Y1049020D03*
X127000Y1046480D03*
X101600Y1046480D03*
X215900Y563880D03*
X190500Y561340D03*
D11*
X366000Y955675D03*
X396000Y955675D03*
D12*
X313690Y794385D03*
X313690Y781685D03*
X313690Y768985D03*
X313690Y756285D03*
X313690Y807085D03*
X326390Y794385D03*
X326390Y781685D03*
X326390Y768985D03*
X326390Y756285D03*
X326390Y807085D03*
X9525Y1020445D03*
X577850Y586105D03*
D13*
X315097Y654060D02*
X309743Y654060D01*
X315097Y654060D02*
X315097Y642356D01*
X309743Y642356D01*
X309743Y654060D01*
X309743Y644750D02*
X315097Y644750D01*
X315097Y647144D02*
X309743Y647144D01*
X309743Y649538D02*
X315097Y649538D01*
X315097Y651932D02*
X309743Y651932D01*
X304937Y654060D02*
X299583Y654060D01*
X304937Y654060D02*
X304937Y642356D01*
X299583Y642356D01*
X299583Y654060D01*
X299583Y644750D02*
X304937Y644750D01*
X304937Y647144D02*
X299583Y647144D01*
X299583Y649538D02*
X304937Y649538D01*
X304937Y651932D02*
X299583Y651932D01*
D10*
X320040Y648208D03*
X294640Y648208D03*
D13*
X530235Y706999D02*
X530235Y712607D01*
X530235Y706999D02*
X518531Y706999D01*
X518531Y712607D01*
X530235Y712607D01*
X530235Y709393D02*
X518531Y709393D01*
X518531Y711787D02*
X530235Y711787D01*
X530235Y717413D02*
X530235Y723021D01*
X530235Y717413D02*
X518531Y717413D01*
X518531Y723021D01*
X530235Y723021D01*
X530235Y719807D02*
X518531Y719807D01*
X518531Y722201D02*
X530235Y722201D01*
D10*
X12700Y970280D03*
X12700Y944880D03*
X12700Y919480D03*
X12700Y894080D03*
X12700Y868680D03*
X12700Y843280D03*
D13*
X352288Y720608D02*
X352288Y715000D01*
X352288Y720608D02*
X363992Y720608D01*
X363992Y715000D01*
X352288Y715000D01*
X352288Y717394D02*
X363992Y717394D01*
X363992Y719788D02*
X352288Y719788D01*
X352288Y710194D02*
X352288Y704586D01*
X352288Y710194D02*
X363992Y710194D01*
X363992Y704586D01*
X352288Y704586D01*
X352288Y706980D02*
X363992Y706980D01*
X363992Y709374D02*
X352288Y709374D01*
X352288Y699780D02*
X352288Y694172D01*
X352288Y699780D02*
X363992Y699780D01*
X363992Y694172D01*
X352288Y694172D01*
X352288Y696566D02*
X363992Y696566D01*
X363992Y698960D02*
X352288Y698960D01*
X184013Y968365D02*
X184013Y973973D01*
X195717Y973973D01*
X195717Y968365D01*
X184013Y968365D01*
X184013Y970759D02*
X195717Y970759D01*
X195717Y973153D02*
X184013Y973153D01*
X184013Y963559D02*
X184013Y957951D01*
X184013Y963559D02*
X195717Y963559D01*
X195717Y957951D01*
X184013Y957951D01*
X184013Y960345D02*
X195717Y960345D01*
X195717Y962739D02*
X184013Y962739D01*
X184013Y953145D02*
X184013Y947537D01*
X184013Y953145D02*
X195717Y953145D01*
X195717Y947537D01*
X184013Y947537D01*
X184013Y949931D02*
X195717Y949931D01*
X195717Y952325D02*
X184013Y952325D01*
D14*
X301625Y922655D03*
D13*
X464048Y643773D02*
X464048Y638165D01*
X464048Y643773D02*
X475752Y643773D01*
X475752Y638165D01*
X464048Y638165D01*
X464048Y640559D02*
X475752Y640559D01*
X475752Y642953D02*
X464048Y642953D01*
X464048Y633359D02*
X464048Y627751D01*
X464048Y633359D02*
X475752Y633359D01*
X475752Y627751D01*
X464048Y627751D01*
X464048Y630145D02*
X475752Y630145D01*
X475752Y632539D02*
X464048Y632539D01*
X464048Y622945D02*
X464048Y617337D01*
X464048Y622945D02*
X475752Y622945D01*
X475752Y617337D01*
X464048Y617337D01*
X464048Y619731D02*
X475752Y619731D01*
X475752Y622125D02*
X464048Y622125D01*
X438648Y638165D02*
X438648Y643773D01*
X450352Y643773D01*
X450352Y638165D01*
X438648Y638165D01*
X438648Y640559D02*
X450352Y640559D01*
X450352Y642953D02*
X438648Y642953D01*
X438648Y633359D02*
X438648Y627751D01*
X438648Y633359D02*
X450352Y633359D01*
X450352Y627751D01*
X438648Y627751D01*
X438648Y630145D02*
X450352Y630145D01*
X450352Y632539D02*
X438648Y632539D01*
X438648Y622945D02*
X438648Y617337D01*
X438648Y622945D02*
X450352Y622945D01*
X450352Y617337D01*
X438648Y617337D01*
X438648Y619731D02*
X450352Y619731D01*
X450352Y622125D02*
X438648Y622125D01*
X464048Y676265D02*
X464048Y681873D01*
X475752Y681873D01*
X475752Y676265D01*
X464048Y676265D01*
X464048Y678659D02*
X475752Y678659D01*
X475752Y681053D02*
X464048Y681053D01*
X464048Y671459D02*
X464048Y665851D01*
X464048Y671459D02*
X475752Y671459D01*
X475752Y665851D01*
X464048Y665851D01*
X464048Y668245D02*
X475752Y668245D01*
X475752Y670639D02*
X464048Y670639D01*
X464048Y661045D02*
X464048Y655437D01*
X464048Y661045D02*
X475752Y661045D01*
X475752Y655437D01*
X464048Y655437D01*
X464048Y657831D02*
X475752Y657831D01*
X475752Y660225D02*
X464048Y660225D01*
X438648Y676265D02*
X438648Y681873D01*
X450352Y681873D01*
X450352Y676265D01*
X438648Y676265D01*
X438648Y678659D02*
X450352Y678659D01*
X450352Y681053D02*
X438648Y681053D01*
X438648Y671459D02*
X438648Y665851D01*
X438648Y671459D02*
X450352Y671459D01*
X450352Y665851D01*
X438648Y665851D01*
X438648Y668245D02*
X450352Y668245D01*
X450352Y670639D02*
X438648Y670639D01*
X438648Y661045D02*
X438648Y655437D01*
X438648Y661045D02*
X450352Y661045D01*
X450352Y655437D01*
X438648Y655437D01*
X438648Y657831D02*
X450352Y657831D01*
X450352Y660225D02*
X438648Y660225D01*
D10*
X584200Y703580D03*
X584200Y678180D03*
X584200Y652780D03*
X584200Y627380D03*
X12700Y576580D03*
X12700Y601980D03*
X12700Y627380D03*
X12700Y652780D03*
X12700Y678180D03*
X12700Y703580D03*
X12700Y728980D03*
X12700Y754380D03*
X843280Y561340D03*
X868680Y563880D03*
X894080Y561340D03*
X919480Y563880D03*
X944880Y561340D03*
X970280Y563880D03*
X1021080Y561340D03*
X1046480Y563880D03*
X1071880Y561340D03*
X1097280Y563880D03*
X1122680Y561340D03*
X1148080Y563880D03*
X1148080Y1046480D03*
X1122680Y1049020D03*
X1097280Y1046480D03*
X1071880Y1049020D03*
X1046480Y1046480D03*
X1021080Y1049020D03*
X995680Y1046480D03*
X970280Y1049020D03*
X932180Y1046480D03*
X906780Y1049020D03*
X881380Y1046480D03*
X855980Y1049020D03*
X830580Y1046480D03*
X805180Y1049020D03*
X779780Y1046480D03*
X754380Y1049020D03*
X728980Y1046480D03*
X703580Y1046480D03*
X817880Y563880D03*
X792480Y561340D03*
D11*
X967980Y955675D03*
X997980Y955675D03*
D12*
X915670Y794385D03*
X915670Y781685D03*
X915670Y768985D03*
X915670Y756285D03*
X915670Y807085D03*
X928370Y794385D03*
X928370Y781685D03*
X928370Y768985D03*
X928370Y756285D03*
X928370Y807085D03*
X611505Y1020445D03*
X1179830Y586105D03*
D13*
X917077Y654060D02*
X911723Y654060D01*
X917077Y654060D02*
X917077Y642356D01*
X911723Y642356D01*
X911723Y654060D01*
X911723Y644750D02*
X917077Y644750D01*
X917077Y647144D02*
X911723Y647144D01*
X911723Y649538D02*
X917077Y649538D01*
X917077Y651932D02*
X911723Y651932D01*
X906917Y654060D02*
X901563Y654060D01*
X906917Y654060D02*
X906917Y642356D01*
X901563Y642356D01*
X901563Y654060D01*
X901563Y644750D02*
X906917Y644750D01*
X906917Y647144D02*
X901563Y647144D01*
X901563Y649538D02*
X906917Y649538D01*
X906917Y651932D02*
X901563Y651932D01*
D10*
X922020Y648208D03*
X896620Y648208D03*
D13*
X1132215Y706999D02*
X1132215Y712607D01*
X1132215Y706999D02*
X1120511Y706999D01*
X1120511Y712607D01*
X1132215Y712607D01*
X1132215Y709393D02*
X1120511Y709393D01*
X1120511Y711787D02*
X1132215Y711787D01*
X1132215Y717413D02*
X1132215Y723021D01*
X1132215Y717413D02*
X1120511Y717413D01*
X1120511Y723021D01*
X1132215Y723021D01*
X1132215Y719807D02*
X1120511Y719807D01*
X1120511Y722201D02*
X1132215Y722201D01*
D10*
X614680Y970280D03*
X614680Y944880D03*
X614680Y919480D03*
X614680Y894080D03*
X614680Y868680D03*
X614680Y843280D03*
D13*
X954268Y720608D02*
X954268Y715000D01*
X954268Y720608D02*
X965972Y720608D01*
X965972Y715000D01*
X954268Y715000D01*
X954268Y717394D02*
X965972Y717394D01*
X965972Y719788D02*
X954268Y719788D01*
X954268Y710194D02*
X954268Y704586D01*
X954268Y710194D02*
X965972Y710194D01*
X965972Y704586D01*
X954268Y704586D01*
X954268Y706980D02*
X965972Y706980D01*
X965972Y709374D02*
X954268Y709374D01*
X954268Y699780D02*
X954268Y694172D01*
X954268Y699780D02*
X965972Y699780D01*
X965972Y694172D01*
X954268Y694172D01*
X954268Y696566D02*
X965972Y696566D01*
X965972Y698960D02*
X954268Y698960D01*
X785993Y968365D02*
X785993Y973973D01*
X797697Y973973D01*
X797697Y968365D01*
X785993Y968365D01*
X785993Y970759D02*
X797697Y970759D01*
X797697Y973153D02*
X785993Y973153D01*
X785993Y963559D02*
X785993Y957951D01*
X785993Y963559D02*
X797697Y963559D01*
X797697Y957951D01*
X785993Y957951D01*
X785993Y960345D02*
X797697Y960345D01*
X797697Y962739D02*
X785993Y962739D01*
X785993Y953145D02*
X785993Y947537D01*
X785993Y953145D02*
X797697Y953145D01*
X797697Y947537D01*
X785993Y947537D01*
X785993Y949931D02*
X797697Y949931D01*
X797697Y952325D02*
X785993Y952325D01*
D14*
X903605Y922655D03*
D13*
X1066028Y643773D02*
X1066028Y638165D01*
X1066028Y643773D02*
X1077732Y643773D01*
X1077732Y638165D01*
X1066028Y638165D01*
X1066028Y640559D02*
X1077732Y640559D01*
X1077732Y642953D02*
X1066028Y642953D01*
X1066028Y633359D02*
X1066028Y627751D01*
X1066028Y633359D02*
X1077732Y633359D01*
X1077732Y627751D01*
X1066028Y627751D01*
X1066028Y630145D02*
X1077732Y630145D01*
X1077732Y632539D02*
X1066028Y632539D01*
X1066028Y622945D02*
X1066028Y617337D01*
X1066028Y622945D02*
X1077732Y622945D01*
X1077732Y617337D01*
X1066028Y617337D01*
X1066028Y619731D02*
X1077732Y619731D01*
X1077732Y622125D02*
X1066028Y622125D01*
X1040628Y638165D02*
X1040628Y643773D01*
X1052332Y643773D01*
X1052332Y638165D01*
X1040628Y638165D01*
X1040628Y640559D02*
X1052332Y640559D01*
X1052332Y642953D02*
X1040628Y642953D01*
X1040628Y633359D02*
X1040628Y627751D01*
X1040628Y633359D02*
X1052332Y633359D01*
X1052332Y627751D01*
X1040628Y627751D01*
X1040628Y630145D02*
X1052332Y630145D01*
X1052332Y632539D02*
X1040628Y632539D01*
X1040628Y622945D02*
X1040628Y617337D01*
X1040628Y622945D02*
X1052332Y622945D01*
X1052332Y617337D01*
X1040628Y617337D01*
X1040628Y619731D02*
X1052332Y619731D01*
X1052332Y622125D02*
X1040628Y622125D01*
X1066028Y676265D02*
X1066028Y681873D01*
X1077732Y681873D01*
X1077732Y676265D01*
X1066028Y676265D01*
X1066028Y678659D02*
X1077732Y678659D01*
X1077732Y681053D02*
X1066028Y681053D01*
X1066028Y671459D02*
X1066028Y665851D01*
X1066028Y671459D02*
X1077732Y671459D01*
X1077732Y665851D01*
X1066028Y665851D01*
X1066028Y668245D02*
X1077732Y668245D01*
X1077732Y670639D02*
X1066028Y670639D01*
X1066028Y661045D02*
X1066028Y655437D01*
X1066028Y661045D02*
X1077732Y661045D01*
X1077732Y655437D01*
X1066028Y655437D01*
X1066028Y657831D02*
X1077732Y657831D01*
X1077732Y660225D02*
X1066028Y660225D01*
X1040628Y676265D02*
X1040628Y681873D01*
X1052332Y681873D01*
X1052332Y676265D01*
X1040628Y676265D01*
X1040628Y678659D02*
X1052332Y678659D01*
X1052332Y681053D02*
X1040628Y681053D01*
X1040628Y671459D02*
X1040628Y665851D01*
X1040628Y671459D02*
X1052332Y671459D01*
X1052332Y665851D01*
X1040628Y665851D01*
X1040628Y668245D02*
X1052332Y668245D01*
X1052332Y670639D02*
X1040628Y670639D01*
X1040628Y661045D02*
X1040628Y655437D01*
X1040628Y661045D02*
X1052332Y661045D01*
X1052332Y655437D01*
X1040628Y655437D01*
X1040628Y657831D02*
X1052332Y657831D01*
X1052332Y660225D02*
X1040628Y660225D01*
D10*
X1186180Y703580D03*
X1186180Y678180D03*
X1186180Y652780D03*
X1186180Y627380D03*
X614680Y576580D03*
X614680Y601980D03*
X614680Y627380D03*
X614680Y652780D03*
X614680Y678180D03*
X614680Y703580D03*
X614680Y728980D03*
X614680Y754380D03*
X1445260Y561340D03*
X1470660Y563880D03*
X1496060Y561340D03*
X1521460Y563880D03*
X1546860Y561340D03*
X1572260Y563880D03*
X1623060Y561340D03*
X1648460Y563880D03*
X1673860Y561340D03*
X1699260Y563880D03*
X1724660Y561340D03*
X1750060Y563880D03*
X1750060Y1046480D03*
X1724660Y1049020D03*
X1699260Y1046480D03*
X1673860Y1049020D03*
X1648460Y1046480D03*
X1623060Y1049020D03*
X1597660Y1046480D03*
X1572260Y1049020D03*
X1534160Y1046480D03*
X1508760Y1049020D03*
X1483360Y1046480D03*
X1457960Y1049020D03*
X1432560Y1046480D03*
X1407160Y1049020D03*
X1381760Y1046480D03*
X1356360Y1049020D03*
X1330960Y1046480D03*
X1305560Y1046480D03*
X1419860Y563880D03*
X1394460Y561340D03*
D11*
X1569960Y955675D03*
X1599960Y955675D03*
D12*
X1517650Y794385D03*
X1517650Y781685D03*
X1517650Y768985D03*
X1517650Y756285D03*
X1517650Y807085D03*
X1530350Y794385D03*
X1530350Y781685D03*
X1530350Y768985D03*
X1530350Y756285D03*
X1530350Y807085D03*
X1213485Y1020445D03*
X1781810Y586105D03*
D13*
X1519057Y654060D02*
X1513703Y654060D01*
X1519057Y654060D02*
X1519057Y642356D01*
X1513703Y642356D01*
X1513703Y654060D01*
X1513703Y644750D02*
X1519057Y644750D01*
X1519057Y647144D02*
X1513703Y647144D01*
X1513703Y649538D02*
X1519057Y649538D01*
X1519057Y651932D02*
X1513703Y651932D01*
X1508897Y654060D02*
X1503543Y654060D01*
X1508897Y654060D02*
X1508897Y642356D01*
X1503543Y642356D01*
X1503543Y654060D01*
X1503543Y644750D02*
X1508897Y644750D01*
X1508897Y647144D02*
X1503543Y647144D01*
X1503543Y649538D02*
X1508897Y649538D01*
X1508897Y651932D02*
X1503543Y651932D01*
D10*
X1524000Y648208D03*
X1498600Y648208D03*
D13*
X1734195Y706999D02*
X1734195Y712607D01*
X1734195Y706999D02*
X1722491Y706999D01*
X1722491Y712607D01*
X1734195Y712607D01*
X1734195Y709393D02*
X1722491Y709393D01*
X1722491Y711787D02*
X1734195Y711787D01*
X1734195Y717413D02*
X1734195Y723021D01*
X1734195Y717413D02*
X1722491Y717413D01*
X1722491Y723021D01*
X1734195Y723021D01*
X1734195Y719807D02*
X1722491Y719807D01*
X1722491Y722201D02*
X1734195Y722201D01*
D10*
X1216660Y970280D03*
X1216660Y944880D03*
X1216660Y919480D03*
X1216660Y894080D03*
X1216660Y868680D03*
X1216660Y843280D03*
D13*
X1556248Y720608D02*
X1556248Y715000D01*
X1556248Y720608D02*
X1567952Y720608D01*
X1567952Y715000D01*
X1556248Y715000D01*
X1556248Y717394D02*
X1567952Y717394D01*
X1567952Y719788D02*
X1556248Y719788D01*
X1556248Y710194D02*
X1556248Y704586D01*
X1556248Y710194D02*
X1567952Y710194D01*
X1567952Y704586D01*
X1556248Y704586D01*
X1556248Y706980D02*
X1567952Y706980D01*
X1567952Y709374D02*
X1556248Y709374D01*
X1556248Y699780D02*
X1556248Y694172D01*
X1556248Y699780D02*
X1567952Y699780D01*
X1567952Y694172D01*
X1556248Y694172D01*
X1556248Y696566D02*
X1567952Y696566D01*
X1567952Y698960D02*
X1556248Y698960D01*
X1387973Y968365D02*
X1387973Y973973D01*
X1399677Y973973D01*
X1399677Y968365D01*
X1387973Y968365D01*
X1387973Y970759D02*
X1399677Y970759D01*
X1399677Y973153D02*
X1387973Y973153D01*
X1387973Y963559D02*
X1387973Y957951D01*
X1387973Y963559D02*
X1399677Y963559D01*
X1399677Y957951D01*
X1387973Y957951D01*
X1387973Y960345D02*
X1399677Y960345D01*
X1399677Y962739D02*
X1387973Y962739D01*
X1387973Y953145D02*
X1387973Y947537D01*
X1387973Y953145D02*
X1399677Y953145D01*
X1399677Y947537D01*
X1387973Y947537D01*
X1387973Y949931D02*
X1399677Y949931D01*
X1399677Y952325D02*
X1387973Y952325D01*
D14*
X1505585Y922655D03*
D13*
X1668008Y643773D02*
X1668008Y638165D01*
X1668008Y643773D02*
X1679712Y643773D01*
X1679712Y638165D01*
X1668008Y638165D01*
X1668008Y640559D02*
X1679712Y640559D01*
X1679712Y642953D02*
X1668008Y642953D01*
X1668008Y633359D02*
X1668008Y627751D01*
X1668008Y633359D02*
X1679712Y633359D01*
X1679712Y627751D01*
X1668008Y627751D01*
X1668008Y630145D02*
X1679712Y630145D01*
X1679712Y632539D02*
X1668008Y632539D01*
X1668008Y622945D02*
X1668008Y617337D01*
X1668008Y622945D02*
X1679712Y622945D01*
X1679712Y617337D01*
X1668008Y617337D01*
X1668008Y619731D02*
X1679712Y619731D01*
X1679712Y622125D02*
X1668008Y622125D01*
X1642608Y638165D02*
X1642608Y643773D01*
X1654312Y643773D01*
X1654312Y638165D01*
X1642608Y638165D01*
X1642608Y640559D02*
X1654312Y640559D01*
X1654312Y642953D02*
X1642608Y642953D01*
X1642608Y633359D02*
X1642608Y627751D01*
X1642608Y633359D02*
X1654312Y633359D01*
X1654312Y627751D01*
X1642608Y627751D01*
X1642608Y630145D02*
X1654312Y630145D01*
X1654312Y632539D02*
X1642608Y632539D01*
X1642608Y622945D02*
X1642608Y617337D01*
X1642608Y622945D02*
X1654312Y622945D01*
X1654312Y617337D01*
X1642608Y617337D01*
X1642608Y619731D02*
X1654312Y619731D01*
X1654312Y622125D02*
X1642608Y622125D01*
X1668008Y676265D02*
X1668008Y681873D01*
X1679712Y681873D01*
X1679712Y676265D01*
X1668008Y676265D01*
X1668008Y678659D02*
X1679712Y678659D01*
X1679712Y681053D02*
X1668008Y681053D01*
X1668008Y671459D02*
X1668008Y665851D01*
X1668008Y671459D02*
X1679712Y671459D01*
X1679712Y665851D01*
X1668008Y665851D01*
X1668008Y668245D02*
X1679712Y668245D01*
X1679712Y670639D02*
X1668008Y670639D01*
X1668008Y661045D02*
X1668008Y655437D01*
X1668008Y661045D02*
X1679712Y661045D01*
X1679712Y655437D01*
X1668008Y655437D01*
X1668008Y657831D02*
X1679712Y657831D01*
X1679712Y660225D02*
X1668008Y660225D01*
X1642608Y676265D02*
X1642608Y681873D01*
X1654312Y681873D01*
X1654312Y676265D01*
X1642608Y676265D01*
X1642608Y678659D02*
X1654312Y678659D01*
X1654312Y681053D02*
X1642608Y681053D01*
X1642608Y671459D02*
X1642608Y665851D01*
X1642608Y671459D02*
X1654312Y671459D01*
X1654312Y665851D01*
X1642608Y665851D01*
X1642608Y668245D02*
X1654312Y668245D01*
X1654312Y670639D02*
X1642608Y670639D01*
X1642608Y661045D02*
X1642608Y655437D01*
X1642608Y661045D02*
X1654312Y661045D01*
X1654312Y655437D01*
X1642608Y655437D01*
X1642608Y657831D02*
X1654312Y657831D01*
X1654312Y660225D02*
X1642608Y660225D01*
D10*
X1788160Y703580D03*
X1788160Y678180D03*
X1788160Y652780D03*
X1788160Y627380D03*
X1216660Y576580D03*
X1216660Y601980D03*
X1216660Y627380D03*
X1216660Y652780D03*
X1216660Y678180D03*
X1216660Y703580D03*
X1216660Y728980D03*
X1216660Y754380D03*
D12*
X-26238Y1061085D03*
X1827098Y1061085D03*
D15*
X-35293Y68580D02*
X-35290Y68802D01*
X-35282Y69024D01*
X-35268Y69246D01*
X-35249Y69468D01*
X-35225Y69688D01*
X-35195Y69909D01*
X-35160Y70128D01*
X-35119Y70347D01*
X-35073Y70564D01*
X-35022Y70780D01*
X-34965Y70995D01*
X-34903Y71209D01*
X-34836Y71420D01*
X-34764Y71631D01*
X-34686Y71839D01*
X-34604Y72045D01*
X-34516Y72249D01*
X-34424Y72452D01*
X-34326Y72651D01*
X-34224Y72848D01*
X-34117Y73043D01*
X-34005Y73235D01*
X-33888Y73424D01*
X-33767Y73611D01*
X-33641Y73794D01*
X-33511Y73974D01*
X-33376Y74151D01*
X-33238Y74324D01*
X-33095Y74494D01*
X-32947Y74661D01*
X-32796Y74824D01*
X-32641Y74983D01*
X-32482Y75138D01*
X-32319Y75289D01*
X-32152Y75437D01*
X-31982Y75580D01*
X-31809Y75718D01*
X-31632Y75853D01*
X-31452Y75983D01*
X-31269Y76109D01*
X-31082Y76230D01*
X-30893Y76347D01*
X-30701Y76459D01*
X-30506Y76566D01*
X-30309Y76668D01*
X-30110Y76766D01*
X-29907Y76858D01*
X-29703Y76946D01*
X-29497Y77028D01*
X-29289Y77106D01*
X-29078Y77178D01*
X-28867Y77245D01*
X-28653Y77307D01*
X-28438Y77364D01*
X-28222Y77415D01*
X-28005Y77461D01*
X-27786Y77502D01*
X-27567Y77537D01*
X-27346Y77567D01*
X-27126Y77591D01*
X-26904Y77610D01*
X-26682Y77624D01*
X-26460Y77632D01*
X-26238Y77635D01*
X-26016Y77632D01*
X-25794Y77624D01*
X-25572Y77610D01*
X-25350Y77591D01*
X-25130Y77567D01*
X-24909Y77537D01*
X-24690Y77502D01*
X-24471Y77461D01*
X-24254Y77415D01*
X-24038Y77364D01*
X-23823Y77307D01*
X-23609Y77245D01*
X-23398Y77178D01*
X-23187Y77106D01*
X-22979Y77028D01*
X-22773Y76946D01*
X-22569Y76858D01*
X-22366Y76766D01*
X-22167Y76668D01*
X-21970Y76566D01*
X-21775Y76459D01*
X-21583Y76347D01*
X-21394Y76230D01*
X-21207Y76109D01*
X-21024Y75983D01*
X-20844Y75853D01*
X-20667Y75718D01*
X-20494Y75580D01*
X-20324Y75437D01*
X-20157Y75289D01*
X-19994Y75138D01*
X-19835Y74983D01*
X-19680Y74824D01*
X-19529Y74661D01*
X-19381Y74494D01*
X-19238Y74324D01*
X-19100Y74151D01*
X-18965Y73974D01*
X-18835Y73794D01*
X-18709Y73611D01*
X-18588Y73424D01*
X-18471Y73235D01*
X-18359Y73043D01*
X-18252Y72848D01*
X-18150Y72651D01*
X-18052Y72452D01*
X-17960Y72249D01*
X-17872Y72045D01*
X-17790Y71839D01*
X-17712Y71631D01*
X-17640Y71420D01*
X-17573Y71209D01*
X-17511Y70995D01*
X-17454Y70780D01*
X-17403Y70564D01*
X-17357Y70347D01*
X-17316Y70128D01*
X-17281Y69909D01*
X-17251Y69688D01*
X-17227Y69468D01*
X-17208Y69246D01*
X-17194Y69024D01*
X-17186Y68802D01*
X-17183Y68580D01*
X-17186Y68358D01*
X-17194Y68136D01*
X-17208Y67914D01*
X-17227Y67692D01*
X-17251Y67472D01*
X-17281Y67251D01*
X-17316Y67032D01*
X-17357Y66813D01*
X-17403Y66596D01*
X-17454Y66380D01*
X-17511Y66165D01*
X-17573Y65951D01*
X-17640Y65740D01*
X-17712Y65529D01*
X-17790Y65321D01*
X-17872Y65115D01*
X-17960Y64911D01*
X-18052Y64708D01*
X-18150Y64509D01*
X-18252Y64312D01*
X-18359Y64117D01*
X-18471Y63925D01*
X-18588Y63736D01*
X-18709Y63549D01*
X-18835Y63366D01*
X-18965Y63186D01*
X-19100Y63009D01*
X-19238Y62836D01*
X-19381Y62666D01*
X-19529Y62499D01*
X-19680Y62336D01*
X-19835Y62177D01*
X-19994Y62022D01*
X-20157Y61871D01*
X-20324Y61723D01*
X-20494Y61580D01*
X-20667Y61442D01*
X-20844Y61307D01*
X-21024Y61177D01*
X-21207Y61051D01*
X-21394Y60930D01*
X-21583Y60813D01*
X-21775Y60701D01*
X-21970Y60594D01*
X-22167Y60492D01*
X-22366Y60394D01*
X-22569Y60302D01*
X-22773Y60214D01*
X-22979Y60132D01*
X-23187Y60054D01*
X-23398Y59982D01*
X-23609Y59915D01*
X-23823Y59853D01*
X-24038Y59796D01*
X-24254Y59745D01*
X-24471Y59699D01*
X-24690Y59658D01*
X-24909Y59623D01*
X-25130Y59593D01*
X-25350Y59569D01*
X-25572Y59550D01*
X-25794Y59536D01*
X-26016Y59528D01*
X-26238Y59525D01*
X-26460Y59528D01*
X-26682Y59536D01*
X-26904Y59550D01*
X-27126Y59569D01*
X-27346Y59593D01*
X-27567Y59623D01*
X-27786Y59658D01*
X-28005Y59699D01*
X-28222Y59745D01*
X-28438Y59796D01*
X-28653Y59853D01*
X-28867Y59915D01*
X-29078Y59982D01*
X-29289Y60054D01*
X-29497Y60132D01*
X-29703Y60214D01*
X-29907Y60302D01*
X-30110Y60394D01*
X-30309Y60492D01*
X-30506Y60594D01*
X-30701Y60701D01*
X-30893Y60813D01*
X-31082Y60930D01*
X-31269Y61051D01*
X-31452Y61177D01*
X-31632Y61307D01*
X-31809Y61442D01*
X-31982Y61580D01*
X-32152Y61723D01*
X-32319Y61871D01*
X-32482Y62022D01*
X-32641Y62177D01*
X-32796Y62336D01*
X-32947Y62499D01*
X-33095Y62666D01*
X-33238Y62836D01*
X-33376Y63009D01*
X-33511Y63186D01*
X-33641Y63366D01*
X-33767Y63549D01*
X-33888Y63736D01*
X-34005Y63925D01*
X-34117Y64117D01*
X-34224Y64312D01*
X-34326Y64509D01*
X-34424Y64708D01*
X-34516Y64911D01*
X-34604Y65115D01*
X-34686Y65321D01*
X-34764Y65529D01*
X-34836Y65740D01*
X-34903Y65951D01*
X-34965Y66165D01*
X-35022Y66380D01*
X-35073Y66596D01*
X-35119Y66813D01*
X-35160Y67032D01*
X-35195Y67251D01*
X-35225Y67472D01*
X-35249Y67692D01*
X-35268Y67914D01*
X-35282Y68136D01*
X-35290Y68358D01*
X-35293Y68580D01*
D16*
X-26238Y68580D03*
M02*
